<?xml version="1.0" standalone="no"?>
<!DOCTYPE svg PUBLIC "-//W3C//DTD SVG 1.1//EN" "http://www.w3.org/Graphics/SVG/1.1/DTD/svg11.dtd" >
<svg xmlns="http://www.w3.org/2000/svg">
<metadata>
This is a custom SVG webfont generated by Font Squirrel.
Copyright   : johanssonandreascx
</metadata>
<defs>
<font id="EatyourfaceRegular" horiz-adv-x="500" >
<font-face units-per-em="1000" ascent="800" descent="-200" />
<missing-glyph horiz-adv-x="500" />
<glyph unicode=" " />
<glyph unicode="!" horiz-adv-x="400" d="M429 710q-11 -36 -49 -118q-16 -33 -46 -97q0 -9 2 -42.5t2 -53.5q0 -73 -23 -96l-20 -20l-1 -9l-74 -74q2 25 5 56l-20 -19q23 174 43 284q2 9 7 52v67v66l20 20v-42l4 3q3 14 5 26l75 75q-4 -20 -12 -55l13 13q-16 -58 -27 -109l1 -113q8 17 26 54.5t46 109.5zM331 151 q2 -8 2 -18q0 -33 -21 -53l-7 -8q14 -14 20 -30l-19 -18q-7 19 -19 31l-45 -46q-12 -12 -26 -12q-13 0 -25 9q-20 15 -20 33q0 11 8 23q-7 26 13 46l23 23q-6 7 -18 22l18 17q7 -8 18 -21l30 30q2 2 34 28l3 -3l-47 -47q-4 -9 -2 -20l11 11q24 24 68 43l-72 -72l5 -5 q9 -5 23 -7z" />
<glyph unicode="&#x22;" horiz-adv-x="377" d="M404 761q0 -24 -6 -44q-1 -111 -18 -216q-9 -55 -9 -67l-20 -20q0 13 3 38l-54 -55q8 44 12 71l-24 -24q3 19 6 44l-35 -36q19 69 50 203l15 15v11l6 6q-3 19 -5 38l20 19q2 -18 5 -37zM238 463l-20 -19q-5 37 -18 74q-5 -20 -10 -37l-77 -76q13 39 20 89l-17 -18 q0 38 6 93t6 89l4 4q-4 9 -8 14q-8 7 -29 9l19 20q27 -3 37 -25l51 52q0 -13 -1 -26l15 15q0 -96 -8 -158q24 -51 30 -100z" />
<glyph unicode="#" horiz-adv-x="652" d="M698 407l-21 -22q-7 -1 -114 -28h92l-74 -74h-88v-21l-40 -40q-1 -24 -1 -50l-20 -20v49l-13 -13q0 34 7 95h-15l-58 -58q0 29 5 58h-98q2 -71 17 -133l-1 -1q9 -18 14 -32l-19 -18q-5 14 -14 31l-53 -53q-7 31 -11 58l-13 -13q0 24 -2 51q-3 34 -4 47l-2 63h-2 q-36 -14 -111 -42l23 23q18 6 50 19h-79l22 22q-40 5 -73 11l73 73q40 -8 94 -14q-2 66 -3 133h-26q-30 -8 -46 -25l17 17l-3 3q3 3 6 5h-58l74 74h2l6 6h27v108l74 74v-61l9 9q12 44 16 68l21 21q-4 -25 -14 -66l24 24q-10 -44 -27 -137q-3 -20 -5 -44q49 -2 41 -2h108 q11 46 30 119l42 42l2 17l21 21l-2 -17l13 13l-9 -34l1 1q0 -104 -1 -162h39l-29 -29l57 -3h4l-1 -1q21 -2 39 -6l-19 -19q-19 4 -39 6l-53 -53q-1 -38 -6 -115q27 4 51 9q51 14 146 36zM392 489q-60 11 -133 17q-1 -35 0 -138q47 -3 111 -5q10 68 22 126z" />
<glyph unicode="$" horiz-adv-x="503" d="M499 542l-45 -45q16 -7 31 -12l-19 -19q-15 4 -31 12l-10 -10q-24 0 -51 23q-33 28 -42 32q1 -82 -5 -122q12 -9 22 -18q2 -3 33 -22q31 -13 39 -24q14 -20 14 -59q0 -28 -11 -39l-47 -47q-7 -9 -15 -18l-17 -17q-21 -21 -47 -27q-3 -19 -7 -35l-11 -11q-1 -11 -1 -22 l-20 -20v21l-44 -44q6 24 9 53l-56 -57l-3 3q14 18 16 44t3 51q-51 0 -93 9q-60 3 -84 3l74 74q16 0 39 -1q-42 26 -49 55l19 19q5 -22 18 -34q9 -9 65 -43l23 -1q2 17 13 136q-47 22 -71 47q-29 28 -35 67q-7 16 -7 36q0 48 20 68l71 71q13 13 53 10v75l74 74v-32l52 53 q-20 -55 -34 -107q-2 -28 -2 -63q54 -2 86 -34q9 -10 26 -30q5 -5 17 -11l-1 -1q19 -11 41 -11zM310 530l-2 1q-3 -59 -6 -114l7 -5q4 41 1 118zM237 543q-31 1 -62 -5q-1 -12 1 -25q13 -32 48 -54q6 38 13 75v9zM351 204q-3 50 -26 75q-4 4 -9.5 7t-11.5 5l-4 -22 q2 -47 2 -74q27 3 49 9z" />
<glyph unicode="%" horiz-adv-x="555" d="M565 697q-39 -39 -111.5 -128.5t-107.5 -124.5l-71 -71q-63 -63 -89 -92q-47 -54 -74 -103l-16 -16q-11 -30 -18 -64l-75 -75q11 54 32 101l-41 -41q97 173 158 246q50 91 82 143l-5 -6q-40 -39 -123 -59q-24 -6 -38 -6q-14 -4 -28 -4q-37 0 -66 29q-14 13 -14 36 q0 48 41 89l71 71q47 47 136 47l-16 -16q2 0 3 -1q7 0 17 -2l-5 -5l2 -2q2 -1 4 -4l11 11q4 -27 5 -49q9 -6 25 -23q18 -27 15 -51q49 72 115 154l71 71l3 -3q-113 -138 -214 -318q18 21 57 63q24 26 74 77l2 2l8 12q4 6 34 57q20 35 43 58l17 17l3 -3q-21 -21 -40 -53 q-16 -28 -32 -55l35 36q52 51 104 74l-78 -78q-30 -13 -63 -41q-11 -12 -18 -19q-94 -136 -154 -196q-64 -64 -111 -156q29 33 73 76l92 93q34 34 100 116.5t101 117.5l71 71zM582 42l-17 -17q-44 -44 -118 -41q-19 -6 -37 -6q-33 0 -68 22q-36 -1 -68 20q-36 22 -36 57 q0 13 6 26q-5 17 1 32q1 57 37 93l18 18q35 35 84 36q10 5 22 8l-6 -6l11 2l-6 -6q44 -6 76 -38q25 -25 32 -48q24 -9 45 -29q12 -13 24 -37q13 -29 13 -52q0 -21 -13 -34zM353 539q-26 -31 -85 -95q-22 -22 -43 -47l-9 -17q-9 -15 -18 -32q99 112 155 191zM481 204 q-6 8 -15 17v-3q5 -7 8 -15l2 2zM234 478q15 20 15 41q0 34 -21 51q-4 -38 -23 -57l-71 -71l-18 -16l4 1q72 17 114 51zM148 524q5 32 -9 48q-6 5 -12 7q-11 1 -20 2q-4 -1 -9 -1q0 -25 13 -38.5t37 -17.5zM152 490l-14 -15l12 4q1 5 2 11zM68 586q-12 -3 -22 -8 q-6 -13 -10 -25q4 6 8 10zM567 35q7 11 7 27q0 51 -34 86q-10 10 -21 16q8 -60 -17 -85l-18 -17l-9 -9q32 0 69 18l-67 -66q54 2 90 30zM390 260l-4 1l-50 -50l-7 -1q-6 -16 -8 -29q10 7 19 14q-6 2 -12 3zM494 175q-5 2 -13 4q1 -19 -11 -32l-68 -68q29 -20 58 -24 q17 9 29 18q12 17 12 51q0 27 -7 51zM406 120q-1 6 -4 12l-13 -14q8 0 17 2zM345 259q-27 -7 -49 -24l-2 -1q-21 -26 -27 -60q6 12 13 19zM393 151q-18 26 -41 39q-17 -8 -33 -20v-3q7 -18 30 -41l2 -3q14 -4 30 -5q13 17 12 33zM303 32q-9 8 -20 19q-6 2 -12 5 q12 -15 32 -24z" />
<glyph unicode="&#x26;" horiz-adv-x="536" d="M574 115l-18 -18q-9 5 -19 10l-40 -40l-4 1l-10 -10q-50 13 -100 43l-2 1l-5 -6q-28 -28 -70 -47t-82 -19q-41 0 -68 23h-5q-11 0 -50 -3.5t-60 -3.5q-42 0 -60 12q-2 2 -7 6.5t-16 45.5q-6 24 -6 39q0 33 32 65l71 71q25 25 86 41l12 3q-20 34 -31 64q-15 40 -15 90 q-10 72 15 97l15 15q11 22 32 44l17 17q8 8 23 11l7 7q17 17 55 26l48 14q35 9 58 9q35 0 53 -19q42 -41 42 -115q0 -48 -19 -95q8 -20 13 -31l-19 -18q-3 8 -8 20q-12 -21 -27 -36l-71 -71q-21 -21 -51 -38v-1q17 -16 62 -72q15 -13 29 -24q49 53 59 90l21 21 q-6 -45 -24 -86q18 15 53 46q-4 -27 -13 -50l33 33l3 -3q-16 -18 -32 -34l-10 -11q-11 -23 -26 -44l44 43q6 6 28 20l-38 -38q-8 -13 -26 -37q54 -25 117 -33l-15 -15q10 -5 19 -10zM187 644q-6 -1 -10 -4q-7 -9 -13 -18zM377 420l-2 -2l-33 -33q13 7 24 14q6 10 11 21z M342 458q2 16 2 33q0 66 -27 94q-23 23 -80 23q-26 0 -52 -5q-5 -25 -5 -52q8 -53 24.5 -94.5t38.5 -79.5l4 5q19 19 48 40q35 26 47 36zM341 450q-18 -17 -49.5 -39.5t-46.5 -36.5q4 -8 9 -15l2 -3q39 13 67 28q13 29 18 66zM468 266q-12 -10 -37 -31q-9 -18 -20 -35l10 -7 l2 2l18 18l-4 -8q4 4 8 7l8 7q10 23 15 47zM431 273q-17 -23 -46 -53l12 -10l17 18q10 22 17 45zM444 203l-15 -15l5 -3q6 9 10 18zM350 118q-6 -5 -13 -9l2 1q6 4 11 8zM317 141q-7 5 -13 10q-11 -6 -35 -21q24 4 48 11zM296 158q-55 46 -106 116q-17 -8 -30 -15 q-1 -6 -1 -13q0 -56 64 -118l1 -1q14 0 27 1q24 18 45 30zM155 273l-4 -1q-11 -11 -31 -34zM142 270l-69 -18q-23 -6 -45 -16q-6 -22 4 -58q2 -16 14 -44q9 -8 28 -12q-2 9 -2 18q0 58 40 98q13 13 30 32zM104 120q-7 12 -12 23q2 -13 7 -23h5z" />
<glyph unicode="'" horiz-adv-x="220" d="M235 761q-12 -50 -32 -89q2 -8 2 -16l-17 -17q-8 -30 -18 -50q1 -41 1 -68l-21 -21q0 24 -1 60l42 -108q-10 -1 -19 -2q-21 1 -22 0l30 -2l-97 52q16 20 28 59q-9 -8 -19 -16l-3 3l18 17l7 6q9 46 29 123l4 4v25q-12 12 -39 29l19 18q21 -14 34 -26l7 6v-12l2 -2 q3 -3 7 -8l43 43q-7 -21 -16 -63q5 16 9 33z" />
<glyph unicode="(" horiz-adv-x="505" d="M532 750l-75 -75q-53 -10 -97 -45q-69 -88 -69 -204q0 -63 9 -83q13 -25 43 -81l-6 -6l8 -9q53 -18 107 -18l-20 -20q-24 0 -55 6q15 -19 46 -54q5 -5 15 -14l-71 -71q-10 8 -20 20l-43 -43q-66 43 -109 130q-41 82 -41 164q0 77 9 120q12 57 48 113q10 18 34 51l71 71 q12 12 35 18l-57 -57q-28 -49 -37 -67q-16 -36 -23 -74q11 19 28.5 47t34.5 56q22 36 41 56l71 71l3 -3q-20 -20 -42 -56q-17 -28 -33.5 -55t-26.5 -44q7 8 15 16q13 13 41 47t42 49l18 18q13 13 44 34l-33 -33q-9 -6 -17 -14q-22 -26 -63 -75l32 33q66 66 143 81z" />
<glyph unicode=")" horiz-adv-x="489" d="M474 474q0 -63 -35 -123q-1 -33 -7 -72q-10 -33 -25 -112l-74 -74q3 28 12 61q10 37 13 57q2 12 3 22l-1 -1q-20 -20 -61 -51l-63 -63q-9 -9 -39 -30l55 55q4 5 10 13l-1 1l6 6q35 36 98 120v4q-9 -12 -21 -24l-71 -71q-9 -9 -27.5 -25t-27.5 -25l-35 -35l-3 3q6 8 15 16 l71 71q10 10 30 28q18 25 36.5 72t24.5 80q-10 42 -33 79l28 28q-5 18 -14 36l-19 39q-58 38 -107 42l20 20q18 -1 37 -8l-8 8q-21 21 -59 36l72 72q31 -12 49 -29l20 20q22 -25 64 -78q0 40 -1 78l20 20q2 -60 2 -127q46 -70 46 -139zM364 259q-13 -16 -39 -49q32 25 37 30 q1 10 2 19z" />
<glyph unicode="*" horiz-adv-x="602" d="M641 666l-26 -36l10 6l-20 -20q-50 -69 -74 -100q-38 -50 -73 -87l1 -1q27 1 50 2q4 3 33 33l18 17q18 18 30 29l3 -3l-17 -17q-15 -14 -43 -42l-17 -17q54 2 98 2l-57 -57q6 0 29 3q17 2 34 2l-71 -71q17 -24 32 -39q6 -5 16 -14l-10 -10q6 -5 13 -9l-71 -72 q-23 14 -60 63q-25 36 -51 72h-6v-4q28 -39 83 -107l-17 -17l-3 3q-18 18 -63 79v-6q-2 -45 -11 -96l-75 -75q3 14 5 29l-35 -34q11 42 12 106q1 53 1 107l-9 -9q-18 -21 -29 -40l-82 -82q28 47 67 86l54 54v6h-21q-22 -24 -47 -61l-86 -86q45 66 81 102q21 21 44 45 q-118 1 -153 1l44 43h-4q-32 1 -100 -8l76 76q11 3 92 6h9q-54 39 -109 58l19 19q64 -22 130 -75h8q-44 33 -139 117l71 71l6 -6l23 23q42 -42 72 -71l4 64l74 74l-1 -21l36 36q-10 -53 -27 -168q-3 -28 -4 -61q10 -9 20 -19l95 95q34 34 60 54zM529 545q-35 -23 -97 -91 l17 -17q25 32 80 108z" />
<glyph unicode="+" horiz-adv-x="591" d="M634 432l-74 -74q-30 0 -67 -5q-48 -7 -68 -9l-11 -1q-13 -65 -13 -93l-70 -70q-3 -34 -9 -55l-22 -22q7 26 10 69l-3 -4v12l-18 -18v177q-25 1 -61 2q-23 -14 -85 -42l23 23q21 7 40 18q-46 -4 -89 -16l22 21q-25 2 -48 2l73 74q16 -1 125 -6v70q0 56 6 92l75 75 q-2 -9 -3 -17l14 14v-93l11 11q7 37 14 78l21 21q-6 -40 -13 -77l40 40q-10 -33 -24 -102q-1 -9 -6 -100q42 9 128 29l-22 -22q-11 -3 -24 -6l-10 -10q15 1 66 8q38 6 72 6z" />
<glyph unicode="," horiz-adv-x="275" d="M295 199l-9 -20q-2 -21 -17 -38q-6 -9 -16 -28q8 -54 -14 -76l-71 -71q-8 -8 -28 -14l37 37q2 5 3 10h-1l-18 -18q-4 -5 -9 -9q-19 -17 -49 -30q-44 -19 -64 -31l18 19q-15 -5 -22 -8l52 52q-7 8 -11 19l19 19q5 -13 10 -20l7 7q16 5 53 17q3 22 2 58q-14 -2 -27 11.5 t-7 45.5q-6 10 -6 19q0 13 11 23l6 7q-6 9 -13 16q-4 4 -14 11l18 19q15 -11 27 -28q9 15 16 22l17 18q15 15 33 15q23 0 40 -19.5t18 -42.5zM266 171q1 23 -14 42t-38 19q-13 0 -24 -7q-6 -9 -13 -20q14 6 30 10l6 7q2 -3 3 -5q11 2 21 2l-14 -14q3 -5 5 -11l11 10 q0 -10 1 -39q3 -8 5 -16zM185 193q-9 -2 -16 -5q2 -4 3 -7zM166 97v2l-4 10q-5 2 -9 5q2 -7 5.5 -11t7.5 -6z" />
<glyph unicode="-" horiz-adv-x="613" d="M657 363l-74 -74q-198 0 -351 4q-75 -14 -132 -36l23 24q21 8 43 14l-89 3l10 11h-3l74 74h15l34 35q32 0 104.5 -9.5t112.5 -9.5q18 0 35 1l-9 -9l184 1l-29 -29h52z" />
<glyph unicode="." horiz-adv-x="300" d="M322 175q-27 -44 -56 -73l-7 -8q-5 -14 -15 -24l-71 -71q-15 -15 -35 -15t-38 16q-30 -1 -49 18q-25 25 -25 62q0 45 33 78l17 18q14 14 40 14q8 0 51 -6l-2 -3q14 0 47 2l-21 -21q29 4 47 -3q19 4 19 -2q0 -2 -5 -8q16 -16 9 -46q17 18 32 43zM189 60q-1 11 -8 18 t-20 10h-1q5 -19 29 -28zM136 109l-6 -1l2 -4zM133 166q-46 7 -64 -5q-24 -31 -24 -67q0 -20 8 -36q-2 26 13 42z" />
<glyph unicode="/" horiz-adv-x="447" d="M479 744l-51 -51q-16 -28 -49 -87l-90 -158q-54 -96 -83 -159q-6 -13 -45 -79q-28 -47 -36 -85l-75 -75q9 43 37 91q41 71 46 80q30 67 90 171q74 129 94 168q-41 -63 -123 -190q-20 -39 -62 -116q-11 -32 -42 -101l-81 -81q14 26 25 51l-62 -62q20 46 51 76q17 18 35 49 q11 27 80 173q24 54 74 155q15 51 50 164l23 23q-15 -47 -39 -126q32 52 74 104l70 71l3 -3q-80 -101 -158 -269q34 54 62 98q11 21 40 63l70 71l3 -3q-6 -7 -40 -63l-1 -1l2 1l70 71q9 8 38 29z" />
<glyph unicode="0" horiz-adv-x="505" d="M541 673l-20 -20q-35 0 -58 -1q4 -16 3 -40q50 -51 50 -144q0 -59 -23 -107q-20 -41 -52 -73l-71 -71q-14 -14 -52 -17q-5 -2 -11 -5l-17 -17q-29 -25 -86 -75l-3 3l17 17q28 22 78 67l2 3q-47 -15 -91 -10l-24 -24q-12 4 -22 7l-1 -1l-1 1q-81 26 -142 88 q-55 55 -55 137t53 135l71 71q34 34 94 62q54 26 105 36q44 9 83 9q68 0 87 -31h86zM210 617q-41 -8 -73 -27q-6 -15 -9 -38l16 16q28 28 66 49zM438 409l-1 -1l-6 -4q-8 -18 -26 -54q-13 -27 -39 -78q10 0 20 1q16 7 31 16l2 4q27 52 19 116zM437 417q-2 11 -4 21 q-16 -26 -41 -52l-71 -71q-13 -13 -43 -38q23 -2 76 -5q10 20 31 64q7 16 15 34t19 29zM392 537q-6 9 -11 16q-14 7 -47 23l12 12l-3 2l-13 -13q-21 4 -42 4q-86 0 -162 -47l-2 -24q-2 -21 -2 -41q0 -107 63 -171q16 -15 35 -25q15 1 44 4q13 13 80 71q45 60 46 157 q0 2 2 32zM120 589q-32 -15 -59 -32q-30 -51 -26 -113q8 15 18 30q6 54 29 77z" />
<glyph unicode="1" horiz-adv-x="347" d="M370 736q-22 -38 -36 -85l26 26q-3 -6 -6 -11l7 7q-3 -14 -8 -32l2 2q-5 -44 -25 -142q-1 -85 -4 -165q13 -68 42 -156l-19 -19q-16 50 -26 87l-4 -40q-2 -23 -2 -38l-22 -21l-1 -5l-77 -77q17 47 19 107q1 56 1 112q3 62 19 140l1 17q1 6 1 102q-8 -5 -17 -11l-5 -5 q-25 -25 -74 -56l30 30q14 9 23 16q-30 -18 -42 -26q-23 -15 -39 -31l71 71l-3 3q20 20 56 42v18l-17 -17q-31 -32 -116 -82l82 82q23 13 45.5 26.5t36.5 28.5l33 33q9 22 20 41z" />
<glyph unicode="2" horiz-adv-x="640" d="M679 284l-20 -20q-208 0 -226 -1q17 -1 31 -1q37 0 117 -7l-28 -28h27l-74 -74h-21l-2 -2q-5 0 -71 6q-93 8 -163 8q-21 0 -68.5 -5t-73.5 -5q-37 0 -67 8l1 2h-1q11 21 27 38h-10q7 9 12 14l71 71q25 25 63 47q16 15 68 63q29 54 29 106q0 27 -9 50q-50 9 -87 -1 l-65 -65l-3 3q13 18 44 55l39 39q-44 -22 -84 -58q-3 -4 -10 -12l-17 -18q-7 -7 -23 -10l21 22q5 1 8 3.5t6 5.5l17 17q36 36 77 60q-38 -13 -161 -76l80 80q51 26 76 38q-18 5 -35 1q-29 -6 -64 -30q-54 -39 -67 -46l81 81l62 44q39 26 70 26q33 0 69 -34q13 4 27 7 q37 12 56 12q8 0 11 -3q13 -12 13 -44q0 -23 -7 -52q12 -8 23 -19q27 -28 27 -79q0 -54 -29 -84l-17 -17q-22 -21 -61.5 -50t-53 -42t-39.5 -36l20 -1q18 2 61 7q65 6 323 6zM431 409q24 30 24 79q0 54 -37 85q-2 -5 -3 -8l-2 -3q-3 -36 -29 -83q-20 -38 -35 -53l-71 -71 q-35 -35 -116 -79q44 0 106 -4l9 9q17 15 51 46q15 15 48 39q38 27 55 43zM319 427q-8 -10 -16 -18l-43 -43q22 13 38 23q12 19 21 38zM259 378l-6 -6q-9 -9 -20 -19q12 10 20 16q3 4 6 9z" />
<glyph unicode="3" horiz-adv-x="663" d="M630 180q-3 -11 -11 -19l-17 -18q-23 -22 -88 -22q-30 -17 -84 -18l-22 -22q-9 -9 -28 -9q-10 0 -27 3q-20 4 -23 4q-13 1 -24 3q-45 -3 -70 6t-56 40q-13 13 -24 26q-25 5 -47.5 11t-56.5 22q-28 13 -53 17l73 73q22 -3 48 -16q32 -16 56 -22q8 -2 15 -4l16 16l25 -25 q7 -2 29 -6q-2 7 -5 13q-11 19 -37 47q-23 24 -32 48l19 19q10 -27 33 -52q27 -29 37 -48q8 -13 11 -32l13 -2q43 -12 133 -31q-7 86 -57 139q-29 5 -64 5q11 11 20 24q-3 1 -6 1l6 8q-35 22 -67 22q3 7 6 10l71 71q7 7 27 7q4 37 4 94q-109 -1 -231 -104l-3 3l71 71 q22 22 45 39q-43 -11 -45 -16l-77 -76q9 25 28 75q-38 -18 -69 -41l34 35q20 15 48 27q2 2 3 4l71 71q25 24 91 24q84 0 127 -24h4q37 -5 30 -38q16 -34 11 -71q10 -13 10 -26q0 -15 -15 -30l-17 -17q-28 -28 -73 -48q10 -8 20 -18q82 -7 118 -42q26 -26 47 -61 q26 -26 25 -53q12 -37 4 -67zM499 510q-4 -7 -9 -12l-55 -55q34 16 57 35q11 16 7 32zM438 504q-6 -31 -16 -55q5 4 11 9q7 21 5 46zM230 599l-6 -1v-2l4 1zM610 213q-1 -2 -3 -4l-67 -67q44 1 66 14q11 20 4 57zM552 183q0 28 -35 59q-2 -20 -12 -35q-3 -17 -9 -30 q35 0 56 6z" />
<glyph unicode="4" horiz-adv-x="477" d="M512 425l-37 -37h23l-20 -20h-15q-2 -52 -7 -167q-1 -7 -3.5 -18.5t-2.5 -18.5l-9 -9v-8l-3 -3v-20l-35 -35l2 -24l-20 -19q-1 11 -2 23l-19 -19q0 39 6 115q6 82 14 143l-19 -18q-12 -13 -42 -13q-9 0 -29.5 1.5t-30.5 1.5q-96 0 -131 -4l-13 -12l1 10q-8 -1 -16 -3 l18 46l1 12q-10 -2 -19 -4l2 6q-13 -4 -45 -10q9 24 21 51q-12 1 -25 2l20 20l15 -1q12 24 36 73q1 54 1 161l20 20v-132q12 34 19 68l75 75q-12 -60 -43 -127q-27 -56 -53 -111v-5q24 40 70 136l3 3l3 6l79 79q-36 -75 -95 -227v0q116 20 191 22q10 107 13 110q1 19 2 39 l19 19q2 23 2 46l20 20q0 -23 -1 -45l34 34q-1 -20 -2 -41l17 18q-6 -88 -27 -203q19 -2 37 -6z" />
<glyph unicode="5" horiz-adv-x="595" d="M635 587l-19 -20q-23 3 -126 35l-22 -22q-72 0 -212 23q-7 -61 -8 -119q9 5 15 4q10 -1 19 -2q68 32 114 32q17 0 28 -5q3 -2 7 -6q9 -8 12 -26q2 -12 4 -22.5t4 -19.5l2 -4q20 -31 40 -63q24 -41 24 -72q0 -34 -27 -61l-71 -71q-23 -22 -50 -30l-19 -19q-23 -23 -58 -23 q-16 0 -37 6q-34 10 -72 31q-54 -14 -107 -20l-133 3q-5 4 -9 9q-6 9 -2 49l74 74q-2 -16 -4 -33q-1 -22 13 -27q8 -3 25 -4l32 32q-57 36 -81 83l18 18q15 -27 35 -47t46 -36l14 14q27 -8 54 -13l25 24q6 -9 11 -14q10 -10 26 -21q29 -4 65 -7q49 15 87 36q5 54 -37 137 q-4 8 -15 24q-10 9 -29 9q-9 0 -28 -5q-22 -5 -31 -5q-19 -11 -55 -29l-21 -21q3 17 3 34l-2 -1q-10 -9 -38 -24q0 57 -22 251l-6 1l73 73h3l2 2v-3q33 -2 71 -7l43 43q-7 -19 -15 -39l-1 -8l17 -2q128 7 231 -4l-24 -24q26 -1 51 -1l-33 -33q40 -14 126 -34zM188 607h-8 l2 -15zM443 224l-6 -12l4 1q2 6 2 11zM387 246l-23 -23q-6 -6 -14 -12q12 -1 34 -3q3 18 3 38z" />
<glyph unicode="6" horiz-adv-x="478" d="M512 203q-7 -6 -16.5 -20t-15.5 -20l-18 -18q-18 -17 -53 -17q-33 0 -73 11q-19 -11 -44 -11q-75 0 -136 62q-52 52 -52 126q0 85 36 141q23 74 60 112l77 77q89 89 152 108l-62 -62q43 35 110 64l-78 -78q-16 -7 -31 -15q20 7 43 8q29 22 89 71l3 -3l-17 -17 q-21 -18 -60 -47h2l-22 -22q-6 -2 -11 -3q-11 -8 -20 -16l-37 -37h-6q-57 -54 -79 -101q-4 -19 -6 -35q7 20 12 37l23 23q-7 -23 -21 -64q36 20 77 16q24 14 54 14q49 0 79 -31q21 -21 21 -68q0 -12 -1 -23q10 -49 -12 -71l-16 -16q-12 -29 -39 -56l-66 -65q36 -9 65 -9 t43 9l2 1q7 11 24 31l17 17zM350 677q-41 -13 -91 -57q-22 -30 -38 -73l30 30q10 11 20 21l71 71zM325 596q-13 -1 -25 -6q-10 -16 -26 -48q13 16 31 34zM225 540l-12 -16l-2 -8q6 13 14 24zM303 392q-9 4 -18 6q-6 -16 -8 -33zM396 279q-12 63 -66 100q-18 -7 -39 -19v-6 l-15 -15q0 -4 1 -8l-9 -8q9 -15 21 -27q22 -22 67 -22q20 0 40 5zM262 400h-16q0 -8 1 -15l5 5zM389 209q-6 -4 -13 -6q6 0 11 2z" />
<glyph unicode="7" horiz-adv-x="546" d="M585 646l-66 -66q-10 -28 -33 -76q-2 -19 -8 -61q-2 -13 -14 -41q36 1 72 1l-74 -74h-15q-7 -53 -7 -198l-20 -20q0 148 6 200q-10 -16 -28 -49q-9 -17 -26 -50v-8l-8 -8q-20 -45 -24 -95l-74 -74q4 61 32 117q0 114 28 183q-21 -44 -29 -88l-75 -75q14 78 68 161 q-38 -2 -73 -4l17 17h-2l74 74q20 0 46 -2l38 49q22 31 73 101q-51 0 -117 3h-3q-56 -5 -102 -22q-14 -5 -35.5 -21t-40.5 -24l24 24q17 12 51 34q-47 -3 -89 -3l18 18h-41l74 74q60 0 136 -3q35 4 68 6h88q51 0 86 15l-15 -15h20zM464 475q-16 -25 -20 -69h7q8 20 13 69z " />
<glyph unicode="8" horiz-adv-x="558" d="M549 678q8 -23 8 -48q0 -73 -59 -133l-17 -17q-20 -20 -45 -39q-4 -10 -8 -14l-21 -21q19 -11 32 -25q45 -44 45 -114q0 -27 -11 -45q7 -28 7 -53q0 -38 -17 -55l-17 -17q-27 -27 -83 -27q-24 0 -47 5q-23 -10 -52 -10q-41 0 -78 20q-45 7 -76 39q-50 49 -50 115 q0 36 12 55q6 61 27 82l39 39q-37 41 -37 114q0 56 27 83l39 39q-66 2 -88 -7l24 24q16 7 40 6q22 -1 45 -2l11 11q4 4 10 7q27 24 61 24q14 0 33 -4l5 5q41 9 68 4l4 4q3 -3 5 -6q25 -6 45 -27q44 -43 44 -125q0 -56 -26 -82l-5 -5q-1 -14 -4 -27q28 20 46 39q53 54 53 124 q0 24 -8 45zM355 583q-3 27 -23 46l-8 -8h-11l-21 -21q-25 12 -48 12q-20 0 -39 -9q-6 -16 -6 -32q0 -24 16 -40q39 -39 110 -63q11 19 19 37q-7 14 -23 44zM363 456q-3 10 -7 21l-13 -13l-1 -1l7 -2h3l-1 -1l4 -1l5 1l-2 -2zM207 627q-14 0 -26 -1q-1 -12 0 -25l6 6l8 8z M454 201l-61 -62q-5 -5 -14 -10l-36 -36q17 -2 34 -2q46 0 73 17q18 32 4 93zM371 218q-5 65 -32 103q-13 7 -48 22q-24 1 -54 11h-12q-17 -12 -50 -36q-7 -12 -10 -26q6 -12 16 -67q16 -19 40 -43q22 -4 115 1zM156 382l-8 -1q-1 -4 -1 -9zM195 353q-10 -1 -18 -1l5 5 q-21 -7 -38 -14q-1 -22 1 -40z" />
<glyph unicode="9" horiz-adv-x="482" d="M492 587l-20 -20q10 -49 -6 -80v-4q-9 -190 -9 -236l-20 -20q0 80 8 229l-5 -5l-1 -1q-3 -58 -4 -127q-2 -74 -17 -179l-75 -75q6 38 10 76l-29 -29q18 49 26 134q11 120 14 138v4q-13 -11 -66 -28q-74 -23 -141 -46l-28 -14q-16 -8 -30 -6q-2 1 -6 5q-10 9 -20 37 q-8 23 -9 33q0 5 -1 11q-32 17 -32 59q0 30 12 55q14 55 70 111l71 71q38 38 88 38q47 0 117 -38q19 -4 41 -11l14 14v-26l11 10l1 -4q8 -33 11 -64l9 9l-6 -18q11 -2 22 -3zM446 475q-3 -4 -7 -8v-7q4 6 7 12v3zM369 524v19q-17 -28 -28 -44l28 8v17zM362 584q-13 7 -42 23 l-16 4l-15 -16q-77 -8 -123 -20q-25 -37 -31 -79q0 -15 1 -31q5 -7 12 -14q10 -2 22 -2q41 0 131 36q18 29 29.5 46t31.5 53zM175 641q-14 -4 -28 -11q-13 -19 -21 -39zM367 463q-22 -17 -85 -35l-26 -26q54 18 110 36zM154 571q-5 -2 -10 -3q-2 -8 -4 -17q7 11 14 20z M261 422q-16 -5 -45 -18q18 -3 36 7q5 5 9 11z" />
<glyph unicode=":" horiz-adv-x="437" d="M236 436q14 7 36 11q-18 4 -34 1q-2 -6 -2 -12zM379 495q56 0 77 -20q12 -12 12 -33q0 -24 -19 -43l-17 -17q-21 -21 -95 -45l-36 -36q-14 -14 -37 -14q-31 0 -64 24q-16 4 -24 12.5t-9 22.5q-4 10 -4 20q0 28 31 59l71 71q30 30 64 26l5 5q27 -3 45 -32zM360 360 q55 17 77 34q14 21 9 49q-2 8 -7 14q-16 13 -50 16q6 -18 6 -37q0 -41 -23 -64zM296 434q-21 -4 -59 -12q6 -22 34 -41q25 -17 50 -20q3 48 -22 76zM312 92q60 -3 94 18q9 15 9 33q0 26 -19 46q-7 7 -20 14l18 18q42 -20 42 -64q0 -24 -19 -43l-17 -17q-26 -25 -91 -25 q-23 0 -41 4q-49 -13 -66 5q-9 8 -9 22q0 23 16 39l11 11v3l71 71l4 -1q23 21 61 28l-33 -33q37 -13 72 -51l-71 -71q-4 -3 -12 -7z" />
<glyph unicode=";" horiz-adv-x="395" d="M284 468q-6 24 -21 45q-15 -2 -27 -6q-3 -16 8.5 -27t39.5 -12zM331 587l20 20q37 -2 37 -67q0 -43 -20 -63l-17 -17q-26 -26 -69 -46l-3 -3q-23 -23 -77 -15q-21 3 -33 12q-26 17 -26 42q0 27 33 65q11 21 18 27l70 71q9 8 18 8q23 0 49 -34zM335 587h-3v0h3zM308 440 q25 13 45 30q14 21 14 56q0 44 -18 56l-8 -8q20 -33 20 -61q0 -20 -11 -31zM220 547q-10 -4 -18 -11q-39 -42 -39 -72q0 -8 3 -15q6 14 22 30l55 55q-13 11 -23 13zM332 377q-4 -50 -10 -94q3 -19 -8 -44q-27 -162 -105 -240l-17 -17q-23 -23 -121 -23l20 20q82 0 110 19 q58 67 87 196l-6 -8q-8 -36 -27 -56l-71 -71q-14 -14 -45 -24q-8 -2 -24 -8l-6 -1l74 75l15 5q6 6 10 12q7 31 7 73q-18 -4 -33.5 8.5t-15.5 31.5t12 31l71 71q6 6 15 6l21 21l3 -3q11 -11 20 -30q2 14 3 29z" />
<glyph unicode="&#x3c;" d="M290 508q-19 -7 -31 -12q-23 -23 -44 -42q21 7 39 23t36 31zM463 535q-28 -4 -50 -23q-17 -23 -54 -67l-17 -17q-20 -20 -61 -53l76 -58q43 -34 71 -65q20 -11 30 -18l-7 -8l16 -22l-71 -71l-14 18l-21 -21q-42 42 -135 106t-134 105q-10 11 -19 20l57 57q3 3 5 6l71 71 l59 41q21 14 54 29l56 56q14 14 41 26l-70 -70q61 26 67 28q39 18 67 36l-9 -9q33 19 65 31l-77 -77q-49 -19 -113 -63q-53 -37 -106 -75q-11 -7 -23 -17q25 -25 58 -51q25 19 71 58q17 24 55 69l18 18q25 26 65 31z" />
<glyph unicode="=" horiz-adv-x="595" d="M155 446q40 0 95 11q-74 -1 -154 -1l34 33q-27 2 -48 2l74 74q21 0 59.5 -3t58.5 -3q4 0 54 4q29 2 51.5 -4t51.5 -8q-49 41 -93 50l-1 -2q-6 0 -17 2t-21 3l20 20q46 0 84 -22q22 -12 66 -51q46 2 79 14l-33 -32h67l-74 -74h-25l-8 -8q-30 -6 -81 -3q-59 2 -78 1 q-26 -2 -89 -14q-50 -9 -92 -9zM254 301q90 22 169 35q48 9 95 18q61 11 104 11l-20 -20q-40 0 -100 -11q-46 -9 -94 -18t-100 -20q73 -6 202 -6q6 2 11 3l-3 -3q60 1 109 11l-75 -75q-45 -9 -109 -9q-29 -8 -94 -11q-75 -3 -94 -6q-12 -2 -65 -13q-29 -6 -77 -8l51 51 q-36 4 -81 11l73 73q54 -8 98 -13z" />
<glyph unicode="&#x3e;" horiz-adv-x="549" d="M436 298l5 2q17 15 35 32l-4 3q-8 -10 -16 -18zM416 290l-3 -2l2 1zM306 256q86 31 128 60l15 20q-49 -25 -143 -80zM261 241l6 6l21 21q-13 -8 -26 -15q-35 -18 -99 -60q35 25 98 48zM401 666q22 -34 65 -111q5 -10 29 -69q53 -45 87 -45l-37 -36q22 -17 43 -33l-71 -71 q-28 -5 -55 -9q-27 -7 -46 -26q-91 -91 -213 -150l-3 3l71 71q54 24 119 74q-18 -5 -53 -15q-22 -8 -67 -24q-20 -10 -37 -24h-1q-24 -20 -49 -45l47 47v1q5 5 10 11q-70 -25 -110 -55q9 17 18 26l18 18q18 18 110 69q51 31 154 93q-120 87 -230 156l18 19q-15 8 -27 15 l71 72q8 -5 18 -11l28 29q41 -16 76 -46q17 -14 63 -62l-1 3q-20 33 -63 107z" />
<glyph unicode="?" horiz-adv-x="482" d="M348 83q-13 16 -47 26q-3 -11 3 -19q13 -10 44 -7zM395 172q-7 11 -17 21q-15 16 -28 16q-6 0 -40 -11l23 23q26 8 31 8q23 0 43 -31.5t19 -55.5q9 -21 -11 -41l-2 -2q-6 -10 -16 -20l-17 -17q-13 -13 -30 -26l-6 -6q-6 -6 -17 -10q-20 -11 -31 -10h-6q-41 -6 -56 10 q-7 6 -7 14q0 16 19 34l9 9q2 20 9 34l2 3q-26 1 -41 -8l-23 -22q9 16 12 19l71 71q14 14 45 14q34 0 65 -16zM279 113q-2 -7 -3 -15l13 14q-5 0 -10 1zM338 457q-38 -78 -32 -155q1 -5 3 -9q14 42 55 103q50 73 65 105q12 26 13 61q-9 -11 -18 -20l-71 -71q-7 -7 -15 -14z M337 478q16 26 37 51l17 17l3 -3q-18 -22 -33 -45q2 2 21 15q29 42 29 75q0 22 -14 37h-1q-56 -65 -76 -165zM315 438l2 3l-1 -1zM304 613q39 21 73 28q-39 22 -97 10q-14 -20 -21 -37l-78 -78q23 53 78 109q-16 -5 -30 -12q-4 -9 -10 -22l-78 -78q22 51 47 76l71 71 q28 28 76 41q20 17 64 17q45 0 53 -29q31 -21 31 -54q0 -29 -21 -64q1 -46 -13 -76q-10 -22 -75 -120q-45 -69 -53 -125q4 -6 8 -11l-9 -9q-1 -6 -1 -12l-19 -19q-1 4 -3 9l-39 -40q-36 46 -36 108q0 47 22 83q22 123 97 198l6 6q25 25 31 40q-45 -7 -101 -37z" />
<glyph unicode="@" horiz-adv-x="847" d="M907 406q0 -143 -64 -207l-71 -71q-14 -14 -47 -27t-58 -13t-34.5 15.5t-11.5 44.5q-3 42 -5 51t-3 18l-20 -20q-32 -25 -86 -25q-50 0 -103 21t-83 52q-27 27 -27 84q0 69 31 101l71 71q44 44 104 44q76 0 145 -62q3 15 7 32l22 22q-8 -36 -13 -65l35 35q0 -30 -6 -91 t-6 -90q0 -33 6 -58q0 -2 4 -52q3 -34 14 -48q8 -7 26 -7q29 0 68 17q31 66 31 160q0 39 -6 75q-7 18 -18 58q-10 81 -109 179q-22 22 -65 22q-26 0 -70 -9q-57 -12 -65 -13q-47 -6 -102 -36q-28 -16 -98 -64l-68 -78q-27 -33 -27 -79q0 -19 4 -45q7 -48 37 -111 q32 -66 65 -98q59 -56 238 -56q25 0 81 7l-41 -42q27 4 47 12l-24 -24q-20 -8 -45 -10l-11 -11q-50 -6 -75 -6q-143 0 -216 41q-39 10 -75 25l18 19l16 -6q-75 98 -89 192q-4 32 -4 63q0 88 32.5 159t86.5 98l100 50q55 34 111.5 68t125.5 34q111 0 163 -52q33 -29 66 -59 q41 -36 56 -66q-12 77 -53 119q-18 18 -48 29l19 19q54 -20 82 -83q24 -54 24 -118q0 -18 -2 -35l-1 -1q14 -33 14 -99zM622 410l-23 -23q-9 10 -14 15q-20 20 -44 35q-83 5 -104 -8q-29 -37 -29 -85q0 -28 11 -51q71 -48 155 -48q20 0 37 4q-1 30 4 80q6 65 7 81zM495 460 q-32 12 -62 12q-29 0 -55 -11q-11 -31 -11 -67q0 -50 22 -76q-6 64 38 108l17 17q16 15 51 17z" />
<glyph unicode="A" horiz-adv-x="650" d="M641 226l-73 -73q-6 31 -28 61v-8q4 -7 7 -14l-7 -7q0 -17 4.5 -31t12.5 -53l-73 -73q-2 16 -7.5 31.5t-7.5 27.5q0 28 -4 84l-15 -15q0 36 -16 85q-14 37 -27 75q-25 2 -53 3l-16 -16l-2 3v1v0q-4 6 -7 13q-38 1 -85 1q-30 -93 -60 -166l-78 -78q21 50 39 101l-74 -74 q7 49 20 85q7 34 23 67q3 17 10 50q-20 -3 -39 -7l41 41v5l17 17h5l12 12l17 3q20 32 56 98q4 8 59 128q-15 34 -30 71l19 18l-2 3l72 72q11 -22 27 -50l17 17l-12 -25l7 -12l20 19q-7 -13 -15 -27l4 -7l35 35q8 -48 20 -161q11 -30 29 -91q21 -33 55 -81q27 -2 51 -6 l-27 -27l21 -29q17 -23 35 -47t23 -49zM390 407q-2 11 -3 24q-27 41 -48 80q2 -55 8 -109q25 3 43 5zM312 397l-1 8q-5 48 -5 106q-18 -49 -39 -116h26zM190 316h-2q-31 -65 -42 -134q13 37 44 134z" />
<glyph unicode="B" horiz-adv-x="565" d="M605 628q-3 -26 -31 -60q-3 -40 -68 -105l-27 -27l8 -4q37 -19 38 -37q1 -21 -6 -45q9 -21 9 -44q0 -71 -64 -136l-71 -71q-24 -23 -69 -23q-29 0 -85 11q-16 -2 -34 -3l-25 -26v3l-5 -5v26h-10l-31 -32v30q-47 -3 -63 -3q-60 0 -102 22l18 18q29 15 100 14l2 16 q-81 18 -97 18l74 74q14 0 33 -4q2 39 1 208q-8 52 -15 85q-3 19 -8 38l-20 -5l18 18q-3 14 -8 36l-3 1q-26 -7 -54 -15l24 23l-9 3q-52 14 -104 41t-102 54l18 18q24 3 54 3q55 0 195 -17l37 37q3 -15 6 -29l3 3v-8l41 41v-58q18 -3 34 -7q36 5 67 5q73 0 117 -28l27 -5 q37 -8 107 -26q12 -3 42 -16q19 -7 38 -7zM553 546v-1l-100 -99q11 -4 21 -8q9 8 17 16q54 53 62 92zM531 554h-3q-10 -22 -41 -53l-50 -50q5 -2 11 -3l51 51q27 27 32 55zM417 564l-1 -4q6 -52 -14 -102q14 -2 26 -5l10 8q22 28 22 50q0 27 -43 53zM397 531 q-12 -17 -25 -30l-23 -23q-5 -7 -11 -15q26 0 50 -3q10 35 9 71zM349 564q-7 -20 -24 -72l-6 -20q9 3 15 6q9 15 11 20q6 20 4 66zM345 591q-55 12 -128 3q21 -32 42 -63q24 -39 33 -70q4 2 9 4l4 13q12 37 40 113zM272 442q-11 39 -73 134q11 -60 31 -176zM323 386 q-14 2 -30 3l-7 -25l7 7q14 6 30 15zM66 706q-137 17 -195 17q70 -38 79 -42q43 -21 89 -34l14 -3l6 6q-5 21 -9 40zM316 353l-1 2q-12 -2 -33 -4l-8 -26q9 0 16 2zM277 389q-22 1 -45 -1q7 -43 12 -82l13 14zM451 206l-43 -43q-8 -8 -23 -14q26 -1 45 5q15 27 21 52z M407 233q-11 25 -32 52q-33 19 -107 19q-10 -36 -18 -62v-6q62 -10 98 -10q34 0 59 7zM252 304h-8l2 -20zM133 132v3l-3 -3h3zM134 100v14l-25 -3l-13 -13q13 0 38 2zM86 110q-51 1 -75 -2q31 -11 74 -10q0 6 1 12z" />
<glyph unicode="C" horiz-adv-x="691" d="M741 496q-2 -7 -5 -10l-18 -17q-4 -5 -11 -5q-20 0 -61 34q-52 13 -102 22l-16 -16q48 -15 77 -15l-20 -20q-28 0 -122 31q-38 14 -110 40q-16 1 -27 2q-65 1 -116 -13q-33 -67 -33 -163q0 -18 1 -37q16 -77 54 -114q15 -15 34 -19q34 1 78 16q40 22 80 62l-49 -49 q32 14 104 52l-80 -80q-17 -9 -53 -28l9 1q69 4 136 18l1 1q21 13 63 46q16 16 31 19q-7 -15 -16 -25l-18 -17q-5 -6 -14 -12q12 3 23 6l-76 -76q-8 -2 -16 -5q-16 -18 -32 -34l-17 -17q-39 -38 -83 -38q-46 0 -99 42l-6 1q-24 0 -74 1q-24 0 -48 8.5t-47 17.5q-9 2 -18 5.5 t-11 11.5q-50 142 -50 203q0 62 30 108q19 29 38 55q6 13 16 25q4 68 29 93l17 17q18 18 71 14l76 76q8 8 20 8q6 0 19.5 -3.5t18.5 -4.5q25 -3 70 -11q24 5 46 5q36 0 48 -15.5t36 -56.5q42 -32 85 -66q15 -14 57 -52q36 -9 80 -22zM610 530l-20 20q-18 14 -73 56l-13 -12 q13 -5 25 -11l-33 -33q59 -7 114 -20zM522 506q-23 12 -47 24l-6 -7l8 -3q13 -4 45 -14zM352 687q-13 2 -47 7q-6 1 -19.5 4.5t-19.5 3.5q-12 0 -19 -8l-57 -56q14 -1 30 -4q50 27 107 34q14 11 25 19zM250 593q-16 -2 -32 -6h17q7 3 15 6zM561 231q-10 -5 -21 -16.5 t-25 -20.5l9 2l2 2q4 4 31 25zM190 616q-10 1 -19 2q-34 -35 -60 -66q15 11 26 17l19 19q15 15 34 28zM198 566q-30 -1 -48 -6q-9 -5 -18 -11q-3 -7 -7 -15l1 1l17 17q12 11 51 11zM165 618q-38 2 -56 -8q-16 -27 -20 -74q31 36 76 82zM174 516q-4 -1 -6 -3.5t-3 -6.5 q5 5 9 10zM173 542q-26 0 -38 -6q-14 -21 -22 -54l1 2zM109 541q-7 -5 -17 -13l-4 -4v-4zM412 112q-8 -1 -16 -3l-3 -2l9 1q5 1 9 3zM460 123q-19 -5 -39 -9l-3 -2l-16 -17q-8 -7 -55 -11q-25 -10 -53 -13q30 -16 59 -16q40 0 75 33q15 15 32 35zM163 101q-45 11 -79 46 q-46 45 -48 174q-1 95 12 134v2q-1 6 0 12q-44 -64 -44 -128q0 -32 18 -107q19 -79 34 -100q2 -1 21 -8q27 -11 86 -25z" />
<glyph unicode="D" horiz-adv-x="788" d="M791 519q21 -21 21 -46q0 -34 -43 -77l-17 -17q-38 -38 -107 -63q3 -63 -32 -98l-17 -17q-30 -30 -89 -46t-122 -19q12 1 -129 1q-105 0 -110 1l-27 -28q0 17 1 34q-13 5 -27 13l18 18l10 5l1 6h-15q8 11 15 24v10q1 52 -1 144q-44 114 -44 177l20 20q0 -53 22 -119 q-2 66 -2 112q-10 65 -13 116h-17l17 16q-1 21 -1 42l19 18q6 -15 11 -28l65 65l5 -32l16 16q-1 -12 -3 -24q245 -8 341 -105q7 -6 8 -15q24 -8 77 -28q71 -24 80 -28q39 -18 69 -48zM773 501q-29 29 -67 46q-5 2 -78 28q-23 8 -65 24l-1 -5q-3 -13 -5 -20q116 -44 116 -123 q0 -50 -30 -117l1 -3q76 26 114 61q34 37 34 67q0 23 -19 42zM382 631q-9 4 -19 7l-32 2q28 -3 51 -9zM249 647q-9 1 -17 2v-1zM558 301q-1 40 -18 78q-6 -53 -42 -94q18 3 53 13zM517 418l-8 10q-25 -84 -61 -120l-42 -42l34 7q14 3 48 10q32 44 32 99q0 18 -3 36zM558 285 q-22 -8 -65 -23q38 0 64 6v7q1 5 1 10zM134 644q-4 11 -8 23q1 -14 3 -28zM472 470l-1 1q-41 42 -91 65q-50 12 -142 22q3 -57 5 -118q9 -59 9 -89t-7 -46v-29l-19 -19q-6 -15 -11 -31q5 1 11 2q28 17 114 30q14 3 36 5q14 7 27 16q12 20 48 131q8 21 21 60zM624 302l-1 -1 q-6 -17 -18 -30l-71 -71q-18 -18 -46.5 -21t-56.5 -5.5t-158 -6.5q-13 -1 -29 -1q-14 -4 -39 -10q75 1 65 1q142 0 130 0q63 2 121 18q51 14 80 38q26 33 23 89zM177 157l-5 -1h4z" />
<glyph unicode="E" horiz-adv-x="753" d="M807 155l-71 -71q-13 13 -34 13q-42 0 -38 -1q-49 7 -137 18q-72 -15 -293 -10q-24 -6 -51 -15v-24l-20 -20v4q0 16 -1 33q-17 -6 -99 -42q-10 35 -11 85q1 -56 1 81v130q-17 -8 -32 -13l30 30h-35l20 20h17v53q-14 2 -32 5q4 16 26 39q-7 37 -15 108h-1l1 1v12 q-12 -1 -24 -1l20 20l4 2q2 27 10 56l20 20l7 -66l7 1l31 31q24 6 52 15l11 11v-8l10 4l1 6l20 20q0 -10 -1 -20q58 18 106 27q90 17 314 17l-59 -59l88 10l-21 -21q-64 -16 -142 -17l-22 -22l109 -1l-20 -20q-47 0 -116 -6l-1 -1q-84 -12 -256 -40l-16 -112h19 q110 50 186 50l-36 -36q47 7 88 7l-29 -29q35 -1 68 -1l-13 -13l80 -1l-20 -20q-48 0 -109 -13q-75 -16 -108 -19q-55 -5 -127 -8q0 -35 1 -66t10 -96q63 29 217 60q75 16 150 33q78 14 156 14l-20 -20q-42 -14 -105 -39q32 2 55 6l-57 -57q17 -1 162 -19h39q21 -1 36 -15z M287 643q-17 -2 -33 -5q13 1 22 1zM631 277q-57 -3 -123 -17t-131 -28l-9 -2q51 8 164 32q0 -10 -6 -16l-9 -9h9zM509 239l-16 -3h9q4 2 7 3zM50 449l-2 12l-5 -10zM178 156v2v0v-2z" />
<glyph unicode="F" horiz-adv-x="567" d="M607 399l-20 -20q-87 0 -121 1l-24 -25q-45 0 -223 4v-88q0 -38 -6 -142l-74 -74l2 29q-13 26 -10 92l-46 -46q0 35 1 115q2 76 1 116h-14l14 14q0 30 -1 56h-21l1 1l-142 -1l20 20q60 18 140 25q-4 28 -9 88q-28 -12 -56 -20l51 51l-7 1l5 6q-21 -4 -39 -9l91 90v22 q0 3 -2 15t-1 18q0 10 6 16l20 20q0 -28 1 -59l3 3q-1 -13 -2 -27v0q7 31 7 63l20 20v-73q29 10 51 15l2 2v-2l6 2q58 13 144 16q24 1 156 1l-66 -66q61 -3 90 -19l2 -1q2 -2 1 -2l-17 -18q-1 0 -5 -2l-4 -4q-3 4 -2 5l5 5q-24 11 -103 17q-9 0 -17 1l-15 -15 q-23 -9 -49 -13l-19 -19q-42 -7 -108 -6l-1 -26q58 -30 69 -53q5 -11 -3 -19l-8 -8q23 1 88 1l-34 -33h25q46 6 69 6l-5 -5h14l-31 -31q63 -1 109 -1l-18 -18q82 -12 109 -12zM274 495q1 19 -51 49l-1 -57q19 2 52 8zM85 452v4q-29 -2 -51 -4h51z" />
<glyph unicode="G" horiz-adv-x="628" d="M611 420q0 -62 -22 -138q-30 -109 -33 -124l-19 -19q1 -67 1 -103l-19 -19q-7 29 -22 83l-16 -17v3l-28 -29q2 12 4 25l-8 -8q-5 25 -7 57q-4 -1 -25 2q-27 -19 -64 -33q-44 -16 -69 -13q-37 5 -78 46l-14 14q-4 3 -9 6q-52 12 -76 37q-75 75 -66 182q-50 92 -50 162 q0 48 28 76l17 17q35 34 102 43q57 4 115 9q23 6 39 9q20 9 42.5 18.5t40.5 9.5q38 0 104 -38q49 -29 98 -59l-17 -17q8 -3 16 -5l-19 -19q-34 3 -74 22q5 -8 9 -16q8 -8 27 -19l-18 -18l-5 3l-5 -5q11 -14 18 -30l-6 -6l4 -2l-18 -18q-14 9 -30 24l-26 -26q-5 11 -11 22 l-10 -10q-12 19 -30 36q-44 43 -75 51q-11 3 -23 3q-31 0 -68 -17q-24 -139 -24 -253q14 -27 34 -46.5t60 -55.5q20 -7 35 -18q19 -4 48 -6q15 -2 45 -5q18 30 33 79l1 9q-13 2 -89 19q-50 11 -95 15l73 73l11 -1l3 3q10 2 95 31q3 14 9 24l19 19l1 -5q4 -11 6 -28 q33 8 63 8q0 -13 -1 -26l8 1v-20q17 3 34 9l5 5q3 3 21 17zM468 655q-6 3 -11 7q2 -2 4 -5zM414 683q-9 3 -17 6l5 -3q6 -1 12 -3zM524 414q-20 -1 -41 -4v-13l40 8q1 4 1 9zM444 400l-6 -2h6v2zM208 608q-21 -5 -39 -14q-9 -18 -16 -38l20 20q6 5 31 28zM202 565l-8 -4 q-30 -51 -31 -118q31 57 39 122zM206 655q-82 -5 -93 -7q-51 -8 -81 -32q-20 -26 -20 -68q0 -58 36 -135q9 31 26 57q21 74 60 113zM176 550q-7 -5 -13 -10q-24 -42 -24 -92q0 -18 4 -37q-4 80 33 139zM441 152v3l-3 -3h3zM180 452q-8 -14 -17 -27q2 -30 10 -59q2 42 7 86z " />
<glyph unicode="H" horiz-adv-x="592" d="M635 756q-9 -20 -11 -43q-4 -34 -4 -36q-15 -62 -43 -202l-4 -20q2 -39 4 -73q8 0 18 2l-11 -10q11 -2 21 -3l-20 -20q-3 -3 -7 -4v-10q10 -1 21 -1v0l-20 -20q2 -77 2 -211l-20 -20l-2 42l-15 -15v2l-63 -63q-2 11 -3 23l-27 -27q0 152 2 259q-56 0 -45 0h-138 q-29 -5 -51 -9q6 -67 6 -185l-74 -74q0 54 -1 89l-43 -43q2 16 3 35l-11 -12q0 26 5 56q6 39 7 51l1 4q-1 27 -1 39v12l-8 -2l8 8v31h-47l9 9q-50 1 -94 1l20 20q14 0 39 7l10 10h42l21 4v8q-9 59 -18 134q-10 37 -34 122l73 72l2 -9l51 51v-34l40 40q-6 -76 -12 -150 q10 42 14 80l21 21q-5 -45 -19 -102q-15 -63 -20 -96t-9 -69l2 -11q5 1 66 7q118 10 188 14v12q-5 21 -13 65q-5 20 -9 41l6 6q-1 37 -4 125l61 61l-2 27q-3 31 -3 34l20 20v-6q1 -11 3 -34q6 -21 14 -70l3 -25l7 7q-1 -13 -3 -37q2 -22 4 -42l1 8l8 8q1 14 8 43zM510 354v0 v0v0zM556 185q-3 47 -8 102q-1 -27 -1 -55q5 -24 9 -47z" />
<glyph unicode="I" horiz-adv-x="413" d="M404 701q-8 -24 -15 -43q5 -52 5 -143q1 -76 -8 -194t-9 -190l-17 -17l-3 3q7 165 -6 301v-88q0 -130 -6 -179l-20 -20q0 27 -2 56l-40 -40v-12l-74 -74q0 235 12 309q-2 49 2 136q3 102 3 135l8 8q-2 13 -4 27l20 19q1 -13 4 -27l46 47v-15l4 4q2 -10 5 -21q7 6 19 -1 l2 1q0 35 1 71q0 11 2.5 29.5t2.5 31.5l20 20q0 -32 13 -72q14 -45 16 -67l2 -12zM367 664l-2 18q-3 22 -14 57q-1 -50 -1 -92zM374 501q-1 65 -2 99l-6 -21q-3 -11 -8 -24q5 -44 14 -132q2 39 2 78zM316 275q-1 27 -1 74q-2 -25 -3 -52z" />
<glyph unicode="J" horiz-adv-x="543" d="M524 720q5 -46 5 -98q0 -113 -20 -200q-8 -34 -20 -67v-65q0 -9 2 -34t2 -39q0 -53 -15 -68l-18 -18q-7 -7 -18 -7q-13 0 -35 9l-48 -49q-16 -16 -31 -16q-17 0 -39 22l-17 17q-5 1 -10 3q-14 -4 -27 -4q-29 0 -55 18q-10 -3 -21 -3q-38 0 -85 28q-36 21 -62 47 q-8 8 -23 73l36 36q-23 34 -43 60q-10 7 -26 26q-4 5 -9 17q-11 12 -20 23l17 17q14 -1 27 -5q8 4 17 3l2 2q42 -13 95 -74q16 -13 37 -30l13 13q10 -7 20 -17l2 -2l7 8q49 -43 116 -107q20 -7 36 -11q5 3 9 6q7 24 6 60q-2 31 -4 61q-1 37 0 78q-11 63 -29 211l15 15 q-1 62 18 98l20 20q0 -34 6 -74l8 8q-1 11 -3 23l19 19q7 -38 8 -77l26 27q-6 -68 -14 -202l3 -17q1 -6 2 -11q13 56 36 182l32 31l1 8l20 19v-5l22 22q-2 -11 -3 -21zM506 670q-4 -22 -10 -50q-7 -91 -7 -108v-102q19 87 19 198q0 32 -2 62zM337 683q-2 10 -3 20v-23z M469 340v135q-6 -44 -11 -160q6 12 11 25zM469 276v33q-6 -11 -12 -20q-1 -15 -1 -27q-5 -86 -26 -107l-4 -3q25 -9 38 -6q7 19 8 42q1 16 -1 44q-2 32 -2 44zM349 224v0v-1v1zM363 207h-2q-6 -13 -12 -23l7 -3l4 4q2 10 3 22zM342 204q-5 -1 -10 -1l-7 -7l11 -5q3 6 6 13z M322 204q-3 0 -6 1l2 -3zM91 313q-17 21 -27 34q-23 20 -47 40.5t-45 29.5q23 -27 73 -92l18 18q0 -9 10 -48z" />
<glyph unicode="K" horiz-adv-x="527" d="M564 725l-76 -76q-150 -48 -230 -121q35 16 123 45q82 26 137 54l-26 -26q-48 -24 -130 -51q-86 -28 -130 -48q49 -77 137 -165q9 -9 84 -60q54 -37 66 -73l-72 -72q-6 16 -13 27l-26 -26q-14 16 -25 28q-14 13 -31 28q11 -30 33 -87l-18 -18q-18 47 -53 137 q-45 35 -131 103q-2 -34 -2 -66l-3 -3q1 -35 1 -77l-15 -15q-1 -27 -5 -51l-75 -75q6 32 6 68q0 24 -4 71.5t-4 72.5v152q-4 20 -9 38q-7 29 -26 92q-12 37 -43 118l72 72q7 -17 14 -35l66 66v-72q5 7 10 13l71 70q6 7 29 21l-39 -38q-20 -31 -29 -90q-6 -46 -11 -91 q-5 -32 -8 -66l5 4q3 24 8 52q3 19 19 74q13 43 13 73l20 20q0 -34 -12 -77q-17 -58 -20 -76q-4 -23 -7 -44l17 17q2 1 19 10t24 16q25 25 69 59q65 50 72 57q4 4 7 9l89 89q-31 -43 -53 -65l-71 -71q-7 -7 -15 -14q73 52 201 93zM313 590q-26 -20 -78 -61q33 16 76 59z M179 482l-1 -1v0zM418 758zM100 25z" />
<glyph unicode="L" horiz-adv-x="629" d="M674 115l-17 -18q-89 -4 -170 -1l-2 -3q-29 0 -84.5 1.5t-82.5 1.5q-119 0 -202 -20v21q-7 -2 -14 -5v42l-27 3l9 10q-98 12 -170 34l19 19q61 13 170 7q1 87 6 214q-9 47 -11 98q-15 75 -19 128l31 31q2 8 4 16.5t14 28.5q10 17 10 31l20 20q0 -37 14 -86v0v-1l9 -33 l12 12q0 -22 -4 -55l3 -14q5 20 14 67l75 74q-8 -34 -22 -107q-4 -25 -7 -49q4 -23 6 -39q6 -44 7 -97q1 -38 0 -97q-1 -81 -1 -97l-20 -20q23 -15 50 -29q32 4 101 10h66q37 1 63 8l-14 -14q30 3 58 3l-18 -18h66l-20 -20q-32 0 -66 -4l13 -1h16l-2 -2q71 -9 117 -50z M137 705l-1 10q-1 -4 -2 -7l-2 -8zM632 116q-36 23 -95 29l-10 -9q18 -3 36 -5l-15 -16q41 0 84 1zM244 233v226q0 -94 -9 -158l-16 -15q-1 -11 -4 -31q13 -12 29 -22zM248 200q-20 12 -37 26q-1 -13 -1 -25l28 -2zM103 186q-82 4 -124 2q50 -12 124 -21v19z" />
<glyph unicode="M" horiz-adv-x="638" d="M684 733q-18 -53 -51 -111q4 -18 6 -39q3 -51 9 -168q2 -34 13 -156q8 -85 8 -156l-17 -17l-3 3q-24 24 -35 70l-4 -3q-2 15 -4 34l-63 -63v24l-37 -36q3 9 5 20l-7 -7q-3 39 -3 76q0 80 17 206q-66 -138 -85 -157l-22 -21q13 63 69 173q-71 -87 -71 -110l-17 -17l-3 3 q7 22 16 43l-7 -7l-13 11l-9 -9l-22 -22l1 5l-45 -45l-2 2l-1 -1v2q-19 19 -32 36q-6 -3 -15 -4q0 10 -1 19q-7 3 -12 8l-5 -5l-3 3q-19 22 -52 59q-9 -52 -33 -170q-3 -110 -3 -148l-18 -18q-15 21 -20 57l-4 60l-31 -31l1 5l-14 -14q-25 201 -25 302q0 68 4 138l-48 72 l17 17l37 -24q8 37 17 56l29 29l-4 38l20 19q2 -18 4 -37l23 22q19 -31 38 -73q14 -15 37 -39q30 79 61 122l73 72q14 -59 15.5 -122t2.5 -127q4 -54 11 -165q32 86 36 96q24 54 55 85l71 71l8 8v15l19 18l1 -4q2 -3 4 -9l12 10l39 39q3 -22 3 -48q3 7 6 15l22 22 q-5 -26 -12 -49l20 24zM655 693q-11 -13 -18 -22l-8 -26l1 -7q15 28 25 55zM548 663v1l-12 -12q-9 -9 -21 -19q-14 -20 -26 -48q7 8 21 23q17 30 30 47zM626 453q-1 35 -7 116l-2 10v-6v-51q5 -36 9 -69zM539 591q-14 -25 -27 -48l-2 -8q18 27 28 54zM501 591 q-11 -12 -20 -25l-2 -4q6 7 15 17q3 6 7 12zM536 559q-15 -24 -34 -48q-13 -35 -35 -72q1 0 67 95q1 13 2 25zM474 477l-1 -2q-7 -14 -12 -26q7 14 13 28zM528 500q-33 -56 -70 -95q-13 -24 -24 -48q21 29 59 73q12 23 35 70zM291 551q1 50 -5 150l-3 -9q-12 -26 -35 -84 l-2 -4q24 -26 45 -53zM648 134q-1 50 -12 165v-46q0 -52 -4 -69q6 -30 16 -50zM526 461l-10 -13l-2 -3q-17 -32 -25 -48q-25 -51 -29 -59q-13 -29 -21 -58q10 18 69 136q7 14 16 31zM446 405l-10 -14l3 2q3 6 7 12zM295 471q-2 21 -3 37q-25 35 -55 69l-4 -13l20 -36z M431 378l-10 -8q-7 -9 -14 -17l5 -12q9 19 19 37zM158 490l-1 1q-6 10 -13 25l6 -54zM218 380q-4 10 -11 31l-9 16l-5 -21l9 -9q5 -5 16 -17zM133 181l-4 -4q1 -16 3 -51z" />
<glyph unicode="N" horiz-adv-x="728" d="M650 100l-18 -18q-22 11 -37 21l-61 -61q-18 19 -33 34q-31 29 -94 90q-23 22 -61 56t-62 57q-50 50 -98 111q-10 8 -19 17q0 -32 1 -121q2 -78 2 -116l-122 -122q-8 55 -2 147q-14 55 -28 155l-22 146q-12 80 -12 140l20 20q2 -11 21 -89l30 -121q-1 30 -2 52l-1 12 l-2 1l1 2q-2 32 -7 59l5 4q-2 32 -5 62l44 43l-1 4q-8 90 -8 83l18 18q48 -31 99 -97q41 -56 82 -113q65 -83 204 -274q-5 51 -8 63q-8 32 -15 72q-4 58 -17 161l72 72q6 -26 10 -74l39 39v32l20 20l4 -28l5 5q-2 -9 -3 -18q1 -9 3 -19l13 13q1 50 1 114l21 21 q0 -47 10 -122q11 -90 13 -118q5 -76 5 -151q0 -42 -2.5 -133.5t-2.5 -150.5zM630 374l-11 -11q0 -61 -2 -106q-1 -36 -1 -71q-1 -39 -7 -62q9 -6 21 -12q2 101 4 201q2 109 -5 207q-1 27 -6 63q-2 -41 -5 -80v-5v-3q12 -66 12 -121zM444 313q-57 75 -187 248 q-34 48 -69.5 96t-76.5 88q-4 5 -9 8q2 -13 6 -51l9 9q3 -37 6 -76l4 -5l5 -4l5 5v-11q10 -11 21 -25l16 16q42 -79 119 -156l5 5q7 -2 20 -10q40 -40 91 -107q18 -16 35 -30zM54 348q-12 53 -34 141q7 -40 19 -124q8 -61 12 -86q3 43 3 69zM618 495v3v5v-8z" />
<glyph unicode="O" horiz-adv-x="586" d="M552 508q14 -53 14 -95q0 -77 -47 -125l-8 -8q6 -41 4 -85q-2 -59 -29 -86l-18 -18q-24 -23 -67 -23q-15 0 -33 3q-49 8 -95 26q-34 -15 -55 -15q-33 0 -68 36q-18 17 -33 38q-68 11 -122 48q-57 40 -82 101q-10 22 -10 51q0 66 39 124q11 16 24 31q4 7 9 12l8 8 q23 45 62 85l17 17q64 64 190 64q56 0 126 -12q25 0 43 1l-9 -8q64 -17 111 -63q31 -32 31 -78q0 -14 -2 -29zM532 552q-9 32 -45 62q25 -27 45 -62zM398 657l-5 1l-5 -5l5 -1zM443 457q-11 32 -31 66q10 -24 16 -44q8 -11 15 -22zM219 676q-67 -2 -115 -24q26 4 68 -2h3 l1 1q17 17 43 25zM180 574h-6q-24 -9 -47 -21q-3 -9 -5 -19l1 1q23 22 57 39zM458 317q-15 -21 -64 -70l-19 -18q37 7 68 21q12 33 15 67zM460 338q1 18 0 35q-10 22 -22 44q-1 -50 -37 -86l-71 -71q-22 -22 -50 -40q43 -1 84 6q13 10 24 21q50 49 72 91zM121 633 q-42 1 -64 -15q-18 -20 -31 -44l20 20q23 23 75 39zM351 296q14 25 14 56q0 39 -22 91q-3 8 -39 83q-1 13 -16 41q-7 5 -65 5h-8q-58 -17 -95 -47q-6 -34 -2 -93q2 -43 14 -85q31 -73 93 -122q5 -1 11 -1l35 35q38 9 80 37zM495 181q1 40 -4 79l-3 -3q-15 -24 -35 -44 l-71 -71q-27 -27 -60 -36q57 -18 94 -18q35 0 57 16q20 27 22 77zM437 234q-39 -20 -88 -28q-19 -14 -42 -25q21 -6 41 -7l7 4q38 18 78 45q2 5 4 11zM96 570q-36 -6 -68 -19q-8 -37 4 -90q2 -9 3 -26q10 78 61 135zM326 203q-32 -4 -64 -3q13 -7 27 -13q20 7 37 16zM99 183 l-3 6q-60 42 -107 90q-18 17 -24 56q-3 29 -7 58q-11 52 -4 89q-30 -54 -30 -111q0 -66 56 -121q47 -47 119 -67z" />
<glyph unicode="P" horiz-adv-x="547" d="M544 474l-17 -17q-29 -28 -63 -51l-27 -27v-3q3 -47 3 -41q0 -22 -23 -45l-17 -17q-18 -18 -54 -18q-44 0 -101 24q2 -45 2 -96l-19 -19l-6 33v-33l-14 -14v-12l-16 -16v-25l-7 -7v-10l-74 -74q0 53 3 161q3 112 3 162q-32 -3 -61 -3l16 16h-15l20 20h15l25 24l-1 18 q0 15 -1 30h-6l6 5q-2 15 -4 49.5t-7 103.5q-2 17 -5 37l12 12q-1 13 -2 27v0v20l17 17l3 -3q4 -3 7 -11q8 4 25 0l11 11l1 -3l2 3l1 -14q17 -2 27 -3l30 30q27 3 59 3q142 0 187 -46q19 -18 24 -42q29 -20 34 -63q23 -30 23 -56q0 -20 -16 -37zM536 520q-9 -51 -34 -76 l-5 -5q17 12 32 26q18 23 7 55zM418 487q-1 39 -24 61l-1 1q1 -3 23 -68zM464 465q-9 -5 -19 -10l-11 -11q-1 -3 -5 -7l4 -24q7 5 21 16l4 5q5 15 6 31zM455 423l-7 -6q-3 -4 -7 -8q5 2 11 5q1 5 3 9zM398 458q-9 24 -25 74q-7 -15 -16 -25l-18 -17q-22 -23 -78 -40 q86 -2 137 8zM362 571q-8 5 -18 9q-45 0 -113 -11q-1 -19 -5 -69q2 -18 4 -40q65 10 114 43q21 30 18 68zM412 401q-1 8 -3 16l-20 -19q13 1 23 3zM187 605h-1v-1zM347 432q-44 -4 -114 -2l2 -21q49 8 112 23zM417 361q-47 -38 -141 -40q-18 -7 -32 -12v-2q62 -32 117 -32 q29 0 47 13q11 14 11 35q0 -9 -2 38z" />
<glyph unicode="Q" horiz-adv-x="688" d="M737 125l-18 -18q-13 7 -24 23l-35 -35q5 -14 8 -27l-18 -18q-7 10 -15 20l-6 -6q-17 18 -32 34l-6 -6q-3 6 -7 13l-10 -10q-11 23 -25 50l-66 60q-17 -4 -47 -7q-24 -4 -41 -5q-14 -9 -54 -2h-32h-100q-69 4 -96 25q-41 17 -76 60q-8 5 -11 14q-54 73 -54 149 q0 39 16 72q-12 129 33 174l18 17q30 31 84 32q3 47 20 63l17 18q28 27 72 27q42 0 110 -27q97 -39 145 -87l3 -3q11 -5 23 -13l-6 -6q5 -5 9 -10q24 -22 69 -95q90 -104 90 -185q0 -49 -25 -85q-7 -28 -29 -49l-16 -16q6 -10 13 -22l32 -20q20 -11 40.5 -23t36.5 -27 q10 -11 10 -49zM435 740q-37 26 -106.5 54t-111.5 28q-35 0 -60 -18q-13 -21 -14 -70q42 -3 78 -15q27 16 59 16q30 0 74 -17q6 0 13 -1l10 3q17 4 49 11zM265 714q-13 0 -26 -3l5 -2q10 3 21 5zM509 399q-2 139 -93 208q-21 1 -46 4q65 -67 86 -179l2 3q19 -21 43 -44z M601 338q-9 -17 -22 -32q4 -5 8 -11l6 2q6 19 8 41zM625 302l-26 -26l3 -5q4 2 7 5q10 12 16 26zM195 702q-24 7 -52 10q0 -12 1 -26q18 14 51 16zM715 144q-2 9 -12 17q4 -5 12 -17zM264 623q-15 2 -29 2q-48 -16 -85 -38q1 -24 2 -43l8 8q48 48 104 71zM173 627l-14 1 q-3 -10 -6 -21l14 15q3 2 6 5zM436 413q-13 70 -35 113t-72 90q-19 3 -30 4q-85 -23 -146 -81q3 -36 9 -65q11 -36 31 -77q13 -32 46 -88q36 3 91 7q13 1 28 2q-9 12 -88 104l18 18q10 -12 35 -40l16 17l63 -39l8 8q-30 28 -56 56l17 18q37 -25 63 -49zM407 343l-6 6l-72 45 q37 -42 56 -72zM124 667q-2 27 -2 46h-6q-49 2 -82 -23q-33 -43 -26 -148q6 8 13.5 15.5t21 24.5t21.5 25zM127 620v8q-23 -1 -35 -6q-46 -48 -46 -116q0 -13 1 -26q11 25 29 48q8 49 43 84zM382 275q-3 5 -5 10q-11 3 -24 5l8 8q-43 -2 -104 -6q30 -21 125 -17z" />
<glyph unicode="R" horiz-adv-x="608" d="M651 108l-20 -20q-14 0 -29 9q-22 15 -26 17q-25 10 -66 27l-26 -26q13 -20 22 -39l-17 -17q-22 14 -56 34l-25 -24q-3 14 -10 46l-5 4l-40 -40q-23 33 -39 90q-19 13 -32 23l-5 3q-28 15 -86 46q2 -29 11 -91l-14 -14l1 -13l-20 -20l-1 13l-7 -7q-1 -12 -3 -23v-37v-1 l-20 -20q0 10 -1 19l-8 -7q4 12 7 25q-1 7 -2 17l-5 -5q-6 27 -9 57l-12 -12q0 22 1 52l-72 -72q-4 35 -4 71q0 117 57 308q-3 25 -6 46q-22 -8 -44 -17l41 41q-4 23 -8 44l11 11q-2 10 -4 19l19 19l5 -18l42 42q2 -10 3 -20l38 38q-1 -39 -8 -74q80 32 118 32q28 0 50 -12 q18 -2 34 -5q91 -8 121 -51l19 -12q26 -15 26 -37q0 -14 -12 -26l-20 -19q-8 -39 -29 -60l-17 -17q-41 -41 -95 -64q19 -15 122 -117q27 -27 39 -54l18 -12l-6 -5q24 -10 43 -19q1 0 28 -16q16 -10 33 -10zM521 495q13 22 -4 41q3 -21 0 -44zM497 479q7 47 -12 78 q-18 11 -35 20q2 -20 -4.5 -42t-15.5 -31l-9 -9v-8q-3 -47 -29 -72l-6 -7q64 39 111 71zM495 467q-55 -37 -138 -88l-14 -13l18 -16q63 21 110 64q17 21 24 53zM343 390l-4 -4l3 2zM339 460q-27 73 -70 94q-6 3 -17 3q-22 0 -75 -15q12 -94 10 -167l69 69q28 4 83 16z M459 107l-1 1v0zM224 329q-9 11 -15 22q-12 10 -22 20q-1 -21 -2 -43q20 0 39 1zM248 299l-1 1h-1zM302 210q-8 24 -20 43q-36 21 -91 44l10 11q-8 2 -17 4l2 -17q10 -6 20 -14q27 -21 86 -65zM110 252q-2 11 -3 25q-3 -49 2 -94q1 50 1 69z" />
<glyph unicode="S" horiz-adv-x="624" d="M558 498l-17 -18q-22 16 -65 50l-43 -43q-4 9 -8 16l-9 -9l-40 40q-21 21 -54 40q35 -54 73 -98q54 -33 93 -72q24 -24 46 -61q30 -50 30 -84q0 -23 -14 -37l-17 -17q-11 -11 -29 -16q-40 -12 -85 -16l-4 -2l-19 -18q-11 -12 -31 -21l-4 -4q-48 -48 -121 -48 q-76 0 -144 48q-72 9 -109 46l18 17l-7 6l34 34q-9 7 -16 16l17 17q12 0 25 -7l11 11q27 -22 54 -34l52 -13q58 -13 104 -20q22 2 49 5q1 10 1 18q0 29 -15 53q-11 18 -44 50l-10 10q-61 61 -84 101q-57 55 -56 103q-69 72 -101 147q-14 31 -11 55q0 2 2 4l18 18q9 10 54 9 l8 8q11 11 44 11q38 0 86 -21q34 -16 67 -32l17 -7q33 3 79 -33q54 -20 92 -49q43 -21 74 -44l4 -2l-18 -18q-23 -11 -41 -1l30 -34l-15 -15q16 -12 49 -39zM156 768q-22 5 -41 5q20 -2 41 -5zM247 717q-71 26 -89 29q-28 5 -71 7q1 -14 10 -34q17 -37 22 -45q10 -16 38 -44 l4 -3q1 8 7 14l71 71q3 3 8 5zM334 511q-17 24 -35 53q-5 6 -21 31q-16 6 -32 11q13 -34 45 -71q1 -1 43 -24zM381 455l-3 2q-12 8 -25 15l2 -2q15 -8 26 -15zM484 306q-3 23 -15 45q3 -7 5 -16l2 -4q5 -13 8 -25zM537 217q7 12 7 27q0 47 -51 114q13 -29 13 -56 q0 -41 -28 -70l-17 -17q-4 -3 -6 -6t-5 -9l-5 -5q68 7 92 22zM146 607l-5 4q-31 31 -42 47q-5 8 -22 47q-15 31 -10 49q-25 0 -39 -3q-1 -20 11 -49q30 -68 84 -127q-1 8 3 12zM389 214q-3 22 -7 69v5q-26 24 -52 54q-23 9 -64 28l-7 4q7 -7 17 -18l10 -9q36 -36 47 -54 q17 -25 17 -54q0 -14 -3 -31l33 5q4 0 9 1z" />
<glyph unicode="T" horiz-adv-x="631" d="M673 604l-25 -26q-33 -16 -83 -30l-4 -4l-14 -6q49 -11 93 -11l-74 -74q-81 0 -215 53l-8 -1l-1 -4q5 -23 14 -77q15 -95 20 -178q8 -22 10 -42l-7 -7v-10q1 -30 1 -83v0v-1v0v0v-4l-20 -20v0v1v0v0v0v0v1v0v0v0v1v0v0v0v0v1v0v0v0v0v1v0v0v0v1v0v0v0v0v1v0v0v0 q0 47 -2 91l-45 -46q-2 17 -7 36l-7 -7v1q-7 -32 -19 -60l-78 -78q21 48 29 104l-18 -18q8 37 19 117q3 33 5 68q-3 54 -2 192l-1 6q-83 -4 -135 18l6 7q-19 -7 -34 -11l46 46h-86l20 20h-21l74 74q27 0 57 -1l26 26q21 -2 41 -10l-4 36l17 17l3 -3l8 -60q3 -2 22 -12h1 q3 8 7 20l11 11v6l20 20l4 -51l6 6q6 -9 11 -16q52 -4 110 -10q10 -1 59 -1q33 1 60 -9l-21 -21h9l-25 -25q12 -2 38 -4q65 17 109 39zM232 512l-1 6q-29 3 -89 10q-6 -1 -13 -3q42 -14 103 -13zM380 108q0 44 -1 79q1 -37 1 -79zM360 86q0 52 -2 91q2 -42 2 -91z" />
<glyph unicode="U" horiz-adv-x="534" d="M572 731q-31 -43 -84 -117q10 -55 22 -162v1v-1q2 -74 -17 -144q-22 -77 -63 -118l-71 -71q-5 -5 -12 -9q-14 -17 -31 -34l-17 -17q-6 -5 -31 -16q-29 -12 -43 -12q-9 0 -20 11.5t-25 60.5l-1 1q-31 7 -46 23q-44 43 -73 108t-29 125q0 16 2 30q6 41 31 109q1 30 1 48 l20 20v-5l2 7l31 30q2 61 8 106l21 21q-6 -47 -9 -106l3 3q8 10 16 18l71 71l3 -3q-34 -40 -57 -89q-9 -70 2 -165q4 -42 14 -126q8 -11 18 -21q15 -20 52.5 -59.5t93.5 -39.5q11 0 21 2q9 14 16 30q20 115 17 247l-5 -11q-44 -87 -44 -161l-20 -20q0 78 44 167q12 25 25 47 q-1 40 -1 59l1 1q-8 47 -6 62l73 73q4 -37 11 -80q16 22 52 72zM384 202l-23 -24q10 2 19 5q1 6 2 11zM331 100q-43 -23 -87 -23q-19 0 -34 5q12 -30 30 -30q33 0 71 26q11 11 20 22z" />
<glyph unicode="V" horiz-adv-x="621" d="M666 717l-45 -45q-6 -11 -18 -27l-9 -12q-6 -23 -17 -47l36 36q9 16 15 34l21 21q-1 -11 -3 -22l1 1l-1 -1q-7 -57 -33 -121q-25 -54 -49 -109q-25 -59 -32 -73q-18 -36 -43 -68l-23 -23q16 48 24 106q11 83 13 95l-12 -16q-29 -56 -83 -162l-21 -21l1 10 q-18 -25 -28 -49q-5 -20 -23 -60l-73 -73q-5 28 -17 81l-11 -12l-3 3q8 10 11 22q-5 20 -11.5 37t-20.5 41t-21 43q-30 80 -82 169q-40 64 -79 128q-45 83 -45 140l17 17q43 -32 74 -108l11 10q-2 11 -2 19l5 5q-4 12 -7 25l19 19q3 -12 7 -25l50 50q0 -44 33 -128 q57 -104 80 -157q34 -78 56 -166q21 31 68 103q40 68 121 193l48 48q14 34 42 106l21 21l-1 -7q-4 -49 -30 -108l30 30l36 30zM588 583q-8 -9 -25 -26q-5 -10 -11 -19q13 15 36 45zM563 585q-8 -17 -18 -37l2 3q9 17 16 34zM521 529l-18 -26l12 12l4 9zM623 618 q-27 -34 -85 -109l-10 -14q-8 -32 -15 -93q-7 -57 -16 -92q15 24 47 101q22 50 45 100q25 59 34 107zM88 555q-16 41 -32 83q-22 52 -46 81q13 -60 78 -164z" />
<glyph unicode="W" horiz-adv-x="679" d="M727 637q-22 -43 -67 -114q-47 -76 -60 -100q-23 -52 -75 -158q-4 -35 -15 -46l-8 -8l-10 -26q-13 -31 -42 -103l-24 -24q15 36 46 113l6 16l-91 -91v0q-8 -6 -24 -15q-79 113 -109 185l-4 -4q-4 -4 -8 -5q-6 -24 -17 -35l-18 -18q5 -18 11 -37l-19 -18q-6 16 -13 30 q-4 -10 -7 -21l-73 -72q-9 37 -28 110q-5 -5 -14 -13q0 19 7 38q-13 48 -27 85.5t-67 141.5q-47 94 -65 150l69 69q-14 38 -32 89l6 6l-6 11l72 72q16 -30 24.5 -68.5t16.5 -74.5l1 1v-7q6 -25 12 -58q4 -11 12 -34l15 14l1 -4q42 -105 43 -203q7 -22 22 -68q15 14 34 30 q4 8 9 14l43 43q10 45 12 52q8 29 23 44l74 74q-3 -30 -2 -62l3 3q0 -4 -2 -13q0 -15 2 -30q17 20 35 38l32 32q23 23 44 54l17 17l3 -3q-9 -9 -13 -21.5t-8 -24.5q-29 -69 -70 -128q-14 -20 -27 -37q10 -45 35 -120q8 -33 27 -90q31 60 57 175q30 134 47 179l42 42 q4 73 21 209l18 18q31 -40 27 -129l61 61q-22 -57 -75 -160q-9 -43 -20 -78t-23 -66q36 58 53 91zM630 680q6 72 -10 114l-14 -162l5 5q10 22 19 43zM603 539q-10 -23 -16.5 -44t-15.5 -49q14 34 26 72q3 9 6 21zM459 590l-15 -15l-30 -30q-25 -24 -49 -55q3 -26 10 -55 l9 13q40 56 70 128q2 5 5 14zM195 361q-14 -12 -25 -23l6 -22l1 -1l2 3q6 24 16 43z" />
<glyph unicode="X" horiz-adv-x="623" d="M667 722q-6 -10 -11 -16v-1l-1 -2q-6 -7 -16 -19l-12 -12l-23 -23l-18 -18q-57 -58 -144 -118q-12 -13 -32 -34l5 -5q7 6 14 13q25 25 80.5 64t77.5 62l24 24l3 -3l-12 -12l-70 -71q-19 -18 -108 -84q55 -47 104 -95q68 -69 68 -140l-17 -17q-17 9 -31 29q-12 17 -24 35 q-24 29 -45 52q37 -58 75 -121l-26 -26q9 -12 19 -30l-17 -17l-11 10l-62 -61l-2 7l-20 -21q-26 62 -28 69q-14 38 -16 71q-17 26 -56 90q-21 22 -44 44q-39 -60 -64 -117l-20 -20q0 22 8 41q-8 -15 -19 -43q-7 -15 -21 -29.5t-19 -25.5l-90 -88q34 54 91 147l1 2l-17 -16 q2 6 3 13q-6 -9 -12 -15l-71 -71q-6 -6 -27 -18l36 36q5 9 15 29q31 57 59 101l-1 6q-28 -43 -41 -57l-18 -18q-5 -4 -12 -7q17 38 60 83l9 15q-11 104 -44 242q-37 42 -61 82l35 35q-2 8 -5 23l-13 17l9 8q-2 16 -2 33l17 17q12 0 25 -9l22 22q30 -40 64 -84l16 16l4 -2 l44 45q13 -43 45 -137q5 -14 12 -27q15 -17 30 -35q16 17 55 56l2 2q15 20 26 34l71 71l3 -3q-11 -14 -43 -57q-10 -67 -35 -123q8 10 19 22q25 43 44 62l71 71q19 18 47 27l-76 -76l-4 -1q-10 -17 -29 -50q14 12 25 23q20 20 53 41q43 27 50 33q10 11 18 19zM594 644 q-32 -18 -93 -66q-10 -10 -21 -19q-8 -13 -16 -22q77 53 128 106zM430 613q-26 -29 -79 -88q24 -18 41 -32q27 55 38 120zM424 519l-13 -13l-3 -6l11 10zM380 576q-22 -22 -38 -39l4 -5q14 17 34 44zM404 487l-2 -2h1zM381 471v0h-1h1zM573 252q-10 49 -61 101 q-48 48 -103 94q31 -42 63 -74q40 -39 72 -80q9 -14 29 -41zM84 724l-3 1l1 -4zM250 386l-1 1l-1 -3zM223 411q-32 30 -94 90q26 -109 31 -176q30 45 63 86zM233 402l-5 5q-17 -23 -50 -71q-3 -5 -16 -27q10 9 20 19q17 25 51 74zM279 359q-11 10 -24 22l-20 -15 q-38 -55 -68 -112q0 -14 -2 -27l5 5q36 54 88 106zM244 300l-1 -1q-13 -19 -22 -37q5 8 15 25zM170 310l-8 -7l1 -3z" />
<glyph unicode="Y" horiz-adv-x="674" d="M722 634q-9 -12 -16 -21v-1q-7 -10 -18 -21l-3 -4h1l18 19v-5v-1v0q-1 -7 -3 -9q-5 -11 -16 -21l-17 -18q-3 -2 -8.5 -7.5l-8.5 -8.5q-45 -44 -103 -88l-100 -74q-6 -6 -16 -19q4 -5 9 -9l-3 -3q11 -13 21 -26l-18 -18q-10 14 -21 26l-3 -3q-15 -53 -6 -171q7 -87 7 -99 l-18 -18q-2 3 -4 7l-59 -58q2 10 2 22l-6 -6q0 34 -1 73q-4 30 -6 67q-10 -25 -17 -46l-20 -20q0 91 21 190q-33 37 -103 139q-64 93 -103 133q-32 26 -60 54q-13 13 -52 46l71 71q16 -13 49 -43l3 -3l3 3l55 -55l80 -62q49 -38 85 -75q21 -20 42 -48q13 17 40 43l24 25 q54 54 141 102l66 66q15 15 44 30l-30 -30q9 7 37 25l-62 -61l26 13q-16 -26 -39 -49l-18 -17q-30 -30 -79 -88l8 4q42 41 87 70l38 38q-6 -12 -13 -22l12 7q5 3 13 5q6 7 11 14zM640 554l-5 -3l-1 -1zM595 525q-18 -11 -31 -22l23 15zM637 608q-20 -10 -32 -17l-5 -3 q-38 -47 -119 -141q14 11 32 23q20 25 65 75l17 17q15 14 42 46zM676 569q-3 -1 -13 -4l-3 -3q-25 -26 -74 -61l-33 -33q-12 -12 -94 -72q-2 -3 -3 -6q59 45 118 89q90 70 102 90zM563 569q-107 -60 -162 -130q0 -17 -1 -44q5 -7 9 -12q46 75 128 157q9 9 26 29zM490 443 q-11 -7 -20 -14q-2 -3 -3 -6q11 9 19 17zM325 250q-11 -58 -14 -113l14 33q-1 33 0 80z" />
<glyph unicode="Z" horiz-adv-x="632" d="M677 224l-20 -20q-33 -16 -96 -13l-58 -58l-12 2l-6 -7q-20 3 -60 8h-32h-397q15 19 40 67q22 44 45 69l-4 1l-3 3l17 17l10 -2l57 58q64 64 163 126l44 45l33 33q-14 5 -49 21q-132 -11 -316 -31l35 35h-66l17 17h-1l27 27l-20 2l20 20q-11 0 -23 1l20 20q12 0 23 -1 l33 33q32 -4 79 -3q61 2 82 1q22 -1 225 -24q21 -3 40 -17q44 2 70 5q18 11 38 25l-23 -24q15 2 26 4l-39 -39h33l-12 -12h8l-20 -20h-8l-42 -42q-15 0 -31 1q2 -12 10 -21q5 -5 12 -7l1 -1l5 -1l-19 -19h-2q-21 7 -46 17q-54 -83 -133 -162l-18 -18q-31 -31 -71 -66 q32 -2 93 -7l14 -1q12 3 16 5q34 16 96 34q55 16 111 31l-76 -76q-14 -4 -35 -9q62 -11 195 -27zM503 539v6l-4 -4zM454 559h-1v-1zM471 525l-11 5l-8 -5q-19 -18 -39 -40q21 13 57 39zM428 542l-16 6q-36 -25 -75 -62q31 18 91 56zM474 522l-15 -16q-11 -10 -33 -31 q-22 -24 -75 -79l-17 -17q-7 -6 -13 -12l-6 -9q28 27 76 73l30 29q30 31 50 56zM432 487q-2 -1 -40 -25q-33 -39 -60 -77q19 14 44 42q35 39 41 45zM438 517q-17 -10 -59 -37q-32 -26 -67 -58q-22 -31 -39 -68q23 25 75 80l17 17q10 10 32 24q14 15 29 30zM451 485 q-7 -8 -18 -18l-18 -18l-18 -18l-20 -20q-23 -21 -71 -67q-14 -24 -25 -48q104 91 170 189zM591 211q-52 8 -157 24q32 -14 59 -24l33 1q12 1 65 -1zM375 451q-13 -10 -19.5 -16t-88.5 -94l-1 -3l1 1q13 12 47 33q27 40 61 79zM419 215l-13 6q-7 2 -12 5l-6 -2q17 -6 28 -9 h3zM322 445q-22 -14 -65 -41q-51 -53 -107 -120q16 -2 34 -4q33 55 56 78l59 59q11 15 23 28zM302 354q-14 -8 -40 -27q-8 -20 -14 -40q16 20 39 43q7 12 15 24zM254 342q-9 -15 -14 -24l7 8q4 8 7 16zM276 311q-17 -20 -26 -36l7 -1q9 19 19 37zM238 302q-6 -9 -6 -16z M238 392q-58 -37 -100 -73q-10 -13 -20 -31l18 -2q41 45 102 106zM216 283l-5 -5l2 -1q1 3 3 6zM232 242l-6 2l-2 -3zM221 245q-17 4 -34 7l-19 -19l52 7zM170 256q-20 4 -38 7q-14 -19 -43 -53h18l17 17l29 4l2 2q7 10 15 23zM119 266l-12 2q-6 -14 -20 -40q16 20 32 38z " />
<glyph unicode="[" horiz-adv-x="600" d="M551 181l-61 -60q30 -1 57 -1l-20 -20h-63l-16 -16q-10 3 -112 3q-47 0 -130 -10t-131 -10q15 55 20 81q11 49 13 83q5 81 5 335l13 13q-6 19 -20 63l19 19q7 -24 20 -63l39 39q233 0 269 3l-17 -16q20 0 63 1l-35 -34l60 -1l-20 -20h-60l-19 -19q-33 0 -107 -3 q-12 -1 -53 -2v-10q-3 -44 -1 -125q4 -108 4 -129q0 -5 -2 -37q-2 -28 -1 -45q1 -24 8 -33h1q8 -6 18 -6q5 0 18 3t21 3q36 0 108 7t112 7zM212 562l-25 1v-121q1 -11 3 -22q0 27 1 48q-4 23 0 72l2 2zM193 190l-15 -15q0 57 -1 85q-6 -41 -26 -119q19 0 40 1q0 17 2 48z " />
<glyph unicode="\" horiz-adv-x="350" d="M383 180l-19 -19q-8 13 -26 35l-11 -11q-4 4 -7 8q9 -22 17 -30l-71 -71l-2 3q-4 4 -8 11l-6 -6q-40 124 -93 223q-33 62 -124 204q-20 38 -69 116l71 71q17 -24 36 -57l67 67q3 -33 18 -71q12 -30 25 -60q21 -54 61 -163q45 -70 83 -172l6 -9q17 -22 52 -69z" />
<glyph unicode="]" horiz-adv-x="550" d="M553 619l-20 -20l-27 1q-1 -91 -1 -130v-179l3 -21t3 -34q0 -20 -6 -26l-14 -14q-4 -26 -7 -29l-18 -18q-11 -7 -28 -6l-4 -4q-17 -17 -67 -17q-19 0 -53.5 3t-44.5 3q-29 0 -84.5 -4.5t-88.5 -4.5l23 22q-89 4 -124 4l74 74q-2 0 149 -5q-53 28 -86 65l18 17q6 -6 8 -9 q48 -47 125 -75q37 -2 57 -2q-1 11 -1.5 26t-0.5 16q0 262 3 311q-31 0 -113 2q-78 1 -120 1l47 46q-33 1 -67 1l20 20h67l7 7q38 0 117 -1.5t116 -1.5l-1 -12l19 -1v17q-44 0 -119 9q-93 10 -117 11q-45 -1 -135 4l73 73q24 -4 65 -3q49 1 65 0q61 -7 185 -18l-1 14l20 20 l3 -35q18 -1 35 -1q0 -38 -1 -94zM435 195q-4 32 -4 28v179q0 38 1 100q1 79 1 101l-20 1q-1 -36 -1 -284q0 9 1 -28q1 -27 -1 -43q-2 -24 -8 -30l-21 -21q33 -3 52 -3zM469 174l-11 -11q5 1 9 1z" />
<glyph unicode="^" horiz-adv-x="550" d="M557 643l-74 -74q-15 0 -29 5l-25 -24q-6 27 -24 55l-4 3q-29 35 -88 103l-5 -8q32 -42 93 -134l-18 -18q-31 44 -91 130q-16 -22 -42 -48l-17 -18q-9 -9 -29 -28t-30 -29l17 17l-3 3q27 26 53 52q30 31 47 58q-9 14 -16 27q-11 -9 -30 -27l-56 -56q-28 -28 -72 -57 l54 54q-17 -13 -57 -43l91 91l15 11q17 31 28 42l13 13q-3 6 -5 13l19 19q2 -7 5 -13l39 39q18 18 38 6l38 38q0 -48 31 -96q29 -39 57 -78q33 -28 77 -28zM307 718h-1q-7 8 -14 12q5 -8 10 -17z" />
<glyph unicode="_" horiz-adv-x="600" d="M614 8l-74 -74q-38 0 -80 2q-34 1 -113 1q-149 -4 -250 4l73 73l11 -1l24 24q31 -6 86 -11l42 -4q80 18 151 45l-23 -24q-35 -13 -77 -25q78 -6 141 -9q21 2 41 6l-7 -7h55z" />
<glyph unicode="`" horiz-adv-x="250" d="M250 700l-47 -47q16 -8 32 -13l-19 -19q-16 5 -32 13l-6 -6q-18 8 -35 17l-59 -59q-7 46 -46 118q-20 11 -40 21l20 19l-4 8l72 72q9 -22 24 -48q39 -25 140 -76z" />
<glyph unicode="a" horiz-adv-x="441" d="M472 215l-12 -12l1 -1l-33 -33l-7 11l-4 -5l-17 28l-23 -23l-32 119l-4 -8q8 -40 23 -80l-24 -24q-16 43 -24 76q-15 -15 -54 -22q-21 -14 -44 -22q-25 -16 -50 -16q-36 0 -68 32q-14 14 -14 39q0 49 32 81q65 65 133 77q21 13 69 13q35 6 72 0l-12 -12l5 -1l4 4v-5 l13 -4l-11 -11q2 -7 3 -13l34 -3l-27 -27q10 -32 34 -80q30 -60 37 -78zM291 366h-2q-17 0 -39 -5q-29 -11 -51 -41q-2 -24 1 -43h2q34 13 54 36q14 15 35 53z" />
<glyph unicode="b" horiz-adv-x="422" d="M438 338q15 -26 15 -53q0 -49 -49 -98q-18 -18 -60 -27q-34 -8 -68 -15q-25 -6 -109 -55l56 56q-13 0 -27 2q-10 -1 -28 -1q-2 -50 -2 -94l-30 -30q0 77 5 164q-11 1 -44 1l40 40h5q4 44 5 88v9l-47 -22l47 47q-2 57 -18 150q-13 75 -13 116l30 30q0 -52 6 -93q1 14 2 27 l4 4q-1 37 -1 73l40 40q0 -45 1 -91l25 25v-37q3 9 7 20l46 46l-15 -43l35 35q-19 -72 -46 -191q-4 -20 -8 -55q7 1 13 2q42 22 96 22t79 -25q15 -15 15 -33q0 -8 -7 -34zM252 590q-18 -57 -28 -100v-9q1 6 28 109zM402 339q-4 4 -6 7q1 -10 -11 -67q5 20 17 60zM365 320 q3 19 -2 31q-4 2 -10 4q4 -11 12 -35zM423 283q-16 -50 -53 -86q13 5 21 12q33 35 32 74zM317 241q3 7 3 17q0 26 -13 59t-28 41q-7 -1 -14 -3q-38 -51 -46 -124l5 5q63 0 86 1q4 2 7 4zM300 197q-12 -5 -28 -8q5 0 10 1q9 3 18 7z" />
<glyph unicode="c" horiz-adv-x="470" d="M503 260l-52 -52q-9 -6 -19 -11q-4 -2 -7 -6l-8 -8q-46 -44 -128 -44q-93 0 -146 52q-35 36 -29 85q-6 14 -6 28q0 35 34 69q11 55 67 111q26 26 69 26q78 0 162 -63l-15 -15q9 -4 33 -12l-14 -13q8 -1 20 -2l-25 -25q15 -9 28 -17l-23 -22l-66 42l-7 -7l2 -6 q10 -27 31 -48l-21 -21q-27 27 -41 65q-11 32 -23 45q-31 8 -64 -2q-51 -53 -51 -113q0 -33 20 -53q3 -3 5 -7l2 -2q21 -10 43 -17q103 -1 89 -1q4 1 22 5q4 9 7 22l48 47q-7 -30 -12 -48l19 18l-13 -31l3 2q5 3 17 13l3 -4zM277 469q-38 4 -61 -13q-14 -17 -23 -37 q44 31 68 40q6 4 12 7q2 2 4 3zM236 175q-25 13 -37 25q-26 13 -47 29q23 -40 84 -54z" />
<glyph unicode="d" horiz-adv-x="474" d="M508 693q-23 -54 -49.5 -102t-30.5 -57q-13 -30 -28 -84q-17 -62 -25 -84q3 -53 17 -131l13 13q0 -81 -3 -117l-40 -40q0 54 -7 101l-26 -26q-2 11 -3 20l-11 -11h-13q2 -15 6 -35l-36 -36q-11 47 -12 79q-24 8 -46 20q-41 6 -73 38q-23 23 -23 49q0 37 59 96q9 41 49 81 q27 27 50 27q12 0 24 -7q7 176 7 170l30 30v-6l39 39v-31l25 25l-12 -92q4 9 10 20l74 74q-66 -126 -98 -212l-1 -11v-33q14 51 26 78q20 33 56 103zM335 602q-2 -42 -6 -123l4 11q1 37 2 112zM274 450q-17 9 -37 -7q-5 -7 -10 -18q27 16 47 25zM291 378q-12 12 -34 26 q-7 -2 -14 -5l-5 -4q-15 -12 -29 -29q-2 -17 -2 -33q0 -80 54 -82q7 60 30 127zM307 262q-3 1 -4 15q-1 -9 -2 -17zM323 205q-1 6 -1 12l-12 -12h13zM304 206v10l-5 -1v-9h5z" />
<glyph unicode="e" horiz-adv-x="537" d="M571 195l-14 -14l-14 -10q-3 -7 -14 -18t-34 -13l-36 -2q-82 -8 -83 -8q-59 0 -90 48q-3 6 -11 17q-53 30 -82 97q-21 22 -21 50q0 10 2 20q-3 47 24 74q24 24 35 32q19 13 45 18q22 2 70 7q92 10 111 7q3 0 31 -2l-8 -8q19 -15 38.5 -52.5t19.5 -60.5q1 -27 -8 -43 q-5 -9 -27 -31q-16 -17 -46 -17q-35 0 -92 25q-2 0 -59 12q-3 -11 -3 -21q0 -24 20 -35q55 -31 160 -31l-40 -40q-28 0 -66 7q47 -10 112 -10l-3 -3h27l2 1v7l30 30v-23q13 0 24 -10zM458 370q-5 -10 -18 -23q8 1 13 3q3 8 5 20zM425 408q0 27 -3 40h-15q-17 -11 -42 -30 q-18 -20 -31 -42q25 0 79 -1h10q2 8 2 33zM344 432q-26 -11 -45 -26q-14 -18 -21 -40l16 16l8 -1q19 28 42 51zM297 439q-12 -7 -20.5 -15.5t-13.5 -19.5q15 18 34 35zM274 329q-1 3 -2 7v-13zM235 408q-12 -11 -21 -24q1 -20 8 -45q0 41 13 69z" />
<glyph unicode="f" horiz-adv-x="590" d="M632 398l-40 -40q-46 0 -86 -3h9l-15 -15h20l-40 -40q-31 0 -63 2l-17 -18q-10 4 -21 7l-14 -14q-15 6 -27 10q-2 -11 -4 -29q4 -53 23 -146q3 -15 11 -28l-34 -34q-7 15 -12 26l-35 -35q0 28 -1 47q-11 -12 -95 -60l72 72q2 1 3 2q10 14 15 42q-12 70 -10 150 q-16 -5 -71 -23l26 26h-46l18 18h-26l61 61q20 -3 36 -6q0 17 2 34q-1 66 23 128q31 82 88 82q16 0 45 -10q8 1 41 1l-40 -40h-10l-8 -9q15 -3 32 -5l-38 -38q-5 1 -11 2l-19 -19q-15 -5 -33 -23q-11 -34 -11 -65v-7q8 -16 10 -44q108 41 292 41zM370 573q-13 1 -25 -8 q-5 -6 -9 -13q14 13 33 19zM363 521h-1l-1 -1z" />
<glyph unicode="g" horiz-adv-x="515" d="M552 365l-3 5q9 -38 -9 -64q-28 -91 -78 -276q-1 -16 -1 -32q0 -2 1 -15t1 -20q-1 -10 -5 -14q3 -16 -20 -39q-14 -14 -37 -14q-14 0 -33 6q-70 -6 -68 -6q-35 0 -68 17q-7 1 -37 1l13 13q-6 4 -35 23l33 33l28 -18q-22 17 -34 44l24 24q6 -16 25 -42l20 20 q30 -36 64 -48q-6 5 -9 8q-20 19 -51 41q-17 12 -63 46l21 21q39 -25 111 -84q15 -15 47 -28q6 10 11 22q1 21 15 85q1 48 3 142q-38 -20 -90 -9q-40 -5 -47 -5q-39 0 -55.5 25t-9.5 60q-9 24 -9 49q0 42 25 68l17 17q37 37 99 37q42 0 117 -20l-27 -27l7 -5l18 18v-4l32 32 q-3 -21 -6 -39q6 13 12 22l23 23l16 -12q-35 -50 -55 -155q9 5 16 10q6 26 12 51l34 35zM491 259q-6 -3 -13 -7q-4 -22 -9 -66q14 44 22 73zM328 399q-3 1 -6 1q-6 -4 -19 -12q-10 -13 -20 -28l3 4q22 22 42 35zM422 299q-24 -27 -46 -45q24 5 44 11zM411 327q-17 21 -56 57 q-67 -33 -83 -89q5 -12 10 -18l2 -3q12 -15 31 -15q32 0 69 36q14 14 27 32zM283 402q-10 -1 -15 -3q-4 -9 -6 -20q8 10 21 23zM423 -70h-5l-3 -3q4 1 8 3z" />
<glyph unicode="h" horiz-adv-x="502" d="M538 73l-28 -27q-39 4 -42 5q-27 6 -37 18l-18 -18l5 20l-32 -32q40 107 37 199l-22 -22q-6 17 -18 41q-39 31 -57 28q-9 -1 -34 -15q-16 -22 -27 -48q-5 -49 -13 -75q-4 -12 -12 -41l-39 -39v30q0 13 1 28l-2 2v-3l-40 -40q0 44 6 103q4 42 9 83q4 55 2 150 q-2 156 -2 154l40 40v-28l34 34v-27q18 -29 19 -71q14 43 22 75l39 39q-10 -41 -59 -198q1 -48 1 -79q41 41 92 41q45 0 78 -35l3 -3q62 -22 62 -127q0 -88 -34 -136l-13 -13q9 -5 79 -13zM422 247q-4 21 -11 62q-8 -1 -17 -1q-18 0 -32 -3q45 -22 55 -46q1 -3 5 -12z M302 349q-10 -5 -17.5 -12t-13.5 -15l-1 -7q12 14 32 34z" />
<glyph unicode="i" horiz-adv-x="436" d="M468 678l-65 -65l-9 -5q6 -16 6 -37q0 -49 -26 -75l-16 -16q-14 -45 -25 -77l38 38l-16 -77q5 -23 14 -110q7 -68 24 -107l-24 -24q-22 55 -32 149q-16 -100 -16 -185l-40 -40v22l-14 -14q0 15 -3 131q-2 65 3 108q1 78 -7 126l37 37q4 -21 6 -37q2 7 5 16l33 32 q-19 -7 -39 10l-10 2q-50 -4 -66 20q-6 8 -6 23q0 26 13 57q5 33 41 69q16 16 39 16q27 0 45 -22q6 0 11 -3q4 0 36 3q12 8 63 35zM324 524q0 8 -2 18l-5 -10q2 -3 5 -9zM293 593q-9 -4 -17 -9l-4 -8q0 -6 1 -15l-5 -5q1 -6 3 -11q1 25 22 48z" />
<glyph unicode="j" horiz-adv-x="401" d="M429 555l-26 -26l4 1l-20 -20q7 -27 5 -43q2 -6 2 -11q0 -21 -29 -50q-48 -59 -94 -59q-28 0 -52 24q-16 16 -2 42q-5 26 26 59q2 33 19 55q12 16 43 37l12 -15l-22 -23q-3 -2 -5 -4q-6 -7 -10 -16q39 28 128 57l-40 -40zM388 373q-18 -70 -44 -194q3 -32 3 -68 q0 -4 2 -34t2 -47q0 -34 -7 -41q4 -4 -4 -14q-6 -14 -24.5 -30t-33.5 -21q-16 -16 -45 -16q-36 0 -105 33l4 -1q-13 6 -51 22l34 34l24 -10l27 27q16 -3 53 -14q-30 34 -54 81l23 23q47 -92 87 -115q2 15 2 33q0 24 -4 74t-4 74q0 53 13 91q-2 8 -7 21l19 19q1 14 1 32 l40 40v-35q6 0 11 -2zM348 454q-5 7 -18 14l-19 -10q-12 -17 -10 -31q16 1 26 2v4zM343 304q-3 -3 -5 -7v-13z" />
<glyph unicode="k" horiz-adv-x="523" d="M560 487l-46 -46l4 -4l-25 -25q-23 -19 -71 -56q49 13 85 23l-41 -41q-43 -11 -87 -22q-51 -14 -83 -32q10 -14 31 -32q30 -27 33 -31q20 -7 50 -16l28 -8q11 -4 26 -20l-14 -14l8 -3l-22 -22q13 -17 26 -41q7 -5 23 -13l-22 -23q-14 7 -22 13l-12 -12q-19 36 -35 57 q-36 24 -106 75q2 -60 -8 -102l-49 -49q10 40 13 67l-48 -48q23 57 29 83q9 33 9 85q-9 6 -31 20q-4 1 -26 6l33 33l5 3l21 21q-6 115 -19 346l40 40l2 -49l36 36v-21l41 41q-23 -100 -34 -177q19 36 23 65l34 34q-9 -61 -24 -92q-8 -15 -23 -47q-15 -41 -25 -82 q-2 -25 -3 -42v-11q65 43 201 143l16 -17l-25 -25l-5 -4q34 17 89 36zM352 367q-18 -12 -32 -21q15 9 32 21z" />
<glyph unicode="l" horiz-adv-x="433" d="M464 679q-19 -71 -50 -187q-7 -24 -20 -74q-2 -122 -6 -183q-1 -18 -12 -53t-12 -53q7 -2 19 -9l-27 -27l-10 -1q1 -1 3 -2q-15 -4 -21 2t-4 27q-45 3 -49 45l-1 -3l-62 -62q60 117 84 185q29 267 29 356l40 40v-46l40 40q-6 -68 -8 -130q7 30 23 91zM349 246l-2 -10 q-9 -33 -4 -43q4 18 6 53z" />
<glyph unicode="m" horiz-adv-x="550" d="M590 292l-23 -23q-18 9 -28 16q3 -4 11 -13l-9 -9q3 -22 6 -43l-37 -37l-6 37l-32 -32v10l-20 -20q13 106 13 140q0 26 -4 48q-13 18 -27 10q-20 -25 -40 -75q-25 -63 -34 -80l-38 -38v5l-28 -28q7 49 9 79l-22 -22q0 30 4 86q-18 -22 -55 -83l-38 -38v3l-16 -16l-13 13 l-11 -11v139q-17 -8 -99 -42l49 48q4 2 46 22q-4 33 -15 70l24 24l6 -18v4l40 40v-23l16 16v-4l13 14v-31q23 20 46 20q7 0 13 -2q4 2 17 9q16 -28 24 -48q15 -8 17 -29q25 27 55 47q2 15 10 46l44 44q-14 -45 -20 -70q1 1 18 14l4 -6q12 4 23 4q46 0 46 -57v-20.5v-26.5 q6 -26 21 -40q8 -7 40 -23zM280 391q-2 7 -5 12q-23 -21 -39 -56l2 2zM239 401l-2 -1q-2 -4 -5 -8q3 5 7 9zM287 340q0 12 -1 22q-30 -25 -54 -74v-10q20 28 53 60z" />
<glyph unicode="n" horiz-adv-x="597" d="M639 338q-46 -85 -57 -96l-13 -14h5l-29 -29h-5l-25 -25l-1 11l-27 -27l5 16l-9 -9v201q-9 10 -23 21q-17 -8 -61 -52q-20 -20 -49.5 -67.5t-49.5 -67.5l-19 -19v-19l-27 -27l-14 13q3 16 4 32l-38 -38q0 192 -8 341l39 40l1 -28l27 27l2 -20l26 26q0 -36 -1 -56 q25 9 51 9q28 0 58 -10q26 14 51 17q6 2 20 6q8 1 14 1q38 0 45 -44q2 -11 7 -34q15 -51 15 -170l1 1q4 6 9 14zM500 451q-1 8 -3 11q-11 7 -31 1q5 -1 8 -3l3 -2q8 -2 23 -7zM290 435v0v-1v1zM335 429q-21 -6 -36 -19q-6 -7 -12 -18v-19l-6 -6v-5q17 30 54 67zM436 405 q-15 10 -31 17q-11 -1 -22 -3l4 -4l-27 -27q-56 -42 -70 -119q1 -20 2 -37l4 7q20 34 69 96q22 24 71 70zM246 256l-3 -3q1 -19 3 -55q2 28 0 58z" />
<glyph unicode="o" horiz-adv-x="560" d="M584 242q-8 -8 -24 -23q-71 -54 -187 -54q-147 0 -188 98q-40 35 -40 72q0 42 76 118q69 69 131 82l16 16q22 0 40 -10q18 0 61 -4l-26 -26l5 -5q32 -4 54 -26q49 -50 51 -103q47 -53 47 -95q0 -23 -16 -40zM388 500h-1q-12 0 -23 -1q9 0 17 -1zM445 432q-6 11 -13 22 l-2 -2q-7 0 -47 8l-10 -10h-26q43 -6 80 -16l2 2zM543 315q-3 4 -6 9q-9 -15 -25 -34q11 8 31 25zM556 251q8 16 -1 41q-34 -26 -67 -52q-37 -27 -77 -35q89 7 145 46zM442 291q-12 -4 -36 -14q22 7 36 14zM470 341q5 12 -3 41q-7 2 -38 9l-2 -2l-48 12q-30 5 -98 13 q-44 -37 -46 -81q6 -31 22 -55l6 -6q18 -4 36 -4q37 0 63 18q12 9 37 24q24 9 71 31zM246 415l-3 -1l-1 -3z" />
<glyph unicode="p" horiz-adv-x="481" d="M516 485q0 -28 -19 -47q-11 -11 -35 -32q-5 -22 -23 -40q-45 -45 -153 -49q5 -71 17 -125l-26 -26q-11 52 -16 100q-17 -106 -17 -122q0 -17 3 -33l-5 -5q0 -31 1 -65l-39 -39q-3 67 -3 123l-32 -32q0 76 11 131q6 30 20 91l-7 -7l-12 11q-34 1 -76 1l30 30h9l22 22h36 q-1 21 -1 135q-35 -26 -130 -86l96 96q14 9 34 24v24l40 40v-28l20 20v-15q41 21 99 19q39 -2 49 -16.5t19 -39.5q13 -9 20 -21q51 -9 59.5 -17.5t8.5 -21.5zM476 473q-4 2 -13 4q3 -17 3 -34l1 1q14 20 9 29zM386 532l-1 1q-18 6 -39 6l7.5 -2.5t16.5 -3.5q4 0 16 -1z M383 414q2 6 2 14q0 30 -20 50q-11 11 -29 18q-17 3 -50 10q-3 -21 -6 -41q0 -13 2 -67q34 5 101 16zM425 387q-10 -4 -21 -7q-16 -13 -35 -23q34 10 55 28z" />
<glyph unicode="q" horiz-adv-x="485" d="M519 192l-53 -53q-17 -8 -35 -18q8 -3 15 -6h60l-21 -21q12 -9 28 -26l-31 -31q-22 21 -46 33q-7 -2 -18 -4q-9 -114 -27 -145l-85 -85l33 56q0 39 11 85q9 37 12 79q-14 -1 -52 -1l8 8q-18 -7 -57 -20l24 24h-3l43 43l15 1l-3 1l30 31q1 12 2 21q-24 4 -43 5 q-21 -8 -40 -8q-28 0 -51 17q-30 10 -49 28q-30 30 -30 80q0 41 19 86q18 41 42 65q58 58 148 58q39 0 88 -10l17 17l-11 -32q-7 -91 -26 -257l16 -17l-10 -10l-11 -11l-3 -27q30 16 94 44zM393 424l-5 -6q-19 0 -32 -3q-43 -16 -76 -35q-7 -5 -13 -11q-14 -18 -23 -46 q0 -49 58 -92q17 -1 74 7q8 61 17 186zM313 439q-38 -7 -72 -41q-40 -40 -47 -66q17 36 54 62q22 26 65 45zM372 197l-3 -2l2 -1z" />
<glyph unicode="r" horiz-adv-x="523" d="M560 490l-38 -38q-16 2 -32 2q12 -5 22 -13l-22 -22q-14 13 -43 13q-31 0 -67.5 -13.5t-55.5 -29.5l-4 -4q2 -83 -14 -126l-33 -33v-29l-30 -30v71v0l-14 13q4 35 5 80q0 30 -1 83q-1 60 -1 82l40 40v-26l20 20v-33h3q17 18 32 24q47 22 96 22q20 0 34 -6q26 5 80 5 l-40 -40q-14 0 -24 -1l-7 -7l10 -2q33 4 84 -2zM381 469h-4l-4 -2zM335 468h-17l1 -17q3 5 16 17zM278 313q-3 -3 -5 -6q-1 -13 -1 -28q4 18 6 34z" />
<glyph unicode="s" horiz-adv-x="474" d="M508 478l-22 -22q-5 6 -9 11l-22 -22q8 -6 15 -13l-32 -32q-12 11 -20 17l-5 -5q-20 28 -29 37q-28 27 -56 27q-19 0 -38 -13q-6 -14 13 -34l3 -2q132 -28 157 -54q14 -13 6 -39q12 -34 12 -63q0 -55 -40 -95q-35 -35 -85 -32q-51 -19 -106 -19q-74 0 -132 33q-7 1 -35 1 l40 40h9l2 2q-13 14 -22 60l26 26q5 -26 18 -65q7 -4 21 -8q-9 11 -13 24l24 24q12 -36 49 -60q113 10 163 72q-18 17 -67 38q-52 22 -70 37q-31 26 -27 69q-7 13 -7 29q0 31 24 55q8 9 27 24q37 37 109 37q59 0 84 -33q5 -6 13 -23q7 -12 22 -29zM459 494q-4 7 -12 20l-1 2 q-19 17 -59 17q-22 0 -44 -5q3 -1 5 -2q8 2 15 2q40 0 96 -34zM451 280l-2 12l-3 -3q2 -4 5 -9zM419 215q-4 -5 -9 -10q3 2 5.5 4.5t3.5 5.5zM400 239q-30 -29 -58 -45q27 9 45 23q8 11 13 22z" />
<glyph unicode="t" horiz-adv-x="440" d="M472 541l-23 -23q-25 -19 -81 -59q-12 -36 -20 -71q25 14 121 57l-48 -48q12 3 27 7l-21 -21l19 7l-32 -32h40l-40 -40h-59q-7 -4 -22 -12q-3 -17 -9 -52q13 -11 55 -12l36 36q-11 -46 -25 -72q10 2 27 6l-38 -38q-4 -1 -7 -2l-12 -12q-5 -2 -9 -3q-40 -40 -66 -40 q-15 0 -26 11.5t-7 72.5q3 41 15 80q-5 -1 -42 -9l34 34l-7 8l4 4h-41l21 21l-15 -1l43 43q10 1 20 1q2 29 5 53q10 40 23 155l32 32q-2 -38 -6 -69q9 34 14 51l50 50l-12 -47l39 39l-27 -75l18 18q-25 -60 -36 -87q22 16 75 54zM355 204l-2 -2q-13 0 -23 1h1q7 -6 19 -6 q3 3 5 7zM297 159q-4 3 -7 9q0 -5 2 -7t5 -2z" />
<glyph unicode="u" horiz-adv-x="487" d="M522 178l-25 -25q-2 9 -4 16l-4 -4l-8 10l-19 -19q-13 18 -19 32l-17 -17q-4 15 -7 23l-2 -2q-31 -77 -72 -77q-19 0 -38 19q-4 4 -13 14l3 3q-19 6 -45 42q-13 3 -25 10l-8 -8l-8 21q-38 33 -38 88q0 24 7 50q-1 30 13 77q11 37 23 75l52 52l-13 -45l46 46l-21 -42 l12 -10q-12 -18 -23 -36l1 1q7 7 61 16l-35 -35l-12 -3l-1 -3q-2 -4 -6 -9q-32 -50 -44 -89q2 -24 10 -47q38 -53 81 -53q17 0 32 10q38 54 44 134q-9 63 -29 103l23 23q10 -20 16 -38l1 12l42 42l-1 -13l7 7l9 -49l16 16q0 -120 4 -194l1 -19q0 -7 1 -21q23 -50 32 -84z M400 234q-5 11 -7 22q-45 -49 -84 -61q10 -7 24 -7q26 0 61 22q3 8 6 18v6zM372 163q-19 -10 -37 -14q14 -10 29 2q4 5 8 12z" />
<glyph unicode="v" horiz-adv-x="601" d="M644 614l-50 -50q-53 -22 -112 -103q36 22 102 75l14 -14l-10 -10l3 -3q-22 -22 -85 -66q-55 -38 -82 -73q-14 -25 -26 -51l-11 -11q-16 -35 -53 -105l-38 -38q0 26 -10 70q-8 -17 -51 -61l35 55q0 39 -2 57q-15 36 -64 136q-12 14 -20 33q-14 13 -28 28l12 12 q-3 7 -8 18l23 23l6 -11l12 12l4 -11l27 26q11 -35 27 -79l-10 97l27 27q8 -72 21 -202q17 -26 22 -51q35 55 73 100q38 69 72 114l24 24l6 8l38 38l15 -13q-30 -41 -58 -86q5 6 11 12l63 63l-24 -44q32 24 105 54z" />
<glyph unicode="w" horiz-adv-x="624" d="M668 578l-25 -25l-5 -4q-12 -10 -61 -72q-58 -73 -105 -112q-45 -83 -135 -173q-5 31 -10 51l-11 -11q-15 26 -40 71q-17 -24 -24 -35q-11 -20 -17 -40l-42 -42q4 14 8 26l-13 -13q-8 37 -16 65l-6 -7q-26 32 -51 113q-13 39 -68 131l23 23l24 -40q-5 16 -19 56l35 35 q12 -36 20 -58l1 1q-4 11 -8 21l24 24q16 -42 39 -130q16 -62 32 -94q5 6 11 13q16 51 50 151l36 36q5 -42 8 -75q33 -68 37 -115q1 -11 -1 -36l4 4q42 91 133 183q3 8 8 23l55 55l-23 -69q40 44 61 89l55 55q-34 -73 -60 -111.5t-78 -89.5q-5 -12 -11 -24q33 43 104 125 q28 28 45 42zM406 317l-2 -1l-4 -8z" />
<glyph unicode="x" horiz-adv-x="598" d="M641 623l-84 -84q-38 -22 -88 -71q-63 -61 -83 -77q21 -12 38 -23l46 -32q20 -14 55 -25l-24 -24h-1l7 -14t14 -23l14 -10l-10 -10q18 -16 40 -38l-31 -31q-29 28 -72 64l-32 -32q-3 13 -6 22l-23 -23q-28 66 -53 112q-11 12 -29 31l-122 -122q-5 -9 -9 -18l-65 -65 l21 47l-45 -45q77 124 133 183l7 11q-23 -28 -76 -82l-16 17l17 16q11 16 36 45q34 34 60 55q-33 22 -62 44l-125 71l6 6h-14l30 30q16 0 31 -7q-13 9 -29 21l19 19l-8 13l33 33q32 -54 65 -88l13 -11q-10 13 -19 27l22 22q36 -52 86 -118q69 110 147 188l17 -16 q-18 -20 -36 -43q20 22 49 51l17 -16q-49 -57 -146 -164l2 1q38 42 119 128l24 24l17 -17q-14 -14 -101 -109q7 3 26 10q49 50 90 79q34 24 108 68zM383 423l-16 -8l-8 -8l2 -1q7 6 22 17zM172 487l-7 6l3 -4z" />
<glyph unicode="y" horiz-adv-x="557" d="M596 588q-29 -56 -62 -113q12 11 40 31l13 -15l-26 -26q-35 -25 -71 -80q-34 -51 -48 -97q20 -15 38 -28l-33 -33l-19 16q-7 -20 -12 -34q-2 -80 -4 -92q-7 -50 -39 -82q-48 -48 -105 -69q-24 -24 -141 -98l97 98q-55 15 -65 71l37 37q7 -41 19 -52q15 -15 36 -18 q-8 16 -26 55q-5 10 -9 26l25 25q2 -7 32 -76q23 12 40 33q5 12 14 28q6 39 24 117q6 20 15 40q-22 26 -44 51q-25 29 -40 55q-21 19 -59 55q-7 2 -33 7l36 36l-3 4l9 9l-2 5l34 34l21 -50q18 -19 53 -57q-8 16 -15 33q-5 22 -24 60q-2 2 -21 15l22 22q28 -19 36 -38 q7 -24 15 -47q19 -43 55 -108q2 6 5 12q7 45 30 96q13 30 17 57l34 34q-5 -37 -11 -60l51 51l-2 -6zM373 113l-6 -12q-6 -20 -26 -55l-5 -11q6 4 11 8q21 27 26 70z" />
<glyph unicode="z" horiz-adv-x="623" d="M667 233l-38 -38q-15 2 -26 3l-19 -19q-23 0 -52 1q46 -13 100 -45l-23 -23q-70 42 -158 52q-49 6 -134 17q-109 -11 -159 -11l32 32h-41l40 40h34q30 41 85 87q81 67 92 78q-7 2 -12 4q-130 -4 -204 -4l16 16q-17 -2 -54 -2l35 35h-35l40 40h48l-7 4l23 23 q20 -13 41 -28l184 -2l56 56q-18 -49 -27 -68l20 2q-4 -19 -8 -30h33l-35 -35h1q26 -14 94 -52l-22 -22q-27 16 -84 46q-6 3 -27 2l-2 -2q-37 -38 -90 -76q-16 -11 -105 -86q111 14 222 14q86 0 166 -9zM444 395h-1q-2 -2 -4 -5z" />
<glyph unicode="&#xa0;" />
<glyph unicode="&#xaa;" horiz-adv-x="441" d="M472 215l-12 -12l1 -1l-33 -33l-7 11l-4 -5l-17 28l-23 -23l-32 119l-4 -8q8 -40 23 -80l-24 -24q-16 43 -24 76q-15 -15 -54 -22q-21 -14 -44 -22q-25 -16 -50 -16q-36 0 -68 32q-14 14 -14 39q0 49 32 81q65 65 133 77q21 13 69 13q35 6 72 0l-12 -12l5 -1l4 4v-5 l13 -4l-11 -11q2 -7 3 -13l34 -3l-27 -27q10 -32 34 -80q30 -60 37 -78zM291 366h-2q-17 0 -39 -5q-29 -11 -51 -41q-2 -24 1 -43h2q34 13 54 36q14 15 35 53z" />
<glyph unicode="&#xad;" horiz-adv-x="613" d="M657 363l-74 -74q-198 0 -351 4q-75 -14 -132 -36l23 24q21 8 43 14l-89 3l10 11h-3l74 74h15l34 35q32 0 104.5 -9.5t112.5 -9.5q18 0 35 1l-9 -9l184 1l-29 -29h52z" />
<glyph unicode="&#xb2;" horiz-adv-x="640" d="M679 284l-20 -20q-208 0 -226 -1q17 -1 31 -1q37 0 117 -7l-28 -28h27l-74 -74h-21l-2 -2q-5 0 -71 6q-93 8 -163 8q-21 0 -68.5 -5t-73.5 -5q-37 0 -67 8l1 2h-1q11 21 27 38h-10q7 9 12 14l71 71q25 25 63 47q16 15 68 63q29 54 29 106q0 27 -9 50q-50 9 -87 -1 l-65 -65l-3 3q13 18 44 55l39 39q-44 -22 -84 -58q-3 -4 -10 -12l-17 -18q-7 -7 -23 -10l21 22q5 1 8 3.5t6 5.5l17 17q36 36 77 60q-38 -13 -161 -76l80 80q51 26 76 38q-18 5 -35 1q-29 -6 -64 -30q-54 -39 -67 -46l81 81l62 44q39 26 70 26q33 0 69 -34q13 4 27 7 q37 12 56 12q8 0 11 -3q13 -12 13 -44q0 -23 -7 -52q12 -8 23 -19q27 -28 27 -79q0 -54 -29 -84l-17 -17q-22 -21 -61.5 -50t-53 -42t-39.5 -36l20 -1q18 2 61 7q65 6 323 6zM431 409q24 30 24 79q0 54 -37 85q-2 -5 -3 -8l-2 -3q-3 -36 -29 -83q-20 -38 -35 -53l-71 -71 q-35 -35 -116 -79q44 0 106 -4l9 9q17 15 51 46q15 15 48 39q38 27 55 43zM319 427q-8 -10 -16 -18l-43 -43q22 13 38 23q12 19 21 38zM259 378l-6 -6q-9 -9 -20 -19q12 10 20 16q3 4 6 9z" />
<glyph unicode="&#xb3;" horiz-adv-x="663" d="M630 180q-3 -11 -11 -19l-17 -18q-23 -22 -88 -22q-30 -17 -84 -18l-22 -22q-9 -9 -28 -9q-10 0 -27 3q-20 4 -23 4q-13 1 -24 3q-45 -3 -70 6t-56 40q-13 13 -24 26q-25 5 -47.5 11t-56.5 22q-28 13 -53 17l73 73q22 -3 48 -16q32 -16 56 -22q8 -2 15 -4l16 16l25 -25 q7 -2 29 -6q-2 7 -5 13q-11 19 -37 47q-23 24 -32 48l19 19q10 -27 33 -52q27 -29 37 -48q8 -13 11 -32l13 -2q43 -12 133 -31q-7 86 -57 139q-29 5 -64 5q11 11 20 24q-3 1 -6 1l6 8q-35 22 -67 22q3 7 6 10l71 71q7 7 27 7q4 37 4 94q-109 -1 -231 -104l-3 3l71 71 q22 22 45 39q-43 -11 -45 -16l-77 -76q9 25 28 75q-38 -18 -69 -41l34 35q20 15 48 27q2 2 3 4l71 71q25 24 91 24q84 0 127 -24h4q37 -5 30 -38q16 -34 11 -71q10 -13 10 -26q0 -15 -15 -30l-17 -17q-28 -28 -73 -48q10 -8 20 -18q82 -7 118 -42q26 -26 47 -61 q26 -26 25 -53q12 -37 4 -67zM499 510q-4 -7 -9 -12l-55 -55q34 16 57 35q11 16 7 32zM438 504q-6 -31 -16 -55q5 4 11 9q7 21 5 46zM230 599l-6 -1v-2l4 1zM610 213q-1 -2 -3 -4l-67 -67q44 1 66 14q11 20 4 57zM552 183q0 28 -35 59q-2 -20 -12 -35q-3 -17 -9 -30 q35 0 56 6z" />
<glyph unicode="&#xb9;" horiz-adv-x="347" d="M370 736q-22 -38 -36 -85l26 26q-3 -6 -6 -11l7 7q-3 -14 -8 -32l2 2q-5 -44 -25 -142q-1 -85 -4 -165q13 -68 42 -156l-19 -19q-16 50 -26 87l-4 -40q-2 -23 -2 -38l-22 -21l-1 -5l-77 -77q17 47 19 107q1 56 1 112q3 62 19 140l1 17q1 6 1 102q-8 -5 -17 -11l-5 -5 q-25 -25 -74 -56l30 30q14 9 23 16q-30 -18 -42 -26q-23 -15 -39 -31l71 71l-3 3q20 20 56 42v18l-17 -17q-31 -32 -116 -82l82 82q23 13 45.5 26.5t36.5 28.5l33 33q9 22 20 41z" />
<glyph unicode="&#xba;" horiz-adv-x="560" d="M584 242q-8 -8 -24 -23q-71 -54 -187 -54q-147 0 -188 98q-40 35 -40 72q0 42 76 118q69 69 131 82l16 16q22 0 40 -10q18 0 61 -4l-26 -26l5 -5q32 -4 54 -26q49 -50 51 -103q47 -53 47 -95q0 -23 -16 -40zM388 500h-1q-12 0 -23 -1q9 0 17 -1zM445 432q-6 11 -13 22 l-2 -2q-7 0 -47 8l-10 -10h-26q43 -6 80 -16l2 2zM543 315q-3 4 -6 9q-9 -15 -25 -34q11 8 31 25zM556 251q8 16 -1 41q-34 -26 -67 -52q-37 -27 -77 -35q89 7 145 46zM442 291q-12 -4 -36 -14q22 7 36 14zM470 341q5 12 -3 41q-7 2 -38 9l-2 -2l-48 12q-30 5 -98 13 q-44 -37 -46 -81q6 -31 22 -55l6 -6q18 -4 36 -4q37 0 63 18q12 9 37 24q24 9 71 31zM246 415l-3 -1l-1 -3z" />
<glyph unicode="&#xc0;" horiz-adv-x="650" d="M519 941l-47 -47q16 -8 32 -13l-19 -19q-16 5 -32 13l-6 -6q-18 8 -35 17l-59 -59q-7 46 -46 118q-20 11 -40 21l20 19l-4 8l72 72q9 -22 24 -48q39 -25 140 -76zM641 226l-73 -73q-6 31 -28 61v-8q4 -7 7 -14l-7 -7q0 -17 4.5 -31t12.5 -53l-73 -73q-2 16 -7.5 31.5 t-7.5 27.5q0 28 -4 84l-15 -15q0 36 -16 85q-14 37 -27 75q-25 2 -53 3l-16 -16l-2 3v1v0q-4 6 -7 13q-38 1 -85 1q-30 -93 -60 -166l-78 -78q21 50 39 101l-74 -74q7 49 20 85q7 34 23 67q3 17 10 50q-20 -3 -39 -7l41 41v5l17 17h5l12 12l17 3q20 32 56 98q4 8 59 128 q-15 34 -30 71l19 18l-2 3l72 72q11 -22 27 -50l17 17l-12 -25l7 -12l20 19q-7 -13 -15 -27l4 -7l35 35q8 -48 20 -161q11 -30 29 -91q21 -33 55 -81q27 -2 51 -6l-27 -27l21 -29q17 -23 35 -47t23 -49zM390 407q-2 11 -3 24q-27 41 -48 80q2 -55 8 -109q25 3 43 5zM312 397 l-1 8q-5 48 -5 106q-18 -49 -39 -116h26zM190 316h-2q-31 -65 -42 -134q13 37 44 134z" />
<glyph unicode="&#xc2;" horiz-adv-x="650" d="M579 920l-74 -74q-15 0 -29 5l-25 -24q-6 27 -24 55l-4 3q-29 35 -88 103l-5 -8q32 -42 93 -134l-18 -18q-31 44 -91 130q-16 -22 -42 -48l-17 -18q-9 -9 -29 -28t-30 -29l17 17l-3 3q27 26 53 52q30 31 47 58q-9 14 -16 27q-11 -9 -30 -27l-56 -56q-28 -28 -72 -57 l54 54q-17 -13 -57 -43l91 91l15 11q17 31 28 42l13 13q-3 6 -5 13l19 19q2 -7 5 -13l39 39q18 18 38 6l38 38q0 -48 31 -96q29 -39 57 -78q33 -28 77 -28zM329 995h-1q-7 8 -14 12q5 -8 10 -17zM641 226l-73 -73q-6 31 -28 61v-8q4 -7 7 -14l-7 -7q0 -17 4.5 -31t12.5 -53 l-73 -73q-2 16 -7.5 31.5t-7.5 27.5q0 28 -4 84l-15 -15q0 36 -16 85q-14 37 -27 75q-25 2 -53 3l-16 -16l-2 3v1v0q-4 6 -7 13q-38 1 -85 1q-30 -93 -60 -166l-78 -78q21 50 39 101l-74 -74q7 49 20 85q7 34 23 67q3 17 10 50q-20 -3 -39 -7l41 41v5l17 17h5l12 12l17 3 q20 32 56 98q4 8 59 128q-15 34 -30 71l19 18l-2 3l72 72q11 -22 27 -50l17 17l-12 -25l7 -12l20 19q-7 -13 -15 -27l4 -7l35 35q8 -48 20 -161q11 -30 29 -91q21 -33 55 -81q27 -2 51 -6l-27 -27l21 -29q17 -23 35 -47t23 -49zM390 407q-2 11 -3 24q-27 41 -48 80 q2 -55 8 -109q25 3 43 5zM312 397l-1 8q-5 48 -5 106q-18 -49 -39 -116h26zM190 316h-2q-31 -65 -42 -134q13 37 44 134z" />
<glyph unicode="&#xc8;" horiz-adv-x="753" d="M788 900l-47 -47q16 -8 32 -13l-19 -19q-16 5 -32 13l-6 -6q-18 8 -35 17l-59 -59q-7 46 -46 118q-20 11 -40 21l20 19l-4 8l72 72q9 -22 24 -48q39 -25 140 -76zM807 155l-71 -71q-13 13 -34 13q-42 0 -38 -1q-49 7 -137 18q-72 -15 -293 -10q-24 -6 -51 -15v-24 l-20 -20v4q0 16 -1 33q-17 -6 -99 -42q-10 35 -11 85q1 -56 1 81v130q-17 -8 -32 -13l30 30h-35l20 20h17v53q-14 2 -32 5q4 16 26 39q-7 37 -15 108h-1l1 1v12q-12 -1 -24 -1l20 20l4 2q2 27 10 56l20 20l7 -66l7 1l31 31q24 6 52 15l11 11v-8l10 4l1 6l20 20q0 -10 -1 -20 q58 18 106 27q90 17 314 17l-59 -59l88 10l-21 -21q-64 -16 -142 -17l-22 -22l109 -1l-20 -20q-47 0 -116 -6l-1 -1q-84 -12 -256 -40l-16 -112h19q110 50 186 50l-36 -36q47 7 88 7l-29 -29q35 -1 68 -1l-13 -13l80 -1l-20 -20q-48 0 -109 -13q-75 -16 -108 -19 q-55 -5 -127 -8q0 -35 1 -66t10 -96q63 29 217 60q75 16 150 33q78 14 156 14l-20 -20q-42 -14 -105 -39q32 2 55 6l-57 -57q17 -1 162 -19h39q21 -1 36 -15zM287 643q-17 -2 -33 -5q13 1 22 1zM631 277q-57 -3 -123 -17t-131 -28l-9 -2q51 8 164 32q0 -10 -6 -16l-9 -9h9z M509 239l-16 -3h9q4 2 7 3zM50 449l-2 12l-5 -10zM178 156v2v0v-2z" />
<glyph unicode="&#xca;" horiz-adv-x="753" d="M848 879l-74 -74q-15 0 -29 5l-25 -24q-6 27 -24 55l-4 3q-29 35 -88 103l-5 -8q32 -42 93 -134l-18 -18q-31 44 -91 130q-16 -22 -42 -48l-17 -18q-9 -9 -29 -28t-30 -29l17 17l-3 3q27 26 53 52q30 31 47 58q-9 14 -16 27q-11 -9 -30 -27l-56 -56q-28 -28 -72 -57 l54 54q-17 -13 -57 -43l91 91l15 11q17 31 28 42l13 13q-3 6 -5 13l19 19q2 -7 5 -13l39 39q18 18 38 6l38 38q0 -48 31 -96q29 -39 57 -78q33 -28 77 -28zM598 954h-1q-7 8 -14 12q5 -8 10 -17zM807 155l-71 -71q-13 13 -34 13q-42 0 -38 -1q-49 7 -137 18 q-72 -15 -293 -10q-24 -6 -51 -15v-24l-20 -20v4q0 16 -1 33q-17 -6 -99 -42q-10 35 -11 85q1 -56 1 81v130q-17 -8 -32 -13l30 30h-35l20 20h17v53q-14 2 -32 5q4 16 26 39q-7 37 -15 108h-1l1 1v12q-12 -1 -24 -1l20 20l4 2q2 27 10 56l20 20l7 -66l7 1l31 31q24 6 52 15 l11 11v-8l10 4l1 6l20 20q0 -10 -1 -20q58 18 106 27q90 17 314 17l-59 -59l88 10l-21 -21q-64 -16 -142 -17l-22 -22l109 -1l-20 -20q-47 0 -116 -6l-1 -1q-84 -12 -256 -40l-16 -112h19q110 50 186 50l-36 -36q47 7 88 7l-29 -29q35 -1 68 -1l-13 -13l80 -1l-20 -20 q-48 0 -109 -13q-75 -16 -108 -19q-55 -5 -127 -8q0 -35 1 -66t10 -96q63 29 217 60q75 16 150 33q78 14 156 14l-20 -20q-42 -14 -105 -39q32 2 55 6l-57 -57q17 -1 162 -19h39q21 -1 36 -15zM287 643q-17 -2 -33 -5q13 1 22 1zM631 277q-57 -3 -123 -17t-131 -28l-9 -2 q51 8 164 32q0 -10 -6 -16l-9 -9h9zM509 239l-16 -3h9q4 2 7 3zM50 449l-2 12l-5 -10zM178 156v2v0v-2z" />
<glyph unicode="&#xcc;" horiz-adv-x="413" d="M524 1009l-47 -47q16 -8 32 -13l-19 -19q-16 5 -32 13l-6 -6q-18 8 -35 17l-59 -59q-7 46 -46 118q-20 11 -40 21l20 19l-4 8l72 72q9 -22 24 -48q39 -25 140 -76zM404 701q-8 -24 -15 -43q5 -52 5 -143q1 -76 -8 -194t-9 -190l-17 -17l-3 3q7 165 -6 301v-88 q0 -130 -6 -179l-20 -20q0 27 -2 56l-40 -40v-12l-74 -74q0 235 12 309q-2 49 2 136q3 102 3 135l8 8q-2 13 -4 27l20 19q1 -13 4 -27l46 47v-15l4 4q2 -10 5 -21q7 6 19 -1l2 1q0 35 1 71q0 11 2.5 29.5t2.5 31.5l20 20q0 -32 13 -72q14 -45 16 -67l2 -12zM367 664l-2 18 q-3 22 -14 57q-1 -50 -1 -92zM374 501q-1 65 -2 99l-6 -21q-3 -11 -8 -24q5 -44 14 -132q2 39 2 78zM316 275q-1 27 -1 74q-2 -25 -3 -52z" />
<glyph unicode="&#xce;" horiz-adv-x="413" d="M584 988l-74 -74q-15 0 -29 5l-25 -24q-6 27 -24 55l-4 3q-29 35 -88 103l-5 -8q32 -42 93 -134l-18 -18q-31 44 -91 130q-16 -22 -42 -48l-17 -18q-9 -9 -29 -28t-30 -29l17 17l-3 3q27 26 53 52q30 31 47 58q-9 14 -16 27q-11 -9 -30 -27l-56 -56q-28 -28 -72 -57 l54 54q-17 -13 -57 -43l91 91l15 11q17 31 28 42l13 13q-3 6 -5 13l19 19q2 -7 5 -13l39 39q18 18 38 6l38 38q0 -48 31 -96q29 -39 57 -78q33 -28 77 -28zM334 1063h-1q-7 8 -14 12q5 -8 10 -17zM404 701q-8 -24 -15 -43q5 -52 5 -143q1 -76 -8 -194t-9 -190l-17 -17l-3 3 q7 165 -6 301v-88q0 -130 -6 -179l-20 -20q0 27 -2 56l-40 -40v-12l-74 -74q0 235 12 309q-2 49 2 136q3 102 3 135l8 8q-2 13 -4 27l20 19q1 -13 4 -27l46 47v-15l4 4q2 -10 5 -21q7 6 19 -1l2 1q0 35 1 71q0 11 2.5 29.5t2.5 31.5l20 20q0 -32 13 -72q14 -45 16 -67l2 -12 zM367 664l-2 18q-3 22 -14 57q-1 -50 -1 -92zM374 501q-1 65 -2 99l-6 -21q-3 -11 -8 -24q5 -44 14 -132q2 39 2 78zM316 275q-1 27 -1 74q-2 -25 -3 -52z" />
<glyph unicode="&#xd2;" horiz-adv-x="586" d="M420 871l-47 -47q16 -8 32 -13l-19 -19q-16 5 -32 13l-6 -6q-18 8 -35 17l-59 -59q-7 46 -46 118q-20 11 -40 21l20 19l-4 8l72 72q9 -22 24 -48q39 -25 140 -76zM552 508q14 -53 14 -95q0 -77 -47 -125l-8 -8q6 -41 4 -85q-2 -59 -29 -86l-18 -18q-24 -23 -67 -23 q-15 0 -33 3q-49 8 -95 26q-34 -15 -55 -15q-33 0 -68 36q-18 17 -33 38q-68 11 -122 48q-57 40 -82 101q-10 22 -10 51q0 66 39 124q11 16 24 31q4 7 9 12l8 8q23 45 62 85l17 17q64 64 190 64q56 0 126 -12q25 0 43 1l-9 -8q64 -17 111 -63q31 -32 31 -78q0 -14 -2 -29z M532 552q-9 32 -45 62q25 -27 45 -62zM398 657l-5 1l-5 -5l5 -1zM443 457q-11 32 -31 66q10 -24 16 -44q8 -11 15 -22zM219 676q-67 -2 -115 -24q26 4 68 -2h3l1 1q17 17 43 25zM180 574h-6q-24 -9 -47 -21q-3 -9 -5 -19l1 1q23 22 57 39zM458 317q-15 -21 -64 -70l-19 -18 q37 7 68 21q12 33 15 67zM460 338q1 18 0 35q-10 22 -22 44q-1 -50 -37 -86l-71 -71q-22 -22 -50 -40q43 -1 84 6q13 10 24 21q50 49 72 91zM121 633q-42 1 -64 -15q-18 -20 -31 -44l20 20q23 23 75 39zM351 296q14 25 14 56q0 39 -22 91q-3 8 -39 83q-1 13 -16 41 q-7 5 -65 5h-8q-58 -17 -95 -47q-6 -34 -2 -93q2 -43 14 -85q31 -73 93 -122q5 -1 11 -1l35 35q38 9 80 37zM495 181q1 40 -4 79l-3 -3q-15 -24 -35 -44l-71 -71q-27 -27 -60 -36q57 -18 94 -18q35 0 57 16q20 27 22 77zM437 234q-39 -20 -88 -28q-19 -14 -42 -25 q21 -6 41 -7l7 4q38 18 78 45q2 5 4 11zM96 570q-36 -6 -68 -19q-8 -37 4 -90q2 -9 3 -26q10 78 61 135zM326 203q-32 -4 -64 -3q13 -7 27 -13q20 7 37 16zM99 183l-3 6q-60 42 -107 90q-18 17 -24 56q-3 29 -7 58q-11 52 -4 89q-30 -54 -30 -111q0 -66 56 -121 q47 -47 119 -67z" />
<glyph unicode="&#xd4;" horiz-adv-x="586" d="M480 850l-74 -74q-15 0 -29 5l-25 -24q-6 27 -24 55l-4 3q-29 35 -88 103l-5 -8q32 -42 93 -134l-18 -18q-31 44 -91 130q-16 -22 -42 -48l-17 -18q-9 -9 -29 -28t-30 -29l17 17l-3 3q27 26 53 52q30 31 47 58q-9 14 -16 27q-11 -9 -30 -27l-56 -56q-28 -28 -72 -57 l54 54q-17 -13 -57 -43l91 91l15 11q17 31 28 42l13 13q-3 6 -5 13l19 19q2 -7 5 -13l39 39q18 18 38 6l38 38q0 -48 31 -96q29 -39 57 -78q33 -28 77 -28zM230 925h-1q-7 8 -14 12q5 -8 10 -17zM552 508q14 -53 14 -95q0 -77 -47 -125l-8 -8q6 -41 4 -85q-2 -59 -29 -86 l-18 -18q-24 -23 -67 -23q-15 0 -33 3q-49 8 -95 26q-34 -15 -55 -15q-33 0 -68 36q-18 17 -33 38q-68 11 -122 48q-57 40 -82 101q-10 22 -10 51q0 66 39 124q11 16 24 31q4 7 9 12l8 8q23 45 62 85l17 17q64 64 190 64q56 0 126 -12q25 0 43 1l-9 -8q64 -17 111 -63 q31 -32 31 -78q0 -14 -2 -29zM532 552q-9 32 -45 62q25 -27 45 -62zM398 657l-5 1l-5 -5l5 -1zM443 457q-11 32 -31 66q10 -24 16 -44q8 -11 15 -22zM219 676q-67 -2 -115 -24q26 4 68 -2h3l1 1q17 17 43 25zM180 574h-6q-24 -9 -47 -21q-3 -9 -5 -19l1 1q23 22 57 39z M458 317q-15 -21 -64 -70l-19 -18q37 7 68 21q12 33 15 67zM460 338q1 18 0 35q-10 22 -22 44q-1 -50 -37 -86l-71 -71q-22 -22 -50 -40q43 -1 84 6q13 10 24 21q50 49 72 91zM121 633q-42 1 -64 -15q-18 -20 -31 -44l20 20q23 23 75 39zM351 296q14 25 14 56q0 39 -22 91 q-3 8 -39 83q-1 13 -16 41q-7 5 -65 5h-8q-58 -17 -95 -47q-6 -34 -2 -93q2 -43 14 -85q31 -73 93 -122q5 -1 11 -1l35 35q38 9 80 37zM495 181q1 40 -4 79l-3 -3q-15 -24 -35 -44l-71 -71q-27 -27 -60 -36q57 -18 94 -18q35 0 57 16q20 27 22 77zM437 234q-39 -20 -88 -28 q-19 -14 -42 -25q21 -6 41 -7l7 4q38 18 78 45q2 5 4 11zM96 570q-36 -6 -68 -19q-8 -37 4 -90q2 -9 3 -26q10 78 61 135zM326 203q-32 -4 -64 -3q13 -7 27 -13q20 7 37 16zM99 183l-3 6q-60 42 -107 90q-18 17 -24 56q-3 29 -7 58q-11 52 -4 89q-30 -54 -30 -111 q0 -66 56 -121q47 -47 119 -67z" />
<glyph unicode="&#xd9;" horiz-adv-x="534" d="M740 905l-47 -47q16 -8 32 -13l-19 -19q-16 5 -32 13l-6 -6q-18 8 -35 17l-59 -59q-7 46 -46 118q-20 11 -40 21l20 19l-4 8l72 72q9 -22 24 -48q39 -25 140 -76zM572 731q-31 -43 -84 -117q10 -55 22 -162v1v-1q2 -74 -17 -144q-22 -77 -63 -118l-71 -71q-5 -5 -12 -9 q-14 -17 -31 -34l-17 -17q-6 -5 -31 -16q-29 -12 -43 -12q-9 0 -20 11.5t-25 60.5l-1 1q-31 7 -46 23q-44 43 -73 108t-29 125q0 16 2 30q6 41 31 109q1 30 1 48l20 20v-5l2 7l31 30q2 61 8 106l21 21q-6 -47 -9 -106l3 3q8 10 16 18l71 71l3 -3q-34 -40 -57 -89 q-9 -70 2 -165q4 -42 14 -126q8 -11 18 -21q15 -20 52.5 -59.5t93.5 -39.5q11 0 21 2q9 14 16 30q20 115 17 247l-5 -11q-44 -87 -44 -161l-20 -20q0 78 44 167q12 25 25 47q-1 40 -1 59l1 1q-8 47 -6 62l73 73q4 -37 11 -80q16 22 52 72zM384 202l-23 -24q10 2 19 5 q1 6 2 11zM331 100q-43 -23 -87 -23q-19 0 -34 5q12 -30 30 -30q33 0 71 26q11 11 20 22z" />
<glyph unicode="&#xdb;" horiz-adv-x="534" d="M800 884l-74 -74q-15 0 -29 5l-25 -24q-6 27 -24 55l-4 3q-29 35 -88 103l-5 -8q32 -42 93 -134l-18 -18q-31 44 -91 130q-16 -22 -42 -48l-17 -18q-9 -9 -29 -28t-30 -29l17 17l-3 3q27 26 53 52q30 31 47 58q-9 14 -16 27q-11 -9 -30 -27l-56 -56q-28 -28 -72 -57 l54 54q-17 -13 -57 -43l91 91l15 11q17 31 28 42l13 13q-3 6 -5 13l19 19q2 -7 5 -13l39 39q18 18 38 6l38 38q0 -48 31 -96q29 -39 57 -78q33 -28 77 -28zM550 959h-1q-7 8 -14 12q5 -8 10 -17zM572 731q-31 -43 -84 -117q10 -55 22 -162v1v-1q2 -74 -17 -144 q-22 -77 -63 -118l-71 -71q-5 -5 -12 -9q-14 -17 -31 -34l-17 -17q-6 -5 -31 -16q-29 -12 -43 -12q-9 0 -20 11.5t-25 60.5l-1 1q-31 7 -46 23q-44 43 -73 108t-29 125q0 16 2 30q6 41 31 109q1 30 1 48l20 20v-5l2 7l31 30q2 61 8 106l21 21q-6 -47 -9 -106l3 3q8 10 16 18 l71 71l3 -3q-34 -40 -57 -89q-9 -70 2 -165q4 -42 14 -126q8 -11 18 -21q15 -20 52.5 -59.5t93.5 -39.5q11 0 21 2q9 14 16 30q20 115 17 247l-5 -11q-44 -87 -44 -161l-20 -20q0 78 44 167q12 25 25 47q-1 40 -1 59l1 1q-8 47 -6 62l73 73q4 -37 11 -80q16 22 52 72z M384 202l-23 -24q10 2 19 5q1 6 2 11zM331 100q-43 -23 -87 -23q-19 0 -34 5q12 -30 30 -30q33 0 71 26q11 11 20 22z" />
<glyph unicode="&#xe0;" horiz-adv-x="441" d="M528 725l-47 -47q16 -8 32 -13l-19 -19q-16 5 -32 13l-6 -6q-18 8 -35 17l-59 -59q-7 46 -46 118q-20 11 -40 21l20 19l-4 8l72 72q9 -22 24 -48q39 -25 140 -76zM472 215l-12 -12l1 -1l-33 -33l-7 11l-4 -5l-17 28l-23 -23l-32 119l-4 -8q8 -40 23 -80l-24 -24 q-16 43 -24 76q-15 -15 -54 -22q-21 -14 -44 -22q-25 -16 -50 -16q-36 0 -68 32q-14 14 -14 39q0 49 32 81q65 65 133 77q21 13 69 13q35 6 72 0l-12 -12l5 -1l4 4v-5l13 -4l-11 -11q2 -7 3 -13l34 -3l-27 -27q10 -32 34 -80q30 -60 37 -78zM291 366h-2q-17 0 -39 -5 q-29 -11 -51 -41q-2 -24 1 -43h2q34 13 54 36q14 15 35 53z" />
<glyph unicode="&#xe2;" horiz-adv-x="441" d="M587 704l-74 -74q-15 0 -29 5l-25 -24q-6 27 -24 55l-4 3q-29 35 -88 103l-5 -8q32 -42 93 -134l-18 -18q-31 44 -91 130q-16 -22 -42 -48l-17 -18q-9 -9 -29 -28t-30 -29l17 17l-3 3q27 26 53 52q30 31 47 58q-9 14 -16 27q-11 -9 -30 -27l-56 -56q-28 -28 -72 -57 l54 54q-17 -13 -57 -43l91 91l15 11q17 31 28 42l13 13q-3 6 -5 13l19 19q2 -7 5 -13l39 39q18 18 38 6l38 38q0 -48 31 -96q29 -39 57 -78q33 -28 77 -28zM337 779h-1q-7 8 -14 12q5 -8 10 -17zM472 215l-12 -12l1 -1l-33 -33l-7 11l-4 -5l-17 28l-23 -23l-32 119l-4 -8 q8 -40 23 -80l-24 -24q-16 43 -24 76q-15 -15 -54 -22q-21 -14 -44 -22q-25 -16 -50 -16q-36 0 -68 32q-14 14 -14 39q0 49 32 81q65 65 133 77q21 13 69 13q35 6 72 0l-12 -12l5 -1l4 4v-5l13 -4l-11 -11q2 -7 3 -13l34 -3l-27 -27q10 -32 34 -80q30 -60 37 -78zM291 366 h-2q-17 0 -39 -5q-29 -11 -51 -41q-2 -24 1 -43h2q34 13 54 36q14 15 35 53z" />
<glyph unicode="&#xe8;" horiz-adv-x="537" d="M616 725l-47 -47q16 -8 32 -13l-19 -19q-16 5 -32 13l-6 -6q-18 8 -35 17l-59 -59q-7 46 -46 118q-20 11 -40 21l20 19l-4 8l72 72q9 -22 24 -48q39 -25 140 -76zM571 195l-14 -14l-14 -10q-3 -7 -14 -18t-34 -13l-36 -2q-82 -8 -83 -8q-59 0 -90 48q-3 6 -11 17 q-53 30 -82 97q-21 22 -21 50q0 10 2 20q-3 47 24 74q24 24 35 32q19 13 45 18q22 2 70 7q92 10 111 7q3 0 31 -2l-8 -8q19 -15 38.5 -52.5t19.5 -60.5q1 -27 -8 -43q-5 -9 -27 -31q-16 -17 -46 -17q-35 0 -92 25q-2 0 -59 12q-3 -11 -3 -21q0 -24 20 -35q55 -31 160 -31 l-40 -40q-28 0 -66 7q47 -10 112 -10l-3 -3h27l2 1v7l30 30v-23q13 0 24 -10zM458 370q-5 -10 -18 -23q8 1 13 3q3 8 5 20zM425 408q0 27 -3 40h-15q-17 -11 -42 -30q-18 -20 -31 -42q25 0 79 -1h10q2 8 2 33zM344 432q-26 -11 -45 -26q-14 -18 -21 -40l16 16l8 -1 q19 28 42 51zM297 439q-12 -7 -20.5 -15.5t-13.5 -19.5q15 18 34 35zM274 329q-1 3 -2 7v-13zM235 408q-12 -11 -21 -24q1 -20 8 -45q0 41 13 69z" />
<glyph unicode="&#xea;" horiz-adv-x="537" d="M676 704l-74 -74q-15 0 -29 5l-25 -24q-6 27 -24 55l-4 3q-29 35 -88 103l-5 -8q32 -42 93 -134l-18 -18q-31 44 -91 130q-16 -22 -42 -48l-17 -18q-9 -9 -29 -28t-30 -29l17 17l-3 3q27 26 53 52q30 31 47 58q-9 14 -16 27q-11 -9 -30 -27l-56 -56q-28 -28 -72 -57 l54 54q-17 -13 -57 -43l91 91l15 11q17 31 28 42l13 13q-3 6 -5 13l19 19q2 -7 5 -13l39 39q18 18 38 6l38 38q0 -48 31 -96q29 -39 57 -78q33 -28 77 -28zM426 779h-1q-7 8 -14 12q5 -8 10 -17zM571 195l-14 -14l-14 -10q-3 -7 -14 -18t-34 -13l-36 -2q-82 -8 -83 -8 q-59 0 -90 48q-3 6 -11 17q-53 30 -82 97q-21 22 -21 50q0 10 2 20q-3 47 24 74q24 24 35 32q19 13 45 18q22 2 70 7q92 10 111 7q3 0 31 -2l-8 -8q19 -15 38.5 -52.5t19.5 -60.5q1 -27 -8 -43q-5 -9 -27 -31q-16 -17 -46 -17q-35 0 -92 25q-2 0 -59 12q-3 -11 -3 -21 q0 -24 20 -35q55 -31 160 -31l-40 -40q-28 0 -66 7q47 -10 112 -10l-3 -3h27l2 1v7l30 30v-23q13 0 24 -10zM458 370q-5 -10 -18 -23q8 1 13 3q3 8 5 20zM425 408q0 27 -3 40h-15q-17 -11 -42 -30q-18 -20 -31 -42q25 0 79 -1h10q2 8 2 33zM344 432q-26 -11 -45 -26 q-14 -18 -21 -40l16 16l8 -1q19 28 42 51zM297 439q-12 -7 -20.5 -15.5t-13.5 -19.5q15 18 34 35zM274 329q-1 3 -2 7v-13zM235 408q-12 -11 -21 -24q1 -20 8 -45q0 41 13 69z" />
<glyph unicode="&#xec;" horiz-adv-x="436" d="M636 852l-47 -47q16 -8 32 -13l-19 -19q-16 5 -32 13l-6 -6q-18 8 -35 17l-59 -59q-7 46 -46 118q-20 11 -40 21l20 19l-4 8l72 72q9 -22 24 -48q39 -25 140 -76zM468 678l-65 -65l-9 -5q6 -16 6 -37q0 -49 -26 -75l-16 -16q-14 -45 -25 -77l38 38l-16 -77q5 -23 14 -110 q7 -68 24 -107l-24 -24q-22 55 -32 149q-16 -100 -16 -185l-40 -40v22l-14 -14q0 15 -3 131q-2 65 3 108q1 78 -7 126l37 37q4 -21 6 -37q2 7 5 16l33 32q-19 -7 -39 10l-10 2q-50 -4 -66 20q-6 8 -6 23q0 26 13 57q5 33 41 69q16 16 39 16q27 0 45 -22q6 0 11 -3q4 0 36 3 q12 8 63 35zM324 524q0 8 -2 18l-5 -10q2 -3 5 -9zM293 593q-9 -4 -17 -9l-4 -8q0 -6 1 -15l-5 -5q1 -6 3 -11q1 25 22 48z" />
<glyph unicode="&#xee;" horiz-adv-x="436" d="M696 831l-74 -74q-15 0 -29 5l-25 -24q-6 27 -24 55l-4 3q-29 35 -88 103l-5 -8q32 -42 93 -134l-18 -18q-31 44 -91 130q-16 -22 -42 -48l-17 -18q-9 -9 -29 -28t-30 -29l17 17l-3 3q27 26 53 52q30 31 47 58q-9 14 -16 27q-11 -9 -30 -27l-56 -56q-28 -28 -72 -57 l54 54q-17 -13 -57 -43l91 91l15 11q17 31 28 42l13 13q-3 6 -5 13l19 19q2 -7 5 -13l39 39q18 18 38 6l38 38q0 -48 31 -96q29 -39 57 -78q33 -28 77 -28zM446 906h-1q-7 8 -14 12q5 -8 10 -17zM468 678l-65 -65l-9 -5q6 -16 6 -37q0 -49 -26 -75l-16 -16q-14 -45 -25 -77 l38 38l-16 -77q5 -23 14 -110q7 -68 24 -107l-24 -24q-22 55 -32 149q-16 -100 -16 -185l-40 -40v22l-14 -14q0 15 -3 131q-2 65 3 108q1 78 -7 126l37 37q4 -21 6 -37q2 7 5 16l33 32q-19 -7 -39 10l-10 2q-50 -4 -66 20q-6 8 -6 23q0 26 13 57q5 33 41 69q16 16 39 16 q27 0 45 -22q6 0 11 -3q4 0 36 3q12 8 63 35zM324 524q0 8 -2 18l-5 -10q2 -3 5 -9zM293 593q-9 -4 -17 -9l-4 -8q0 -6 1 -15l-5 -5q1 -6 3 -11q1 25 22 48z" />
<glyph unicode="&#xf2;" horiz-adv-x="560" d="M536 725l-47 -47q16 -8 32 -13l-19 -19q-16 5 -32 13l-6 -6q-18 8 -35 17l-59 -59q-7 46 -46 118q-20 11 -40 21l20 19l-4 8l72 72q9 -22 24 -48q39 -25 140 -76zM584 242q-8 -8 -24 -23q-71 -54 -187 -54q-147 0 -188 98q-40 35 -40 72q0 42 76 118q69 69 131 82l16 16 q22 0 40 -10q18 0 61 -4l-26 -26l5 -5q32 -4 54 -26q49 -50 51 -103q47 -53 47 -95q0 -23 -16 -40zM388 500h-1q-12 0 -23 -1q9 0 17 -1zM445 432q-6 11 -13 22l-2 -2q-7 0 -47 8l-10 -10h-26q43 -6 80 -16l2 2zM543 315q-3 4 -6 9q-9 -15 -25 -34q11 8 31 25zM556 251 q8 16 -1 41q-34 -26 -67 -52q-37 -27 -77 -35q89 7 145 46zM442 291q-12 -4 -36 -14q22 7 36 14zM470 341q5 12 -3 41q-7 2 -38 9l-2 -2l-48 12q-30 5 -98 13q-44 -37 -46 -81q6 -31 22 -55l6 -6q18 -4 36 -4q37 0 63 18q12 9 37 24q24 9 71 31zM246 415l-3 -1l-1 -3z" />
<glyph unicode="&#xf4;" horiz-adv-x="560" d="M596 704l-74 -74q-15 0 -29 5l-25 -24q-6 27 -24 55l-4 3q-29 35 -88 103l-5 -8q32 -42 93 -134l-18 -18q-31 44 -91 130q-16 -22 -42 -48l-17 -18q-9 -9 -29 -28t-30 -29l17 17l-3 3q27 26 53 52q30 31 47 58q-9 14 -16 27q-11 -9 -30 -27l-56 -56q-28 -28 -72 -57 l54 54q-17 -13 -57 -43l91 91l15 11q17 31 28 42l13 13q-3 6 -5 13l19 19q2 -7 5 -13l39 39q18 18 38 6l38 38q0 -48 31 -96q29 -39 57 -78q33 -28 77 -28zM346 779h-1q-7 8 -14 12q5 -8 10 -17zM584 242q-8 -8 -24 -23q-71 -54 -187 -54q-147 0 -188 98q-40 35 -40 72 q0 42 76 118q69 69 131 82l16 16q22 0 40 -10q18 0 61 -4l-26 -26l5 -5q32 -4 54 -26q49 -50 51 -103q47 -53 47 -95q0 -23 -16 -40zM388 500h-1q-12 0 -23 -1q9 0 17 -1zM445 432q-6 11 -13 22l-2 -2q-7 0 -47 8l-10 -10h-26q43 -6 80 -16l2 2zM543 315q-3 4 -6 9 q-9 -15 -25 -34q11 8 31 25zM556 251q8 16 -1 41q-34 -26 -67 -52q-37 -27 -77 -35q89 7 145 46zM442 291q-12 -4 -36 -14q22 7 36 14zM470 341q5 12 -3 41q-7 2 -38 9l-2 -2l-48 12q-30 5 -98 13q-44 -37 -46 -81q6 -31 22 -55l6 -6q18 -4 36 -4q37 0 63 18q12 9 37 24 q24 9 71 31zM246 415l-3 -1l-1 -3z" />
<glyph unicode="&#xf9;" horiz-adv-x="487" d="M469 733l-47 -47q16 -8 32 -13l-19 -19q-16 5 -32 13l-6 -6q-18 8 -35 17l-59 -59q-7 46 -46 118q-20 11 -40 21l20 19l-4 8l72 72q9 -22 24 -48q39 -25 140 -76zM522 178l-25 -25q-2 9 -4 16l-4 -4l-8 10l-19 -19q-13 18 -19 32l-17 -17q-4 15 -7 23l-2 -2 q-31 -77 -72 -77q-19 0 -38 19q-4 4 -13 14l3 3q-19 6 -45 42q-13 3 -25 10l-8 -8l-8 21q-38 33 -38 88q0 24 7 50q-1 30 13 77q11 37 23 75l52 52l-13 -45l46 46l-21 -42l12 -10q-12 -18 -23 -36l1 1q7 7 61 16l-35 -35l-12 -3l-1 -3q-2 -4 -6 -9q-32 -50 -44 -89 q2 -24 10 -47q38 -53 81 -53q17 0 32 10q38 54 44 134q-9 63 -29 103l23 23q10 -20 16 -38l1 12l42 42l-1 -13l7 7l9 -49l16 16q0 -120 4 -194l1 -19q0 -7 1 -21q23 -50 32 -84zM400 234q-5 11 -7 22q-45 -49 -84 -61q10 -7 24 -7q26 0 61 22q3 8 6 18v6zM372 163 q-19 -10 -37 -14q14 -10 29 2q4 5 8 12z" />
<glyph unicode="&#xfb;" horiz-adv-x="487" d="M529 712l-74 -74q-15 0 -29 5l-25 -24q-6 27 -24 55l-4 3q-29 35 -88 103l-5 -8q32 -42 93 -134l-18 -18q-31 44 -91 130q-16 -22 -42 -48l-17 -18q-9 -9 -29 -28t-30 -29l17 17l-3 3q27 26 53 52q30 31 47 58q-9 14 -16 27q-11 -9 -30 -27l-56 -56q-28 -28 -72 -57 l54 54q-17 -13 -57 -43l91 91l15 11q17 31 28 42l13 13q-3 6 -5 13l19 19q2 -7 5 -13l39 39q18 18 38 6l38 38q0 -48 31 -96q29 -39 57 -78q33 -28 77 -28zM279 787h-1q-7 8 -14 12q5 -8 10 -17zM522 178l-25 -25q-2 9 -4 16l-4 -4l-8 10l-19 -19q-13 18 -19 32l-17 -17 q-4 15 -7 23l-2 -2q-31 -77 -72 -77q-19 0 -38 19q-4 4 -13 14l3 3q-19 6 -45 42q-13 3 -25 10l-8 -8l-8 21q-38 33 -38 88q0 24 7 50q-1 30 13 77q11 37 23 75l52 52l-13 -45l46 46l-21 -42l12 -10q-12 -18 -23 -36l1 1q7 7 61 16l-35 -35l-12 -3l-1 -3q-2 -4 -6 -9 q-32 -50 -44 -89q2 -24 10 -47q38 -53 81 -53q17 0 32 10q38 54 44 134q-9 63 -29 103l23 23q10 -20 16 -38l1 12l42 42l-1 -13l7 7l9 -49l16 16q0 -120 4 -194l1 -19q0 -7 1 -21q23 -50 32 -84zM400 234q-5 11 -7 22q-45 -49 -84 -61q10 -7 24 -7q26 0 61 22q3 8 6 18v6z M372 163q-19 -10 -37 -14q14 -10 29 2q4 5 8 12z" />
<glyph unicode="&#x152;" horiz-adv-x="1339" d="M1393 155l-71 -71q-13 13 -34 13q-42 0 -38 -1q-49 7 -137 18q-72 -15 -293 -10q-24 -6 -51 -15v-24l-20 -20v4q0 16 -1 33q-17 -6 -99 -42q-10 35 -11 85q1 -56 1 81v130q-17 -8 -32 -13l30 30h-35l20 20h17v53q-14 2 -32 5q4 16 26 39q-7 37 -15 108h-1l1 1v12 q-12 -1 -24 -1l20 20l4 2q2 27 10 56l20 20l7 -66l7 1l31 31q24 6 52 15l11 11v-8l10 4l1 6l20 20q0 -10 -1 -20q58 18 106 27q90 17 314 17l-59 -59l88 10l-21 -21q-64 -16 -142 -17l-22 -22l109 -1l-20 -20q-47 0 -116 -6l-1 -1q-84 -12 -256 -40l-16 -112h19 q110 50 186 50l-36 -36q47 7 88 7l-29 -29q35 -1 68 -1l-13 -13l80 -1l-20 -20q-48 0 -109 -13q-75 -16 -108 -19q-55 -5 -127 -8q0 -35 1 -66t10 -96q63 29 217 60q75 16 150 33q78 14 156 14l-20 -20q-42 -14 -105 -39q32 2 55 6l-57 -57q17 -1 162 -19h39q21 -1 36 -15z M873 643q-17 -2 -33 -5q13 1 22 1zM1217 277q-57 -3 -123 -17t-131 -28l-9 -2q51 8 164 32q0 -10 -6 -16l-9 -9h9zM1095 239l-16 -3h9q4 2 7 3zM636 449l-2 12l-5 -10zM764 156v2v0v-2zM552 508q14 -53 14 -95q0 -77 -47 -125l-8 -8q6 -41 4 -85q-2 -59 -29 -86l-18 -18 q-24 -23 -67 -23q-15 0 -33 3q-49 8 -95 26q-34 -15 -55 -15q-33 0 -68 36q-18 17 -33 38q-68 11 -122 48q-57 40 -82 101q-10 22 -10 51q0 66 39 124q11 16 24 31q4 7 9 12l8 8q23 45 62 85l17 17q64 64 190 64q56 0 126 -12q25 0 43 1l-9 -8q64 -17 111 -63q31 -32 31 -78 q0 -14 -2 -29zM532 552q-9 32 -45 62q25 -27 45 -62zM398 657l-5 1l-5 -5l5 -1zM443 457q-11 32 -31 66q10 -24 16 -44q8 -11 15 -22zM219 676q-67 -2 -115 -24q26 4 68 -2h3l1 1q17 17 43 25zM180 574h-6q-24 -9 -47 -21q-3 -9 -5 -19l1 1q23 22 57 39zM458 317 q-15 -21 -64 -70l-19 -18q37 7 68 21q12 33 15 67zM460 338q1 18 0 35q-10 22 -22 44q-1 -50 -37 -86l-71 -71q-22 -22 -50 -40q43 -1 84 6q13 10 24 21q50 49 72 91zM121 633q-42 1 -64 -15q-18 -20 -31 -44l20 20q23 23 75 39zM351 296q14 25 14 56q0 39 -22 91 q-3 8 -39 83q-1 13 -16 41q-7 5 -65 5h-8q-58 -17 -95 -47q-6 -34 -2 -93q2 -43 14 -85q31 -73 93 -122q5 -1 11 -1l35 35q38 9 80 37zM495 181q1 40 -4 79l-3 -3q-15 -24 -35 -44l-71 -71q-27 -27 -60 -36q57 -18 94 -18q35 0 57 16q20 27 22 77zM437 234q-39 -20 -88 -28 q-19 -14 -42 -25q21 -6 41 -7l7 4q38 18 78 45q2 5 4 11zM96 570q-36 -6 -68 -19q-8 -37 4 -90q2 -9 3 -26q10 78 61 135zM326 203q-32 -4 -64 -3q13 -7 27 -13q20 7 37 16zM99 183l-3 6q-60 42 -107 90q-18 17 -24 56q-3 29 -7 58q-11 52 -4 89q-30 -54 -30 -111 q0 -66 56 -121q47 -47 119 -67z" />
<glyph unicode="&#x153;" horiz-adv-x="1097" d="M1131 195l-14 -14l-14 -10q-3 -7 -14 -18t-34 -13l-36 -2q-82 -8 -83 -8q-59 0 -90 48q-3 6 -11 17q-53 30 -82 97q-21 22 -21 50q0 10 2 20q-3 47 24 74q24 24 35 32q19 13 45 18q22 2 70 7q92 10 111 7q3 0 31 -2l-8 -8q19 -15 38.5 -52.5t19.5 -60.5q1 -27 -8 -43 q-5 -9 -27 -31q-16 -17 -46 -17q-35 0 -92 25q-2 0 -59 12q-3 -11 -3 -21q0 -24 20 -35q55 -31 160 -31l-40 -40q-28 0 -66 7q47 -10 112 -10l-3 -3h27l2 1v7l30 30v-23q13 0 24 -10zM1018 370q-5 -10 -18 -23q8 1 13 3q3 8 5 20zM985 408q0 27 -3 40h-15q-17 -11 -42 -30 q-18 -20 -31 -42q25 0 79 -1h10q2 8 2 33zM904 432q-26 -11 -45 -26q-14 -18 -21 -40l16 16l8 -1q19 28 42 51zM857 439q-12 -7 -20.5 -15.5t-13.5 -19.5q15 18 34 35zM834 329q-1 3 -2 7v-13zM795 408q-12 -11 -21 -24q1 -20 8 -45q0 41 13 69zM584 242q-8 -8 -24 -23 q-71 -54 -187 -54q-147 0 -188 98q-40 35 -40 72q0 42 76 118q69 69 131 82l16 16q22 0 40 -10q18 0 61 -4l-26 -26l5 -5q32 -4 54 -26q49 -50 51 -103q47 -53 47 -95q0 -23 -16 -40zM388 500h-1q-12 0 -23 -1q9 0 17 -1zM445 432q-6 11 -13 22l-2 -2q-7 0 -47 8l-10 -10 h-26q43 -6 80 -16l2 2zM543 315q-3 4 -6 9q-9 -15 -25 -34q11 8 31 25zM556 251q8 16 -1 41q-34 -26 -67 -52q-37 -27 -77 -35q89 7 145 46zM442 291q-12 -4 -36 -14q22 7 36 14zM470 341q5 12 -3 41q-7 2 -38 9l-2 -2l-48 12q-30 5 -98 13q-44 -37 -46 -81q6 -31 22 -55 l6 -6q18 -4 36 -4q37 0 63 18q12 9 37 24q24 9 71 31zM246 415l-3 -1l-1 -3z" />
<glyph unicode="&#x2c6;" horiz-adv-x="550" d="M557 643l-74 -74q-15 0 -29 5l-25 -24q-6 27 -24 55l-4 3q-29 35 -88 103l-5 -8q32 -42 93 -134l-18 -18q-31 44 -91 130q-16 -22 -42 -48l-17 -18q-9 -9 -29 -28t-30 -29l17 17l-3 3q27 26 53 52q30 31 47 58q-9 14 -16 27q-11 -9 -30 -27l-56 -56q-28 -28 -72 -57 l54 54q-17 -13 -57 -43l91 91l15 11q17 31 28 42l13 13q-3 6 -5 13l19 19q2 -7 5 -13l39 39q18 18 38 6l38 38q0 -48 31 -96q29 -39 57 -78q33 -28 77 -28zM307 718h-1q-7 8 -14 12q5 -8 10 -17z" />
<glyph unicode="&#x2000;" horiz-adv-x="595" />
<glyph unicode="&#x2001;" horiz-adv-x="1190" />
<glyph unicode="&#x2002;" horiz-adv-x="595" />
<glyph unicode="&#x2003;" horiz-adv-x="1190" />
<glyph unicode="&#x2004;" horiz-adv-x="396" />
<glyph unicode="&#x2005;" horiz-adv-x="297" />
<glyph unicode="&#x2006;" horiz-adv-x="198" />
<glyph unicode="&#x2007;" horiz-adv-x="198" />
<glyph unicode="&#x2008;" horiz-adv-x="148" />
<glyph unicode="&#x2009;" horiz-adv-x="238" />
<glyph unicode="&#x200a;" horiz-adv-x="66" />
<glyph unicode="&#x2010;" horiz-adv-x="613" d="M657 363l-74 -74q-198 0 -351 4q-75 -14 -132 -36l23 24q21 8 43 14l-89 3l10 11h-3l74 74h15l34 35q32 0 104.5 -9.5t112.5 -9.5q18 0 35 1l-9 -9l184 1l-29 -29h52z" />
<glyph unicode="&#x2011;" horiz-adv-x="613" d="M657 363l-74 -74q-198 0 -351 4q-75 -14 -132 -36l23 24q21 8 43 14l-89 3l10 11h-3l74 74h15l34 35q32 0 104.5 -9.5t112.5 -9.5q18 0 35 1l-9 -9l184 1l-29 -29h52z" />
<glyph unicode="&#x2012;" horiz-adv-x="613" d="M657 363l-74 -74q-198 0 -351 4q-75 -14 -132 -36l23 24q21 8 43 14l-89 3l10 11h-3l74 74h15l34 35q32 0 104.5 -9.5t112.5 -9.5q18 0 35 1l-9 -9l184 1l-29 -29h52z" />
<glyph unicode="&#x2013;" d="M100 250v100h300v-100h-300z" />
<glyph unicode="&#x2014;" horiz-adv-x="1000" d="M100 250v100h800v-100h-800z" />
<glyph unicode="&#x2018;" horiz-adv-x="250" d="M250 700l-47 -47q16 -8 32 -13l-19 -19q-16 5 -32 13l-6 -6q-18 8 -35 17l-59 -59q-7 46 -46 118q-20 11 -40 21l20 19l-4 8l72 72q9 -22 24 -48q39 -25 140 -76z" />
<glyph unicode="&#x2019;" horiz-adv-x="220" d="M235 761q-12 -50 -32 -89q2 -8 2 -16l-17 -17q-8 -30 -18 -50q1 -41 1 -68l-21 -21q0 24 -1 60l42 -108q-10 -1 -19 -2q-21 1 -22 0l30 -2l-97 52q16 20 28 59q-9 -8 -19 -16l-3 3l18 17l7 6q9 46 29 123l4 4v25q-12 12 -39 29l19 18q21 -14 34 -26l7 6v-12l2 -2 q3 -3 7 -8l43 43q-7 -21 -16 -63q5 16 9 33z" />
<glyph unicode="&#x201c;" horiz-adv-x="377" d="M404 761q0 -24 -6 -44q-1 -111 -18 -216q-9 -55 -9 -67l-20 -20q0 13 3 38l-54 -55q8 44 12 71l-24 -24q3 19 6 44l-35 -36q19 69 50 203l15 15v11l6 6q-3 19 -5 38l20 19q2 -18 5 -37zM238 463l-20 -19q-5 37 -18 74q-5 -20 -10 -37l-77 -76q13 39 20 89l-17 -18 q0 38 6 93t6 89l4 4q-4 9 -8 14q-8 7 -29 9l19 20q27 -3 37 -25l51 52q0 -13 -1 -26l15 15q0 -96 -8 -158q24 -51 30 -100z" />
<glyph unicode="&#x201d;" horiz-adv-x="377" d="M404 761q0 -24 -6 -44q-1 -111 -18 -216q-9 -55 -9 -67l-20 -20q0 13 3 38l-54 -55q8 44 12 71l-24 -24q3 19 6 44l-35 -36q19 69 50 203l15 15v11l6 6q-3 19 -5 38l20 19q2 -18 5 -37zM238 463l-20 -19q-5 37 -18 74q-5 -20 -10 -37l-77 -76q13 39 20 89l-17 -18 q0 38 6 93t6 89l4 4q-4 9 -8 14q-8 7 -29 9l19 20q27 -3 37 -25l51 52q0 -13 -1 -26l15 15q0 -96 -8 -158q24 -51 30 -100z" />
<glyph unicode="&#x2026;" horiz-adv-x="900" d="M922 175q-27 -44 -56 -73l-7 -8q-5 -14 -15 -24l-71 -71q-15 -15 -35 -15t-38 16q-30 -1 -49 18q-25 25 -25 62q0 45 33 78l17 18q14 14 40 14q8 0 51 -6l-2 -3q14 0 47 2l-21 -21q29 4 47 -3q19 4 19 -2q0 -2 -5 -8q16 -16 9 -46q17 18 32 43zM789 60q-1 11 -8 18 t-20 10h-1q5 -19 29 -28zM736 109l-6 -1l2 -4zM733 166q-46 7 -64 -5q-24 -31 -24 -67q0 -20 8 -36q-2 26 13 42zM622 175q-27 -44 -56 -73l-7 -8q-5 -14 -15 -24l-71 -71q-15 -15 -35 -15t-38 16q-30 -1 -49 18q-25 25 -25 62q0 45 33 78l17 18q14 14 40 14q8 0 51 -6 l-2 -3q14 0 47 2l-21 -21q29 4 47 -3q19 4 19 -2q0 -2 -5 -8q16 -16 9 -46q17 18 32 43zM489 60q-1 11 -8 18t-20 10h-1q5 -19 29 -28zM436 109l-6 -1l2 -4zM433 166q-46 7 -64 -5q-24 -31 -24 -67q0 -20 8 -36q-2 26 13 42zM322 175q-27 -44 -56 -73l-7 -8q-5 -14 -15 -24 l-71 -71q-15 -15 -35 -15t-38 16q-30 -1 -49 18q-25 25 -25 62q0 45 33 78l17 18q14 14 40 14q8 0 51 -6l-2 -3q14 0 47 2l-21 -21q29 4 47 -3q19 4 19 -2q0 -2 -5 -8q16 -16 9 -46q17 18 32 43zM189 60q-1 11 -8 18t-20 10h-1q5 -19 29 -28zM136 109l-6 -1l2 -4zM133 166 q-46 7 -64 -5q-24 -31 -24 -67q0 -20 8 -36q-2 26 13 42z" />
<glyph unicode="&#x202f;" horiz-adv-x="238" />
<glyph unicode="&#x2039;" d="M290 508q-19 -7 -31 -12q-23 -23 -44 -42q21 7 39 23t36 31zM463 535q-28 -4 -50 -23q-17 -23 -54 -67l-17 -17q-20 -20 -61 -53l76 -58q43 -34 71 -65q20 -11 30 -18l-7 -8l16 -22l-71 -71l-14 18l-21 -21q-42 42 -135 106t-134 105q-10 11 -19 20l57 57q3 3 5 6l71 71 l59 41q21 14 54 29l56 56q14 14 41 26l-70 -70q61 26 67 28q39 18 67 36l-9 -9q33 19 65 31l-77 -77q-49 -19 -113 -63q-53 -37 -106 -75q-11 -7 -23 -17q25 -25 58 -51q25 19 71 58q17 24 55 69l18 18q25 26 65 31z" />
<glyph unicode="&#x203a;" horiz-adv-x="549" d="M436 298l5 2q17 15 35 32l-4 3q-8 -10 -16 -18zM416 290l-3 -2l2 1zM306 256q86 31 128 60l15 20q-49 -25 -143 -80zM261 241l6 6l21 21q-13 -8 -26 -15q-35 -18 -99 -60q35 25 98 48zM401 666q22 -34 65 -111q5 -10 29 -69q53 -45 87 -45l-37 -36q22 -17 43 -33l-71 -71 q-28 -5 -55 -9q-27 -7 -46 -26q-91 -91 -213 -150l-3 3l71 71q54 24 119 74q-18 -5 -53 -15q-22 -8 -67 -24q-20 -10 -37 -24h-1q-24 -20 -49 -45l47 47v1q5 5 10 11q-70 -25 -110 -55q9 17 18 26l18 18q18 18 110 69q51 31 154 93q-120 87 -230 156l18 19q-15 8 -27 15 l71 72q8 -5 18 -11l28 29q41 -16 76 -46q17 -14 63 -62l-1 3q-20 33 -63 107z" />
<glyph unicode="&#x205f;" horiz-adv-x="297" />
<glyph unicode="&#x2122;" horiz-adv-x="1269" d="M1315 733q-18 -53 -51 -111q4 -18 6 -39q3 -51 9 -168q2 -34 13 -156q8 -85 8 -156l-17 -17l-3 3q-24 24 -35 70l-4 -3q-2 15 -4 34l-63 -63v24l-37 -36q3 9 5 20l-7 -7q-3 39 -3 76q0 80 17 206q-66 -138 -85 -157l-22 -21q13 63 69 173q-71 -87 -71 -110l-17 -17l-3 3 q7 22 16 43l-7 -7l-13 11l-9 -9l-22 -22l1 5l-45 -45l-2 2l-1 -1v2q-19 19 -32 36q-6 -3 -15 -4q0 10 -1 19q-7 3 -12 8l-5 -5l-3 3q-19 22 -52 59q-9 -52 -33 -170q-3 -110 -3 -148l-18 -18q-15 21 -20 57l-4 60l-31 -31l1 5l-14 -14q-25 201 -25 302q0 68 4 138l-48 72 l17 17l37 -24q8 37 17 56l29 29l-4 38l20 19q2 -18 4 -37l23 22q19 -31 38 -73q14 -15 37 -39q30 79 61 122l73 72q14 -59 15.5 -122t2.5 -127q4 -54 11 -165q32 86 36 96q24 54 55 85l71 71l8 8v15l19 18l1 -4q2 -3 4 -9l12 10l39 39q3 -22 3 -48q3 7 6 15l22 22 q-5 -26 -12 -49l20 24zM1286 693q-11 -13 -18 -22l-8 -26l1 -7q15 28 25 55zM1179 663v1l-12 -12q-9 -9 -21 -19q-14 -20 -26 -48q7 8 21 23q17 30 30 47zM1257 453q-1 35 -7 116l-2 10v-6v-51q5 -36 9 -69zM1170 591q-14 -25 -27 -48l-2 -8q18 27 28 54zM1132 591 q-11 -12 -20 -25l-2 -4q6 7 15 17q3 6 7 12zM1167 559q-15 -24 -34 -48q-13 -35 -35 -72q1 0 67 95q1 13 2 25zM1105 477l-1 -2q-7 -14 -12 -26q7 14 13 28zM1159 500q-33 -56 -70 -95q-13 -24 -24 -48q21 29 59 73q12 23 35 70zM922 551q1 50 -5 150l-3 -9q-12 -26 -35 -84 l-2 -4q24 -26 45 -53zM1279 134q-1 50 -12 165v-46q0 -52 -4 -69q6 -30 16 -50zM1157 461l-10 -13l-2 -3q-17 -32 -25 -48q-25 -51 -29 -59q-13 -29 -21 -58q10 18 69 136q7 14 16 31zM1077 405l-10 -14l3 2q3 6 7 12zM926 471q-2 21 -3 37q-25 35 -55 69l-4 -13l20 -36z M1062 378l-10 -8q-7 -9 -14 -17l5 -12q9 19 19 37zM789 490l-1 1q-6 10 -13 25l6 -54zM849 380q-4 10 -11 31l-9 16l-5 -21l9 -9q5 -5 16 -17zM764 181l-4 -4q1 -16 3 -51zM673 604l-25 -26q-33 -16 -83 -30l-4 -4l-14 -6q49 -11 93 -11l-74 -74q-81 0 -215 53l-8 -1l-1 -4 q5 -23 14 -77q15 -95 20 -178q8 -22 10 -42l-7 -7v-10q1 -30 1 -83v0v-1v0v0v-4l-20 -20v0v1v0v0v0v0v1v0v0v0v1v0v0v0v0v1v0v0v0v0v1v0v0v0v1v0v0v0v0v1v0v0v0q0 47 -2 91l-45 -46q-2 17 -7 36l-7 -7v1q-7 -32 -19 -60l-78 -78q21 48 29 104l-18 -18q8 37 19 117q3 33 5 68 q-3 54 -2 192l-1 6q-83 -4 -135 18l6 7q-19 -7 -34 -11l46 46h-86l20 20h-21l74 74q27 0 57 -1l26 26q21 -2 41 -10l-4 36l17 17l3 -3l8 -60q3 -2 22 -12h1q3 8 7 20l11 11v6l20 20l4 -51l6 6q6 -9 11 -16q52 -4 110 -10q10 -1 59 -1q33 1 60 -9l-21 -21h9l-25 -25 q12 -2 38 -4q65 17 109 39zM232 512l-1 6q-29 3 -89 10q-6 -1 -13 -3q42 -14 103 -13zM380 108q0 44 -1 79q1 -37 1 -79zM360 86q0 52 -2 91q2 -42 2 -91z" />
<glyph unicode="&#xe000;" horiz-adv-x="625" d="M0 625h625v-625h-625v625z" />
<glyph unicode="&#xfb01;" horiz-adv-x="1026" d="M1058 678l-65 -65l-9 -5q6 -16 6 -37q0 -49 -26 -75l-16 -16q-14 -45 -25 -77l38 38l-16 -77q5 -23 14 -110q7 -68 24 -107l-24 -24q-22 55 -32 149q-16 -100 -16 -185l-40 -40v22l-14 -14q0 15 -3 131q-2 65 3 108q1 78 -7 126l37 37q4 -21 6 -37q2 7 5 16l33 32 q-19 -7 -39 10l-10 2q-50 -4 -66 20q-6 8 -6 23q0 26 13 57q5 33 41 69q16 16 39 16q27 0 45 -22q6 0 11 -3q4 0 36 3q12 8 63 35zM914 524q0 8 -2 18l-5 -10q2 -3 5 -9zM883 593q-9 -4 -17 -9l-4 -8q0 -6 1 -15l-5 -5q1 -6 3 -11q1 25 22 48zM632 398l-40 -40q-46 0 -86 -3 h9l-15 -15h20l-40 -40q-31 0 -63 2l-17 -18q-10 4 -21 7l-14 -14q-15 6 -27 10q-2 -11 -4 -29q4 -53 23 -146q3 -15 11 -28l-34 -34q-7 15 -12 26l-35 -35q0 28 -1 47q-11 -12 -95 -60l72 72q2 1 3 2q10 14 15 42q-12 70 -10 150q-16 -5 -71 -23l26 26h-46l18 18h-26l61 61 q20 -3 36 -6q0 17 2 34q-1 66 23 128q31 82 88 82q16 0 45 -10q8 1 41 1l-40 -40h-10l-8 -9q15 -3 32 -5l-38 -38q-5 1 -11 2l-19 -19q-15 -5 -33 -23q-11 -34 -11 -65v-7q8 -16 10 -44q108 41 292 41zM370 573q-13 1 -25 -8q-5 -6 -9 -13q14 13 33 19zM363 521h-1l-1 -1z " />
<glyph unicode="&#xfb02;" horiz-adv-x="1023" d="M1054 679q-19 -71 -50 -187q-7 -24 -20 -74q-2 -122 -6 -183q-1 -18 -12 -53t-12 -53q7 -2 19 -9l-27 -27l-10 -1q1 -1 3 -2q-15 -4 -21 2t-4 27q-45 3 -49 45l-1 -3l-62 -62q60 117 84 185q29 267 29 356l40 40v-46l40 40q-6 -68 -8 -130q7 30 23 91zM939 246l-2 -10 q-9 -33 -4 -43q4 18 6 53zM632 398l-40 -40q-46 0 -86 -3h9l-15 -15h20l-40 -40q-31 0 -63 2l-17 -18q-10 4 -21 7l-14 -14q-15 6 -27 10q-2 -11 -4 -29q4 -53 23 -146q3 -15 11 -28l-34 -34q-7 15 -12 26l-35 -35q0 28 -1 47q-11 -12 -95 -60l72 72q2 1 3 2q10 14 15 42 q-12 70 -10 150q-16 -5 -71 -23l26 26h-46l18 18h-26l61 61q20 -3 36 -6q0 17 2 34q-1 66 23 128q31 82 88 82q16 0 45 -10q8 1 41 1l-40 -40h-10l-8 -9q15 -3 32 -5l-38 -38q-5 1 -11 2l-19 -19q-15 -5 -33 -23q-11 -34 -11 -65v-7q8 -16 10 -44q108 41 292 41zM370 573 q-13 1 -25 -8q-5 -6 -9 -13q14 13 33 19zM363 521h-1l-1 -1z" />
<glyph unicode="&#xfb03;" horiz-adv-x="1616" d="M1648 678l-65 -65l-9 -5q6 -16 6 -37q0 -49 -26 -75l-16 -16q-14 -45 -25 -77l38 38l-16 -77q5 -23 14 -110q7 -68 24 -107l-24 -24q-22 55 -32 149q-16 -100 -16 -185l-40 -40v22l-14 -14q0 15 -3 131q-2 65 3 108q1 78 -7 126l37 37q4 -21 6 -37q2 7 5 16l33 32 q-19 -7 -39 10l-10 2q-50 -4 -66 20q-6 8 -6 23q0 26 13 57q5 33 41 69q16 16 39 16q27 0 45 -22q6 0 11 -3q4 0 36 3q12 8 63 35zM1504 524q0 8 -2 18l-5 -10q2 -3 5 -9zM1473 593q-9 -4 -17 -9l-4 -8q0 -6 1 -15l-5 -5q1 -6 3 -11q1 25 22 48zM1222 398l-40 -40 q-46 0 -86 -3h9l-15 -15h20l-40 -40q-31 0 -63 2l-17 -18q-10 4 -21 7l-14 -14q-15 6 -27 10q-2 -11 -4 -29q4 -53 23 -146q3 -15 11 -28l-34 -34q-7 15 -12 26l-35 -35q0 28 -1 47q-11 -12 -95 -60l72 72q2 1 3 2q10 14 15 42q-12 70 -10 150q-16 -5 -71 -23l26 26h-46 l18 18h-26l61 61q20 -3 36 -6q0 17 2 34q-1 66 23 128q31 82 88 82q16 0 45 -10q8 1 41 1l-40 -40h-10l-8 -9q15 -3 32 -5l-38 -38q-5 1 -11 2l-19 -19q-15 -5 -33 -23q-11 -34 -11 -65v-7q8 -16 10 -44q108 41 292 41zM960 573q-13 1 -25 -8q-5 -6 -9 -13q14 13 33 19z M953 521h-1l-1 -1zM632 398l-40 -40q-46 0 -86 -3h9l-15 -15h20l-40 -40q-31 0 -63 2l-17 -18q-10 4 -21 7l-14 -14q-15 6 -27 10q-2 -11 -4 -29q4 -53 23 -146q3 -15 11 -28l-34 -34q-7 15 -12 26l-35 -35q0 28 -1 47q-11 -12 -95 -60l72 72q2 1 3 2q10 14 15 42 q-12 70 -10 150q-16 -5 -71 -23l26 26h-46l18 18h-26l61 61q20 -3 36 -6q0 17 2 34q-1 66 23 128q31 82 88 82q16 0 45 -10q8 1 41 1l-40 -40h-10l-8 -9q15 -3 32 -5l-38 -38q-5 1 -11 2l-19 -19q-15 -5 -33 -23q-11 -34 -11 -65v-7q8 -16 10 -44q108 41 292 41zM370 573 q-13 1 -25 -8q-5 -6 -9 -13q14 13 33 19zM363 521h-1l-1 -1z" />
<glyph unicode="&#xfb04;" horiz-adv-x="1613" d="M1644 679q-19 -71 -50 -187q-7 -24 -20 -74q-2 -122 -6 -183q-1 -18 -12 -53t-12 -53q7 -2 19 -9l-27 -27l-10 -1q1 -1 3 -2q-15 -4 -21 2t-4 27q-45 3 -49 45l-1 -3l-62 -62q60 117 84 185q29 267 29 356l40 40v-46l40 40q-6 -68 -8 -130q7 30 23 91zM1529 246l-2 -10 q-9 -33 -4 -43q4 18 6 53zM1222 398l-40 -40q-46 0 -86 -3h9l-15 -15h20l-40 -40q-31 0 -63 2l-17 -18q-10 4 -21 7l-14 -14q-15 6 -27 10q-2 -11 -4 -29q4 -53 23 -146q3 -15 11 -28l-34 -34q-7 15 -12 26l-35 -35q0 28 -1 47q-11 -12 -95 -60l72 72q2 1 3 2q10 14 15 42 q-12 70 -10 150q-16 -5 -71 -23l26 26h-46l18 18h-26l61 61q20 -3 36 -6q0 17 2 34q-1 66 23 128q31 82 88 82q16 0 45 -10q8 1 41 1l-40 -40h-10l-8 -9q15 -3 32 -5l-38 -38q-5 1 -11 2l-19 -19q-15 -5 -33 -23q-11 -34 -11 -65v-7q8 -16 10 -44q108 41 292 41zM960 573 q-13 1 -25 -8q-5 -6 -9 -13q14 13 33 19zM953 521h-1l-1 -1zM632 398l-40 -40q-46 0 -86 -3h9l-15 -15h20l-40 -40q-31 0 -63 2l-17 -18q-10 4 -21 7l-14 -14q-15 6 -27 10q-2 -11 -4 -29q4 -53 23 -146q3 -15 11 -28l-34 -34q-7 15 -12 26l-35 -35q0 28 -1 47 q-11 -12 -95 -60l72 72q2 1 3 2q10 14 15 42q-12 70 -10 150q-16 -5 -71 -23l26 26h-46l18 18h-26l61 61q20 -3 36 -6q0 17 2 34q-1 66 23 128q31 82 88 82q16 0 45 -10q8 1 41 1l-40 -40h-10l-8 -9q15 -3 32 -5l-38 -38q-5 1 -11 2l-19 -19q-15 -5 -33 -23q-11 -34 -11 -65 v-7q8 -16 10 -44q108 41 292 41zM370 573q-13 1 -25 -8q-5 -6 -9 -13q14 13 33 19zM363 521h-1l-1 -1z" />
</font>
</defs>
</svg>
