<?xml version="1.0" standalone="no"?>
<!DOCTYPE svg PUBLIC "-//W3C//DTD SVG 1.1//EN" "http://www.w3.org/Graphics/SVG/1.1/DTD/svg11.dtd" >
<svg xmlns="http://www.w3.org/2000/svg">
<metadata>
This is a custom SVG webfont generated by Font Squirrel.
Copyright   : PlainGermanica C Copyright PJL 02
</metadata>
<defs>
<font id="PlainGermanicaRegular" horiz-adv-x="1054" >
<font-face units-per-em="2048" ascent="1638" descent="-410" />
<missing-glyph horiz-adv-x="1140" />
<glyph unicode=" "  horiz-adv-x="1140" />
<glyph unicode="&#x09;" horiz-adv-x="1140" />
<glyph unicode="&#xa0;" horiz-adv-x="1140" />
<glyph unicode="!" horiz-adv-x="608" d="M31 618q0 -88 49 -154.5t119 -115.5h37l34 35q27 27 65 53.5t72.5 51t59.5 45t25 34.5v17q-23 0 -43.5 -16.5t-42.5 -16.5q-23 0 -41.5 24.5t-32 56.5t-21.5 63.5t-10 45.5v498q0 63 -1 134t6 131.5t28.5 100.5t64.5 40q12 0 7 -12.5t-14 -31t-19.5 -40t-10.5 -41.5 q0 -49 29 -78t80 -29q57 0 82 31t25 82q0 78 -66 123t-143 45q-53 0 -112.5 -20.5t-110 -57.5t-83 -88t-32.5 -115v-795zM72 158q0 -61 36.5 -97t96.5 -36q57 0 90 43t33 96q0 57 -31 95t-92 38q-70 0 -101.5 -39t-31.5 -100z" />
<glyph unicode="&#x22;" horiz-adv-x="573" d="M31 1683q0 -18 4 -47.5t8 -58.5t8 -49.5t4 -22.5l11 -6l14 -2q14 -2 33.5 -3t41 -3t33.5 -2h7q8 0 15 30.5t13 70.5t9.5 79t3.5 55h-205v-41zM338 1688q0 -18 4 -48t8 -59t8 -49.5t4 -22.5l11 -6l14 -2q14 -2 33.5 -3t41 -3t34.5 -2h6q8 0 15 30.5t13.5 70.5t9.5 79t3 56 h-205v-41z" />
<glyph unicode="'" horiz-adv-x="266" d="M31 1683q0 -18 4 -47.5t8 -58.5t8 -49.5t4 -22.5l11 -6l14 -2q14 -2 33.5 -3t41 -3t33.5 -2h7q8 0 15 30.5t13 70.5t9.5 79t3.5 55h-205v-41z" />
<glyph unicode="," horiz-adv-x="317" d="M31 164q0 -37 12 -58.5t25.5 -36t25.5 -25.5t12 -30v-14q0 -8 -18 -38t-22 -34q2 -25 24.5 -53.5t46.5 -28.5h21q66 57 97.5 140.5t31.5 171.5q0 61 -32 102t-97 41q-66 0 -96.5 -38t-30.5 -99z" />
<glyph unicode="-" d="M31 614h833q27 27 36 60t36 67q12 20 50 52t38 67h-829q-14 0 -22.5 -14.5t-13.5 -33.5t-8.5 -36.5t-7.5 -23.5q-20 -31 -65 -68t-47 -70z" />
<glyph unicode="." horiz-adv-x="317" d="M31 158q0 -61 35.5 -97t97.5 -36q57 0 90 43t33 96q0 57 -34 95t-95 38q-66 0 -96.5 -39t-30.5 -100z" />
<glyph unicode="0" horiz-adv-x="983" d="M31 823q0 -59 10 -143t32.5 -175t57.5 -181.5t85 -162t115.5 -116.5t149.5 -45q104 0 186.5 64.5t140.5 159.5t92 204t46 197q0 4 1 28.5t2 55.5l2 61q1 31 1 49v96q0 82 -12 179.5t-40 194.5t-75 183.5t-118 145.5q-45 37 -90.5 61.5t-110.5 24.5q-113 0 -195 -68.5 t-137 -170t-87 -214t-46 -202.5q-8 -47 -9 -113t-1 -113zM338 737v742q0 61 39 120.5t104 59.5q68 0 100.5 -44t36.5 -110q20 -268 21 -533v-532v-16q0 -20 -2 -57t-3 -74t-3 -65.5t-2 -32.5q-4 -51 -34 -105.5t-93 -54.5q-74 -2 -109 56.5t-45 123.5q-2 29 -4 102.5 t-3 156.5t-2 157.5t-1 105.5z" />
<glyph unicode="1" horiz-adv-x="593" d="M31 1212l92 68h10q35 0 35 -48v-91q0 -51 1 -122t2 -143.5t2 -142t1 -121.5v-80v-471q-4 -10 -17.5 -15t-26.5 -9t-23.5 -9t-10.5 -18q43 -8 68.5 -9t64.5 -1q86 0 166 2t168 12v21l-78 16l-14 15q-4 88 -7 208.5t-4 259t-2 288t-1 292.5v189q0 90 -2 172q0 12 -1 38.5 t-2 55t-3.5 55.5t-4.5 39h-4q-6 0 -21.5 -17.5t-30.5 -40t-29.5 -43t-20.5 -26.5q-61 -76 -131 -133t-135 -123l-41 -41v-27z" />
<glyph unicode="2" horiz-adv-x="987" d="M31 1311q0 -113 61.5 -177.5t173.5 -64.5q63 0 105.5 54.5t42.5 109.5q0 61 -38 107t-100 46q-61 0 -92.5 -28.5t-46 -63t-18.5 -64.5t-13 -32q-31 23 -41 48.5t-10 64.5q0 70 29 125t76 93t107.5 58.5t125.5 20.5h58q10 -20 29.5 -27.5t35.5 -24.5q74 -57 88 -140 t14 -167q0 -100 -28.5 -181t-74.5 -152.5t-106.5 -139t-121.5 -141.5q-102 -121 -168 -280.5t-68 -319.5q12 0 20.5 31.5t24 70.5t44 71t79.5 32q59 0 97 -37t77 -83t89 -83t132 -37q104 0 170 44t105 112.5t53 155.5t14 173h-20q-2 -25 -5 -59.5t-14.5 -67t-33 -55 t-60.5 -22.5q-51 0 -96 24.5t-89 55t-89 55t-98 24.5h-43q-27 -2 -48.5 -7t-58.5 -23q-16 -8 -35.5 -24.5t-40 -34t-38 -31t-29.5 -13.5q-10 0 -11 15q0 43 31 87t72 81.5t81 66.5t58 41q8 6 44 24.5t76 40t74.5 40t45.5 24.5q139 78 228 202t89 290q0 111 -40 195.5 t-109.5 141t-160.5 85t-196 28.5h-88q-4 0 -15 -5t-15 -5q-59 -25 -111.5 -56.5t-92.5 -73.5t-63.5 -95t-23.5 -123z" />
<glyph unicode="3" horiz-adv-x="1013" d="M31 348q0 -88 37.5 -153.5t99 -108.5t138.5 -64.5t155 -21.5q104 0 199.5 37t167 103.5t113.5 157.5t42 198q0 176 -85 284.5t-239 182.5l-10 10q2 -2 10.5 6t10.5 8q57 35 103 66.5t78 68.5t48 82t16 107q0 182 -153 270q-33 18 -76 39.5t-88 21.5h-209 q-55 0 -113.5 -30.5t-106.5 -78.5t-78 -105.5t-30 -112.5q0 -94 60.5 -155.5t154.5 -63.5q70 0 117 47t47 117q0 57 -26.5 102t-96.5 45q-66 0 -99.5 -27.5t-50.5 -59.5t-23.5 -59.5t-16.5 -27.5q-12 0 -18.5 11t-10.5 25.5t-5 29t-1 22.5q0 63 31 113.5t80 85t107.5 53 t113.5 18.5h57q51 -20 80 -56t44.5 -80t19.5 -93t4 -98q0 -127 -55.5 -189.5t-122 -95.5t-121 -51.5t-54.5 -57.5q0 -8 4.5 -17t16.5 -9q25 0 46.5 12t43 26.5t43 27t45.5 12.5q70 0 106.5 -51.5t51 -122t15.5 -142t1 -114.5q0 -78 -6 -155t-31.5 -138.5t-78 -99.5 t-144.5 -38q-57 0 -116.5 20.5t-107.5 58.5t-79 90.5t-31 117.5q0 8 1 25.5t4 35t10.5 30t21.5 12.5q8 0 16.5 -24t26 -53.5t48 -53t83.5 -23.5q61 0 104.5 39t43.5 104q0 72 -43 118t-121 46q-51 0 -92 -22.5t-69 -58.5t-43 -82t-15 -93z" />
<glyph unicode="4" horiz-adv-x="1097" d="M31 373q0 -12 12 -15h369q18 0 55 -3l37 -3l14 -20v-271l-14 -20h-103q-8 0 -9 -11.5t-1 -15.5q0 -8 2 -11t19 -3h168h90q63 0 127.5 2t111.5 5t39 7v6q-2 14 -21.5 19.5t-43 8.5t-45 8t-27.5 20v102q0 16 1 44t3 55.5t6 49t10 25.5l15 10h205l8 9q8 8 8 12v6 q0 31 -20.5 40t-49.5 9q-27 0 -56.5 -3t-55.5 -3q-31 0 -52.5 10.5t-21.5 42.5v90q0 76 -2 181.5t-3 208t-3 187.5t-2 122v379h-17l-194 -430q-12 -27 -42 -66t-30 -72v-604q0 -23 -5 -35t-26 -12h-362l-6 8q-6 8 -10 13v6q0 18 12 40.5t29.5 44t34 43t26.5 36.5 q96 162 162.5 317.5t113.5 331.5l26 97q15 58 30.5 113.5t25.5 94.5l11 39v72q-37 0 -66 -20.5t-50.5 -46.5t-37.5 -46.5t-25 -20.5q-8 0 -17 16.5t-16.5 39t-14.5 42t-13 25.5h-6q-10 0 -10 -20v-6q0 -51 21.5 -109.5t21.5 -99.5q0 -266 -81 -530.5t-243 -483.5 q-12 -26 -12 -57z" />
<glyph unicode="5" horiz-adv-x="966" d="M31 332q0 -74 34.5 -135.5t90 -105.5t125 -67.5t139.5 -23.5q127 0 223 52t161.5 137t98.5 195t33 224q0 88 -18.5 174t-60.5 161t-106.5 133.5t-156.5 90.5h-170q-33 0 -64.5 -18.5t-61.5 -41t-55.5 -40.5t-43.5 -18h-6q-4 0 -9 6v291q0 8 -4 46t-6 46v10q0 16 14 16 q10 0 29 -13t39 -30.5t39.5 -34t32.5 -24.5q49 -29 92 -40t96 -11q76 0 137.5 27.5t109.5 73.5t83 105.5t55 124.5v11l-16 6q-8 4 -23.5 -4t-32 -18.5t-32 -20.5t-25.5 -14q-66 -23 -118 -34.5t-117 -11.5q-88 0 -162 11.5t-156 40.5q-23 8 -52.5 26.5t-49.5 18.5t-21 -21 v-4q0 -4 4 -18.5t9.5 -29.5t11.5 -30.5t12 -23.5q25 -98 26 -196.5t1 -196.5q0 -43 -3 -86t-14 -84q-10 -37 -23.5 -59.5t-13.5 -59.5q0 -10 2.5 -17.5t14.5 -7.5q18 0 35.5 45t46 98.5t77 98.5t128.5 45q61 0 103 -31t69.5 -77t40 -101t12.5 -104v-195q0 -35 1 -70.5 t1 -76.5q0 -70 -7 -140.5t-34 -128t-77 -92.5t-136 -35q-59 0 -116.5 20.5t-103.5 57.5t-74 89t-28 116q0 10 1 28.5t6.5 37t13.5 33t24 14.5q10 0 19.5 -21.5t26 -48.5t43 -48.5t71.5 -21.5q66 0 101.5 48.5t35.5 105.5q0 70 -34.5 122t-112.5 52q-59 0 -102 -29.5t-71 -75 t-40 -99.5t-12 -103z" />
<glyph unicode="6" horiz-adv-x="966" d="M31 809q0 -113 16 -254t66.5 -264t141.5 -207t241 -84q121 0 204.5 55.5t136 143.5t76 194.5t23.5 210.5q0 78 -16.5 169t-55.5 170t-105.5 131t-164.5 52q-66 0 -120 -32.5t-95 -79.5h-6q-8 0 -13 8l-8 16v166q0 63 4 141t27 147t71 115t134 46q12 0 40.5 -6.5 t58.5 -16.5t52.5 -22.5t22.5 -26.5q0 -6 -26.5 -13t-57.5 -26.5t-57.5 -53.5t-26.5 -91q0 -66 41 -107t102 -41q78 0 113 57.5t35 120.5q0 66 -27 115t-71 82t-100 49.5t-114 16.5q-160 0 -264 -92.5t-166.5 -227.5t-87 -287.5t-24.5 -273.5zM352 281v553q0 37 14.5 77.5 t39 74.5t59.5 56.5t78 22.5q39 0 61.5 -33t31.5 -78t11 -92t2 -74v-6q0 -33 -1 -114.5t-1 -173.5t-1 -174t-1 -115q0 -61 -39 -112.5t-104 -51.5q-45 0 -74 23.5t-46 59.5t-23.5 78t-6.5 79z" />
<glyph unicode="7" horiz-adv-x="985" d="M31 1243h20q2 37 10.5 77t25.5 72.5t46 54t72 21.5q53 0 94 -27.5t81 -59t85 -59.5t108 -28q76 0 153 43t130 97q10 -6 10 -21v-16q0 -20 -11 -50t-27.5 -62t-34 -60.5t-29.5 -46.5q-63 -109 -140 -215.5t-142.5 -217t-109.5 -229.5t-44 -256q0 -39 8 -84t26.5 -84 t50 -65.5t79.5 -26.5q41 0 70.5 19.5t51 50t33.5 66.5t19 69q0 102 1 204.5t6 197.5t17 179t37 150q41 109 82 209t73.5 193.5t52 178.5t17.5 162h-20q-8 -25 -16.5 -53.5t-22.5 -53t-34.5 -40.5t-53.5 -16q-53 0 -100.5 28.5t-96.5 63t-104 63.5t-125 29q-88 0 -153.5 -43 t-108.5 -108.5t-64.5 -147.5t-21.5 -158z" />
<glyph unicode="8" horiz-adv-x="983" d="M31 440q0 -92 35.5 -172t97 -140t144.5 -94t177 -34q127 0 216.5 46t144.5 125t80.5 181.5t25.5 214.5q0 61 -18.5 127t-48.5 119q-4 6 -27.5 32.5t-50.5 56.5t-48.5 54.5t-21.5 26.5q76 78 125 154.5t49 187.5q0 80 -29.5 145.5t-79.5 114.5t-118 81t-141 44h-31 q-221 2 -345 -135t-122 -363v-102q20 -86 67.5 -165t112.5 -132v-10q-82 -82 -137 -162t-57 -201zM123 1362q0 70 30.5 127t81 97t115 61.5t131.5 21.5h56q29 -23 63.5 -26t65.5 -25q78 -61 105.5 -146.5t27.5 -181.5q0 -23 -6.5 -68.5t-20.5 -91t-36.5 -79t-55.5 -33.5 q-51 0 -102.5 12t-85.5 39q-14 12 -38 19.5t-48.5 12.5t-47 9t-36.5 10q-72 33 -135.5 93.5t-63.5 148.5zM168 440q0 25 4 80t17.5 110.5t37 98.5t64.5 43q4 0 10 -2t10 -2q74 -31 160 -53.5t164 -56t137 -89t78 -149.5v-68q-2 -139 -98.5 -225t-235.5 -86q-80 0 -144.5 34 t-109.5 90t-69.5 127.5t-24.5 147.5z" />
<glyph unicode="9" horiz-adv-x="972" d="M31 1085q0 -76 16 -167t56 -169.5t105.5 -132t164.5 -53.5q66 0 120 33t101 80h10l7 -9q7 -9 7 -12v-198q0 -66 -5 -138.5t-27.5 -134t-68.5 -102.5t-128 -41q-47 0 -99 14.5t-81 57.5q2 6 28.5 12t58.5 22.5t57.5 49t25.5 90.5q0 70 -37 108.5t-106 38.5q-78 0 -116 -54 t-38 -124q0 -59 26.5 -107.5t70.5 -81t99.5 -50t110.5 -17.5q170 0 277.5 95t169 236.5t84 302.5t22.5 292q0 111 -20.5 246t-72.5 251.5t-144.5 196.5t-233.5 80q-123 0 -207 -58.5t-136 -147.5t-74.5 -198t-22.5 -211zM319.5 1374.5q-2.5 65.5 9 127t43 104.5t99.5 43 q43 0 71.5 -21.5t46 -55.5t23.5 -75t6 -80v-563q0 -31 -13 -71t-35.5 -74.5t-53.5 -59t-65 -24.5q-63 0 -87 44t-36 89q0 27 -1 92t-2 139t-2 139.5t-1 90.5v45q0 45 -2.5 110.5z" />
<glyph unicode=":" horiz-adv-x="317" d="M31 174q0 -61 35.5 -97t97.5 -36q57 0 90 42t33 95q0 59 -34 96t-95 37q-66 0 -96.5 -38t-30.5 -99zM31 700q0 -57 35.5 -95t97.5 -38q57 0 90 43t33 97q0 61 -34 99t-95 38q-66 0 -96.5 -41.5t-30.5 -102.5z" />
<glyph unicode=";" horiz-adv-x="317" d="M31 184q0 -37 12 -58.5t25.5 -35.5t25.5 -25.5t12 -29.5v-15q0 -8 -18 -37.5t-22 -33.5q2 -25 24.5 -53.5t46.5 -28.5h21q66 57 97.5 140t31.5 171q0 61 -32 102.5t-97 41.5q-66 0 -96.5 -38.5t-30.5 -99.5zM31 696q0 -59 35.5 -96t97.5 -37q57 0 90 42t33 95 q0 59 -34 96.5t-95 37.5q-66 0 -96.5 -38.5t-30.5 -99.5z" />
<glyph unicode="?" horiz-adv-x="843" d="M31 1366q0 -117 61.5 -178.5t173.5 -61.5q63 0 105.5 52.5t42.5 111.5q0 61 -39 104.5t-105 43.5q-59 0 -88.5 -28t-44 -61.5t-18.5 -63.5t-13 -32q-31 23 -41 48.5t-10 64.5q0 61 24.5 114.5t65.5 94.5t94.5 64.5t112.5 23.5q41 0 80 -6t68.5 -23.5t48 -46t18.5 -71.5 q0 -47 -11 -106.5t-31.5 -118t-49.5 -112t-61 -89.5q-51 -55 -107.5 -113.5t-104.5 -123.5t-79 -136.5t-31 -153.5q0 -43 14.5 -67.5t38 -37t55 -15.5t66.5 -3h82q16 0 49 9.5t33 11.5v24q-23 0 -49.5 -5t-48.5 -5q-23 0 -39.5 12.5t-32.5 28.5v47q0 84 53.5 152.5t123 124 t137 98.5t96.5 76q66 51 104.5 138t38.5 183v51q0 70 -16.5 134.5t-51 115t-92 80t-137.5 29.5q-82 0 -168 -24.5t-156.5 -73t-115.5 -119t-45 -162.5zM137 174q0 -61 39 -97t100 -36q57 0 90 42t33 95q0 59 -33.5 99t-95.5 40q-66 0 -99.5 -41t-33.5 -102z" />
<glyph unicode="A" horiz-adv-x="1894" d="M31 -16q0 -98 47 -168t119.5 -114t160.5 -65.5t168 -21.5q147 0 274.5 50t213.5 181q23 35 39 66t16 72h-14q-41 -84 -94.5 -135.5t-118 -78t-141 -34.5t-164.5 -8q-39 0 -90.5 2t-103.5 10t-98 23.5t-77 41.5q-39 33 -70.5 70t-31.5 88q0 57 29.5 98t74.5 67t97 38 t95 12q70 0 137.5 -14t129.5 -41q12 -8 30.5 -29.5t36 -45t30.5 -41t15 -17.5h7q2 0 22.5 33.5t48.5 62.5q35 37 85 76t100 67q31 18 60.5 34t52 36t36.5 46t14 65v327q0 12 12.5 19.5t29 10.5t31.5 4t24 1q16 0 29.5 -4t17.5 -27q5 -75 5 -148v-25v-28q0 -70 4 -133 q5 -77 20.5 -141.5t56.5 -111.5q6 -6 22.5 -23.5t35 -36t33.5 -36t21 -23.5q0 -4 9 -7l8 -3h10q20 0 57 31.5t75 72.5t69.5 78t44.5 49q25 25 53.5 60.5t28.5 72.5q-18 0 -29.5 -15.5t-22 -33.5t-22.5 -33.5t-35 -15.5q-16 0 -36.5 16.5t-38 39t-30 47t-12.5 40.5l-16 764 q-2 68 -27.5 132.5t-68.5 118.5t-100.5 93t-120.5 55q-16 4 -53.5 11.5t-77 14.5t-75.5 12l-50 7h-267q-35 0 -62.5 6.5t-53.5 24.5q-16 12 -19.5 37t-21.5 25q-14 0 -22.5 -15.5t-12.5 -36t-5 -39t-1 -26.5q0 -53 21.5 -99t57 -83t79.5 -62.5t92 -38.5q16 -8 43.5 -7 t44.5 -17q-16 -20 -48 -39t-40 -23q-57 -39 -112.5 -94t-55.5 -127v-491q0 -35 -20.5 -53.5t-49.5 -29t-60.5 -14.5t-54.5 -10q-80 -23 -159.5 -60.5t-144 -92t-105.5 -127t-41 -166.5zM737 451q0 12 39 31.5t86 49t86 69.5t39 89v559q0 18 23.5 42t44.5 24q31 0 53 -9.5 t22 -43.5v-13q2 -35 4.5 -114.5t3.5 -173t2 -184.5t1 -152v-232q-2 -45 -49.5 -83t-87.5 -40q-14 0 -34 14.5t-41.5 34t-43 38t-35.5 26.5q-10 6 -51 26.5t-51 24.5l-7 10zM1167 1028v246q0 12 8.5 14t16.5 2q37 0 60.5 -18.5t35.5 -46t17.5 -60t5.5 -59.5q0 -29 -4 -71 t-2 -42l-11 -10h-112l-7 15q-8 16 -8 30z" />
<glyph unicode="B" horiz-adv-x="1894" d="M31 1577q0 -66 33.5 -121t86 -94t116 -60.5t122.5 -21.5h266q162 -23 226.5 -118t64.5 -257v-86q-25 -98 -84 -174t-172 -78q-49 0 -89 11.5t-75 50.5l11 10q37 0 75.5 11.5t71.5 33t53.5 54t20.5 75.5q0 90 -54.5 137t-140.5 47q-78 0 -126 -48t-48 -126 q0 -61 24.5 -114.5t67.5 -91t98.5 -59t116.5 -21.5q115 0 205 52t151.5 135t93.5 186.5t32 205.5q0 35 -5.5 69t-5.5 68q0 14 8.5 38t20.5 46.5t26.5 39t26.5 16.5h4q6 0 9.5 -22.5t5.5 -50.5t2 -54v-35v-234q-8 -18 -22.5 -35.5t-14.5 -39.5q0 -20 7 -31.5t30 -30.5 q0 -25 2 -90t4 -139t3 -139.5t1 -92.5v-333q0 -4 -8 -14.5t-12 -10.5q-33 0 -59.5 31.5t-54.5 80t-61.5 103.5t-80 103.5t-107.5 80t-145 31.5q-88 0 -178.5 -29.5t-163 -85t-118.5 -134.5t-46 -177q0 -113 62.5 -191.5t154.5 -128t199.5 -72t197.5 -22.5q70 0 140.5 16.5 t136 45t122 68.5t97.5 89v21h-10q-68 -39 -123.5 -78t-132.5 -59q-14 -4 -52.5 -7t-81.5 -5.5t-80.5 -3.5t-52.5 -1h-24q-68 0 -159 14.5t-173 50.5t-139.5 97.5t-57.5 155.5q0 104 68 183t174 79q39 0 74 -18.5t66.5 -44t60 -55t55.5 -52.5q90 -78 195.5 -102.5 t224.5 -24.5q113 0 232.5 33t218 99.5t162 164.5t63.5 229q0 100 -48.5 174t-125.5 134q-12 10 -39 24t-54.5 30.5t-49 29t-21.5 14.5q0 10 41 32.5t89 62.5t89 99.5t41 150.5q0 110 -65 191q-67 84 -144 154q-12 8 -28.5 34.5t-28.5 26.5q-25 0 -75 -43t-107.5 -100 t-112 -114.5t-84.5 -84.5l-11 11q-2 2 -12 17t-21.5 32.5t-21.5 33t-10 19.5q-20 31 -54 63.5t-73 59.5t-80 44t-76 17h-219q-4 0 -18.5 -3t-18.5 -3q-86 -27 -172 -61.5t-176 -34.5q-47 0 -76.5 18.5t-29.5 67.5q0 23 10 41t10 41q-23 0 -35 -15.5t-18 -36t-7 -42t-1 -33.5 zM1294 1274v16q0 31 5.5 67t25.5 36h10q37 0 77 -33t73 -78t54.5 -92t21.5 -74q0 -25 -11.5 -54.5t-31 -55t-46 -43t-55.5 -17.5h-10q-8 0 -38 8.5t-38 8.5q-12 12 -19 51t-10.5 86t-4.5 95t-3 79zM1305 66v794q0 10 11 16.5t24.5 11.5t26.5 9t19 8h7q43 0 68.5 -49 t40 -111.5t19.5 -122t5 -79.5v-37q0 -51 -4 -130t-22.5 -154t-55.5 -128t-103 -53q-12 0 -24 4.5t-12 20.5zM1335 997q20 0 21 21q-21 -1 -21 -21z" />
<glyph unicode="C" horiz-adv-x="1474" d="M31 823q0 -133 37.5 -244.5t99.5 -230.5v-6q0 -14 -22.5 -34.5t-28.5 -37.5q-35 -53 -48.5 -106t-13.5 -119q0 -100 48.5 -172t123 -118t165.5 -67.5t175 -21.5q143 0 274.5 55.5t223.5 165.5v21q-12 0 -33.5 -14.5t-46 -32t-48.5 -33.5t-36 -23q-78 -39 -163 -50 t-171 -11q-74 0 -159.5 17.5t-157.5 56.5t-120 101.5t-48 152.5q0 25 7 62.5t21.5 74.5t33 62.5t40.5 25.5h25q68 -59 129 -107.5t126.5 -81t141.5 -50t172 -17.5q154 0 294 56.5t249 172.5q18 25 52 64t34 76h-21q-27 -25 -59.5 -53.5t-68 -53t-74.5 -41t-78 -16.5 q-18 0 -27.5 83t-12.5 199q-2 88 -2 181v62q1 126 1 212v322q0 10 10 21t15 15q109 27 189.5 96.5t133.5 170.5q10 16 20.5 33.5t10.5 37.5q-25 0 -42.5 -20.5t-39 -46t-51 -46t-78.5 -20.5q-88 0 -150.5 37t-85.5 127h-14q-8 0 -15 -1t-16 -9q-70 -76 -150.5 -133.5 t-149 -120t-114.5 -141t-46 -199.5q0 -80 22.5 -142.5t59 -117.5t82.5 -107.5t92 -113.5q20 -27 32.5 -55.5t12.5 -63.5q0 -18 -6.5 -40t-34.5 -22h-11q-4 0 -17 3.5t-27.5 8.5t-27 9t-14.5 6q-33 7 -65 7q-8 0 -16 -1h-7q-36 0 -65 19q-45 31 -74 94t-46 137t-23.5 146.5 t-6.5 123.5q0 199 90 348.5t269 235.5q6 0 6 6q0 10 -17 10h-14q-63 0 -145 -36.5t-160 -90t-142.5 -114t-95.5 -107.5q-63 -98 -87.5 -204.5t-24.5 -221.5zM553 430q0 10 6 12t14 2q47 0 87 -30.5t71 -65.5h10q35 0 74 53.5t72 126t54.5 147.5t21.5 118q0 61 -21.5 115.5 t-54.5 104.5t-75 101t-81 109q-25 35 -43 66.5t-18 76.5q0 39 10 52.5t41 39.5h6q14 0 33.5 -11t41.5 -27l43 -30q22 -15 40 -24q8 -6 33.5 -11t52 -11.5t47 -15.5t20.5 -23v-1039q0 -12 -14 -26h-61q-115 0 -226.5 50t-183.5 140z" />
<glyph unicode="D" horiz-adv-x="1597" d="M31 1704q0 -92 33.5 -157.5t91 -108.5t134.5 -62.5t161 -19.5q66 0 127 10t122 10q20 0 21 -10q-84 -76 -151.5 -168t-67.5 -215q0 -61 25.5 -111.5t56 -98.5t56.5 -97t26 -109q0 -31 -4.5 -51t-20.5 -34.5t-49 -20.5t-90 -6q-80 -8 -155 -42t-131 -87.5t-90 -123 t-34 -151.5v-67q25 -86 83 -144.5t134 -95.5t161 -52.5t165 -15.5h102q147 31 255 101.5t200 191.5q8 8 9 15.5t1 15.5q-12 0 -28.5 -13.5t-33 -30.5t-29.5 -33.5t-21 -24.5q-100 -90 -218 -112t-243 -22h-47q-41 0 -90.5 2.5t-97.5 10.5t-92 24.5t-77 44.5q-41 35 -74.5 80 t-33.5 99q0 135 81 185t195 50q131 0 217 -39t172 -135q12 -10 19.5 -25.5t27.5 -15.5h15q74 98 176 159.5t209 123.5q156 90 247 249.5t91 344.5q0 158 -49.5 304t-141.5 257.5t-225 179.5t-301 68q-131 0 -250 -29t-238 -70q-35 -12 -73.5 -23.5t-73.5 -11.5 q-61 0 -109 35q-10 8 -18 26.5t-15 38t-12.5 34t-9.5 14.5h-6q-8 0 -11 -16.5t-3 -24.5zM707 481q0 18 14 31.5t27 30.5q53 57 100 123.5t47 152.5q0 66 -21.5 121t-47 107.5t-47 104.5t-21.5 112v51q16 43 42.5 57t73.5 14q6 0 29 -3t47.5 -9t44 -15t19.5 -24v-925 q0 -6 -17 -7h-10l-44 11q-44 10 -96 23.5t-96 26.5t-44 17zM1049 379v921q0 8 6 9.5t10 1.5q49 0 88 -52.5t66.5 -117t43 -120.5t17.5 -65v-143q0 -72 -4 -139.5t-19.5 -130t-46 -119.5t-84.5 -107h-10q-12 0 -39.5 21t-27.5 41z" />
<glyph unicode="E" horiz-adv-x="1435" d="M31 860q0 -109 9 -197t44 -182q12 -35 36.5 -71.5t24.5 -71.5v-21q-20 -23 -54 -72.5t-34 -86.5v-148q0 -8 6.5 -23.5t13.5 -30.5t13 -29.5t8 -18.5q86 -131 214 -181.5t278 -50.5h92q182 47 317 170l41 41q25 25 27 31v25q-12 0 -37.5 -18.5t-54.5 -42t-56.5 -46 t-46.5 -31.5q-66 -33 -140.5 -42t-141.5 -9q-80 0 -169 14.5t-164 51.5t-124 101.5t-49 164.5q0 18 5 52t15.5 67t29 57.5t42.5 24.5h21q100 -117 234 -184.5t288 -67.5q162 0 299 58.5t254 166.5q12 10 30.5 26.5t37 36t31.5 41t13 39.5h-16q-51 -47 -126 -100t-150 -53 q-14 0 -21.5 46t-10.5 106.5t-3 119.5v86v103l20 20q2 2 15.5 0t17.5 -2q86 0 154.5 43t68.5 143q0 57 -22.5 98.5t-59.5 67t-85 37.5t-99 12l-10 17v178q0 14 54 42t118.5 69t119 95t56.5 122h-21q-53 -47 -95 -72t-109 -25q-66 0 -105 25t-61.5 54.5t-32.5 54t-16 24.5 h-11q-68 -74 -150.5 -135t-155.5 -130t-122 -153t-49 -200q0 -74 20.5 -137.5t57.5 -124.5q25 -41 63.5 -81t75.5 -81t63.5 -85t26.5 -95q0 -20 -6 -41t-28 -21q-29 0 -49.5 13.5t-43.5 21.5q-53 12 -87.5 16t-92.5 15q-4 8 -12 25.5t-12 21.5q-53 100 -78 201.5t-25 218.5 q0 106 16.5 197t56.5 167t106.5 138.5t168.5 111.5v25q-111 0 -219 -58.5t-198.5 -148.5t-154 -199t-83.5 -209q-8 -23 -10 -57.5t-2 -69.5zM535 434q-3 3 -4 5q0 5 14 7l20 5q41 0 81 -39t63 -70h10q14 0 52 36t78 87t69.5 107.5t29.5 97.5v170q-8 18 -9 34.5t-1 36.5 q0 53 35 102.5t94 51.5v-10q-35 -35 -56.5 -72t-21.5 -88q0 -45 20.5 -83t20.5 -81v-471l-14 -20h-47q-131 0 -237.5 49t-192.5 141zM672 1356q-2 20 7 51t34 31q39 0 80 -36t79 -50q48 -17 78 -17h6q31 2 46.5 -3t19.5 -32.5t4 -107.5v-72q0 -6 -18.5 -29.5t-43 -47 t-46.5 -37.5q-12 -8 -21 -8q-7 0 -10 6l-168 219q-47 63 -47 133z" />
<glyph unicode="F" horiz-adv-x="1617" d="M31 66q0 -100 54 -172t136 -118t177.5 -67.5t174.5 -21.5q109 0 220.5 30.5t193.5 108.5q31 27 64.5 52.5t33.5 74.5h-10q-70 -80 -157 -116t-187 -58h-127q-70 0 -162 7t-176 34.5t-142 83t-58 151.5q0 98 60 146.5t150 48.5q96 0 180.5 -27.5t157.5 -89.5 q4 -4 16.5 -20.5t26 -35t24.5 -32.5t15 -14q6 2 22.5 20.5t38 43t42 47t35.5 32.5q59 43 120.5 71.5t120.5 76.5q66 51 115 137t49 176q0 72 -25.5 126t-25.5 120q0 23 6 49t19.5 47.5t33 36t47.5 14.5v-4q0 -35 -27.5 -60.5t-27.5 -72.5q0 -51 21.5 -80t47 -51.5t47 -47 t21.5 -67.5v-549l10 -14h7q2 0 3 15.5t3 34t3 32.5l1 14q0 23 -1 52.5t-1 62.5v65q0 23 1 64t2 90t2 100.5t1 94.5q12 18 28.5 21t32.5 13q51 23 77 72t26 102q0 49 -25.5 85t-56.5 60.5t-56.5 38t-25.5 17.5v148q0 14 27.5 37.5t61.5 57.5t62.5 79t28.5 102q0 74 -50 117 t-120 43h-35q-2 0 -6 -7t-4 -10h4q20 -2 48 -8t50.5 -19.5t39 -32.5t16.5 -46q0 -70 -50 -99.5t-108 -29.5q-55 0 -102 17.5t-91 43t-86 56t-85 57.5q-78 47 -166 67.5t-176 20.5q-94 0 -204 -18.5t-203 -65.5t-155.5 -126t-62.5 -200q0 -68 28.5 -124t77 -96t108.5 -61.5 t124 -21.5q172 0 291 113q12 8 31.5 27.5t19.5 23.5v17h-14q-78 -47 -143.5 -73t-153.5 -26q-57 0 -118 13.5t-110 43t-79.5 75.5t-30.5 114q0 61 26.5 109.5t69.5 80t97 49t108 17.5q66 0 124 -21.5t111.5 -54t102.5 -72.5t98 -77q10 -8 43 -23.5t68.5 -32t64.5 -31 t29 -20.5v-6q-94 -86 -154.5 -169t-60.5 -210q0 -94 43 -164.5t94 -146.5q27 -41 57.5 -82t30.5 -92q0 -23 -14.5 -45.5t-36.5 -22.5h-17q-145 174 -368 174q-82 0 -179.5 -29.5t-181.5 -84t-140 -132t-56 -173.5zM1024 1116q0 35 16.5 76t49.5 51q74 0 130 5t121 5h25 l10 -10v-106q0 -18 -15 -29.5t-34.5 -18t-40 -11.5t-33.5 -13q-16 -12 -33.5 -34.5t-33 -46t-27.5 -42t-18 -20.5h-4q-16 0 -36 25.5t-36 58t-28.5 64.5t-12.5 46z" />
<glyph unicode="G" horiz-adv-x="1591" d="M31 834q0 -227 102 -431q8 -16 26.5 -36.5t38 -42t34 -42t14.5 -36.5v-6q-39 -53 -63.5 -101.5t-24.5 -113.5q0 -98 51 -168t129 -116t170 -67.5t172 -21.5q170 0 296 62.5t236 183.5q12 16 16.5 26t4.5 29q-23 0 -39 -12.5t-30.5 -29.5t-29 -35.5t-34.5 -29.5 q-100 -55 -197.5 -78.5t-212.5 -23.5q-70 0 -155.5 12.5t-161.5 44t-127 90t-51 150.5q0 16 4 42t13 52.5t25.5 45t38.5 18.5q18 0 44 -14.5t56 -35t58.5 -40t50.5 -27.5q170 -72 355 -72q156 0 288 49.5t228 140.5t150.5 220t54.5 291q0 86 -30 176t-84 163.5t-132 121 t-174 47.5q-59 0 -103.5 -25t-76 -53.5t-52 -52t-35.5 -23.5q-4 0 -7 -1t-5 -1q-20 0 -47 32.5t-51.5 75.5t-40.5 86t-16 64q0 25 5 63.5t40 38.5q23 0 49 -13t57 -30.5t67 -31t72 -13.5q66 0 130.5 17.5t115.5 54.5q31 23 67 55.5t64.5 65.5t49 60.5t20.5 39.5v31 q-12 0 -29.5 -14.5t-42 -32t-56.5 -31.5t-73 -14q-61 0 -114.5 28.5t-94.5 77.5q-4 0 -13 15.5t-17 15.5h-7q-74 -70 -155.5 -133.5t-149 -135t-111.5 -157.5t-44 -203q0 -88 22.5 -172t69.5 -155q23 -35 57.5 -72t66 -77t54 -83t22.5 -92q0 -12 -3 -33.5t-11 -41t-21.5 -34 t-31.5 -14.5q-12 0 -29.5 9t-38 21.5t-44 24t-46.5 13.5q-8 2 -26.5 3t-38 3t-38 3t-26.5 1q-29 18 -42 67.5t-19 106.5t-8.5 109.5t-6.5 74.5v148q0 156 21.5 290t105.5 263q12 18 47 46.5t71 56.5t64.5 50.5t28.5 26.5q-78 0 -140 -32t-132 -66q-94 -49 -173 -123 t-137.5 -163t-91 -191.5t-32.5 -208.5zM502 307q0 16 7 18.5t23 2.5q63 0 101.5 -43t77.5 -80q16 0 23 7l24 24q51 43 101 92t89 104t62.5 117.5t23.5 136.5q0 49 -9 105.5t-38 99.5q-10 25 -37.5 60.5t-27.5 76.5q0 47 47 87q49 42 100 42q49 0 77 -47t40 -107.5t14 -113.5 t2 -66v-331q0 -76 -24.5 -155t-71.5 -143.5t-113.5 -106.5t-152.5 -42q-98 0 -171 46t-126 124q-12 18 -26.5 43.5t-14.5 48.5z" />
<glyph unicode="H" horiz-adv-x="1802" d="M31 82q0 -106 46 -184t120.5 -129.5t168 -77t187.5 -25.5q162 0 299 55.5t248 176.5q8 10 19 22t11 29h-20q-119 -127 -264.5 -166t-313.5 -39q-72 0 -153.5 15.5t-151 51t-115.5 94t-46 146.5q0 109 69.5 157t165.5 48q82 0 148.5 -21.5t128.5 -70.5q8 -6 21 -24.5 t28.5 -38t30 -35t22.5 -15.5q23 0 42 39t36 57q68 80 127 137.5t103 116t70.5 128t26.5 178.5q0 57 -29.5 122.5t-58.5 112.5v35l52 51q14 14 34.5 28.5t39 18.5t31.5 -6t13 -47v-465q0 -12 -3 -51t-3 -51q-10 -16 -27.5 -25.5t-33.5 -19.5q-47 -29 -66.5 -72t-19.5 -92 q0 -57 26.5 -96t68.5 -64t92 -35t99 -10q100 0 186.5 55.5t150 141.5t99.5 187t36 193q0 111 -24 189t-61.5 145.5t-88 135t-103.5 155.5q-12 23 -19.5 63t-27.5 40q-6 0 -25.5 -21.5t-44 -49.5t-49 -52.5t-39.5 -30.5q-8 -4 -37.5 -18.5t-63.5 -30t-63 -29.5l-36 -18 q-16 -8 -32 -23l-31 -29q-15 -14 -31.5 -25t-32.5 -11h-7q-63 61 -118.5 136t-55.5 167q0 8 3 27.5t10.5 40t17.5 34.5t27 14h4q41 -23 71.5 -39t58 -27t56.5 -18.5t66 -7.5q74 0 131 23.5t106 63.5t91 91.5t85 104.5q4 4 10.5 14t10.5 10v11q0 2 -8.5 6t-5.5 4 q-47 -41 -97.5 -68.5t-113.5 -27.5q-43 0 -80 19.5t-64.5 42t-46 42t-24.5 19.5q-18 -2 -49 -36t-44 -46q-70 -59 -142.5 -116.5t-131.5 -123t-97 -145.5t-38 -185q0 -76 23.5 -137t61.5 -115.5t85 -105.5t92 -107q23 -29 47.5 -67.5t24.5 -75.5q0 -16 -4.5 -44t-26.5 -28 h-6q-6 0 -31 14.5t-53.5 31t-53 32t-30.5 19.5q-47 23 -111.5 26.5t-113.5 3.5q-78 0 -159 -31.5t-148.5 -87t-110.5 -129t-43 -155.5zM1192 485v164v84v86q0 45 2 84t6 64.5t12 25.5h7l19 -25q19 -26 44 -59l49 -65q25 -33 35 -45q84 -94 139.5 -196.5t55.5 -229.5 q0 -119 -74 -208t-197 -89v26q39 31 65.5 77t26.5 97q0 66 -26.5 98t-60 49t-64.5 28t-39 34z" />
<glyph unicode="I" horiz-adv-x="1325" d="M31 45q0 -104 51 -180t130 -125t173 -73.5t182 -24.5q162 0 298 72.5t245 193.5l3 5q3 5 3 9l4 10h-20q-119 -100 -249 -144t-284 -44q-72 0 -160 12.5t-166.5 45t-132 92t-53.5 151.5q0 49 22.5 88t57.5 64.5t81 39t91 13.5q86 0 162 -21.5t145 -74.5q8 -6 29 -29 t42.5 -47.5t39.5 -44t23 -19.5q8 0 22 15.5t29.5 36t30 38t20.5 23.5q76 72 155.5 125t143 113.5t104.5 139.5t41 202q0 72 -15 140t-50 130q-37 61 -74 119.5t-39 136.5q0 35 15.5 64.5t15.5 64.5h-21q-4 0 -27.5 -16.5t-33.5 -24.5q-82 -74 -131 -161t-49 -197v-72 q8 -20 15 -43t11 -45l148 -291q12 -23 14 -44.5t2 -47.5q0 -12 -2 -30.5t-8 -37t-17.5 -32t-29.5 -13.5h-10q-96 80 -199.5 134.5t-235.5 54.5q-88 0 -184 -33t-176 -92.5t-131 -142.5t-51 -183zM168 1382q0 -68 29.5 -123t78 -93t108.5 -59.5t122 -21.5q23 0 67.5 11.5 t90 30t80 43t34.5 49.5q-27 0 -51.5 -9.5t-50 -19.5t-55 -19.5t-68.5 -9.5q-49 0 -111.5 7.5t-118 31t-92 64.5t-36.5 108q0 66 33.5 110t99.5 44q74 0 132 -34t116.5 -74t123 -73.5t150.5 -33.5q70 0 131 12t119 53q39 29 79 80t40 105q0 45 -28 92t-81 47v-21 q23 -16 45.5 -31.5t22.5 -50.5t-29 -53t-59 -18q-47 0 -85 25.5t-79 50.5q-80 47 -162 79.5t-176 32.5q-70 0 -143.5 -23.5t-135 -66.5t-101.5 -104.5t-40 -137.5z" />
<glyph unicode="J" horiz-adv-x="1325" d="M31 41q0 -106 49 -186t127 -133.5t173 -80t187 -26.5q162 0 298 74.5t245 191.5q12 16 21.5 27.5t9.5 34.5h-15q-113 -111 -259 -160t-300 -49q-66 0 -153.5 11t-167.5 42t-135.5 87t-55.5 146q0 53 23.5 93.5t61.5 66t84 37.5t93 12q119 0 209 -44t181 -113 q12 -14 25 -42t30 -30h6q12 0 28.5 33t22.5 39q53 57 108.5 102t121.5 92q121 88 183 197.5t62 263.5q0 82 -29.5 145.5t-64.5 121t-64.5 113.5t-29.5 126q0 18 8 50t12 58.5t-3 33.5t-38 -23q-90 -86 -153 -169q-62 -80 -62 -202q0 -110 39 -197.5t88 -175.5 q27 -49 52.5 -95t25.5 -103q0 -10 -2 -27.5t-8 -34t-16.5 -29t-24.5 -12.5q-10 0 -36.5 17.5t-57.5 39t-60.5 42t-46.5 28.5q-113 57 -235 58q-90 0 -188.5 -33t-180.5 -92.5t-135 -142.5t-53 -183zM133 1372q0 -63 31 -118.5t79 -96.5t109.5 -64.5t122.5 -23.5 q25 0 75 11.5t99 30.5t86 47t37 61h-31q-72 -37 -120 -49.5t-125 -12.5q-49 0 -106.5 9.5t-107 33t-82 63.5t-32.5 103q0 66 39 102.5t104 36.5q70 0 129.5 -33.5t118.5 -73.5t125 -74t150 -34q53 0 117.5 20.5t119.5 57.5t93 88t38 115q0 45 -36 89t-87 44 q0 -20 11.5 -30.5t24.5 -18.5t24.5 -19.5t11.5 -33.5q0 -76 -76 -76q-66 0 -119 35.5t-106 66.5q-131 76 -287 76q-68 0 -143.5 -23.5t-139 -66.5t-105.5 -104.5t-42 -137.5z" />
<glyph unicode="K" horiz-adv-x="1867" d="M31 55q0 -100 50 -176t127 -125t170 -73.5t179 -24.5q174 0 315.5 69.5t257.5 196.5q10 0 11 17v10h-15q-121 -109 -260 -155t-299 -46h-116q-61 10 -129 32.5t-125.5 60.5t-94 92.5t-36.5 127.5v52q25 43 46 68.5t45.5 40t58.5 19.5t85 5q121 0 225.5 -62.5 t153.5 -179.5h10l10 19q10 18 24.5 42.5t28 49t19.5 39.5q49 66 103.5 123t101.5 117.5t77.5 129t30.5 156.5q0 49 -8 85t-22 79q-12 35 -31.5 69.5t-19.5 69.5q0 14 13 32.5t32.5 34t42 25.5t38.5 10h11q0 -12 2 -38.5t3 -56t3 -56.5t2 -39v-117q-8 -20 -19.5 -31.5 t-11.5 -29.5q0 -29 31 -41q12 -82 16 -165t4 -169q0 -59 -1 -115.5t-3 -113.5q6 -16 15 -17v553q0 23 22.5 37t44.5 14q35 0 58.5 -35.5t23.5 -66.5v-307q0 -27 21.5 -72t53.5 -88t65.5 -74.5t58.5 -31.5q10 0 21.5 14t23.5 34.5t23.5 40t23.5 29.5l205 205q19 19 19 23 q0 2 -4 2q-11 -2 -35.5 -16.5t-51 -30t-31.5 -15.5q-14 0 -23 21.5t-17.5 53.5t-14.5 69t-16 67q-14 47 -43 82t-68 61.5t-83 44t-87 31.5v7q0 6 24.5 22t55.5 37.5t59.5 41t38.5 32.5q35 39 43.5 79.5t8.5 88.5q0 98 -47.5 178t-110.5 155h-10q-82 -78 -186.5 -153.5 t-192.5 -132.5q-12 -20 -36 -41t-46 -21q-25 0 -57.5 36t-62.5 84t-50.5 99.5t-20.5 81.5q0 10 2 27.5t8.5 34t16.5 29t25 12.5q53 -29 114.5 -55.5t126.5 -26.5q139 0 243.5 73.5t190.5 178.5q16 16 34 39.5t18 52.5h-15q-43 -35 -90 -69t-104 -34q-47 0 -93.5 11.5 t-80.5 40.5q-27 20 -43.5 58t-38.5 38q-6 0 -6 -4q-70 -82 -156 -150.5t-162 -142.5t-127 -163t-51 -216q0 -94 22.5 -166t61.5 -135t92 -124.5t115 -131.5q20 -23 28.5 -42t8.5 -50v-27q0 -20 -14.5 -20t-34 9t-38 21.5t-26.5 16.5q-61 23 -118.5 39t-127.5 16 q-88 0 -182 -27.5t-172 -81t-128 -131.5t-50 -180zM1176 870q0 25 1 49.5t1 53.5v96q0 4 6 15.5t14 11.5h4q25 0 56.5 -30t59.5 -69t46 -76.5t18 -56.5q0 -37 -27.5 -62.5t-63.5 -36.5q-28 -9 -54 -9q-7 0 -13 1q-32 3 -42 25q-6 49 -6 88z" />
<glyph unicode="L" horiz-adv-x="1597" d="M31 86q0 -102 61.5 -180t151.5 -131.5t193.5 -81t187.5 -27.5q41 0 93 7.5t91 19.5q35 12 92 38.5t111.5 63.5t94.5 79t40 85q-23 0 -41.5 -13.5t-35.5 -30.5t-31.5 -33.5t-30.5 -24.5q-94 -51 -178.5 -69.5t-184.5 -18.5q-72 0 -173 14t-193.5 50t-158 97.5t-65.5 155.5 q0 104 62.5 164.5t163.5 60.5q35 0 80 -17.5t96 -42t104 -53t105 -51.5q86 -39 162.5 -62.5t168.5 -23.5q160 0 288 78t210 213q18 31 45 73t27 81h-21q-14 -27 -34.5 -63.5t-48 -70.5t-60.5 -57.5t-72 -23.5q-37 0 -37 39v88q0 76 -3 181.5t-5 208.5t-4 189t-2 123v256 q47 53 99.5 92t99.5 93q8 10 21 27.5t25.5 34.5t21.5 30.5t9 15.5v35h-10q-25 0 -49 -15.5t-49 -33t-52.5 -32.5t-60.5 -15q-70 0 -130 33.5t-79 103.5h-10q-8 0 -20.5 -11.5t-24.5 -25.5t-22.5 -27.5t-14.5 -17.5q-63 -57 -136 -111.5t-135.5 -116t-103.5 -135t-41 -170.5 q0 -57 17.5 -132.5t60.5 -123.5l226 -249q23 -25 32 -45.5t9 -53.5q0 -23 -10.5 -52.5t-41.5 -29.5q-23 0 -43 9.5t-39 17.5q-127 45 -256 45h-49q-31 0 -61.5 -6t-73.5 -18q-10 -23 -31 -23q-16 0 -36 -4q-119 -53 -205 -146.5t-86 -232.5zM819 1366q-3 17 -2 32q0 20 4 37 q8 30 39 29h10q49 -61 108.5 -86.5t131.5 -25.5q31 0 58.5 5t54.5 5q10 0 18 -62.5t14.5 -159t9.5 -212t5 -224t3 -193.5t1 -118q0 -23 -1 -51.5t-9 -50.5h-25q-51 0 -124 38t-152 74q-8 0 -9.5 6.5t-1.5 10.5l4 10q78 80 124 161t46 191q0 72 -24.5 132.5t-61 114.5 t-82 104.5t-88.5 99.5q-14 18 -29.5 56t-21.5 77z" />
<glyph unicode="M" horiz-adv-x="2451" d="M31 1577q0 -59 24.5 -114.5t66.5 -97.5t96 -66.5t114 -24.5q90 0 175 20.5t173 20.5q80 0 135 -27.5t90 -75t51.5 -111t16.5 -134.5q0 -55 -12.5 -122t-40 -123t-74.5 -95t-119 -39q-10 0 -39 5t-58.5 14t-53 22.5t-23.5 29.5v7q0 10 10 10q74 4 134.5 51t60.5 123 q0 72 -52.5 120t-117.5 48q-78 0 -131.5 -53.5t-53.5 -124.5q0 -68 28 -121t73 -90t103.5 -56.5t119.5 -19.5q123 0 215 56.5t153.5 145.5t92.5 198.5t31 217.5q0 43 -5.5 83t-5.5 81q0 25 21.5 64t54.5 39q23 0 39 -15.5t26.5 -37t16.5 -45t6 -40.5v-942q0 -35 -25.5 -59.5 t-25.5 -52.5q2 -16 32.5 -24.5t43.5 -16.5q63 -37 97 -89.5t67 -111.5q4 0 18 22.5t33.5 52.5t39 58.5t31.5 40.5q4 4 21.5 16.5t37 27t35 25.5t15.5 13v6q0 4 -14.5 20.5t-16.5 20.5q-47 72 -47 144v833l10 129q0 8 15.5 32.5t25.5 33.5h47q39 0 72 -16.5t65.5 -35 t69.5 -35t84 -16.5q20 0 42 5t40 5h10q-92 -92 -150 -174t-92 -168t-46.5 -186t-12.5 -229q0 -104 16.5 -197.5t55.5 -191.5q6 -14 25.5 -50t45 -73t52.5 -64.5t45 -27.5h10q4 0 32 29.5t60.5 66.5t62.5 69.5t36 38.5q31 31 58.5 48.5t27.5 60.5q-27 0 -38 -20.5t-38 -20.5 q-53 0 -80 79t-36 189q-8 100 -8 206v24q1 119 1 198v25q0 78 6 157.5t35 149.5q8 18 28.5 41t42 44.5t39 39.5t17.5 29q-37 0 -67.5 -26t-59.5 -26v11q0 6 21.5 33.5t49 59.5t52 61.5t31.5 39.5v10q0 4 -1 10.5t-10 6.5q-12 0 -21 -12.5t-20.5 -26.5t-26 -26.5t-34.5 -12.5 q-43 0 -67.5 21.5t-55.5 39.5q-47 29 -92 40.5t-98 11.5q-61 0 -113.5 -35t-92.5 -78t-63.5 -78t-27.5 -35l-11 11q-16 16 -34.5 54t-39 76t-41 66.5t-42.5 28.5q-82 -74 -169 -141.5t-165 -149.5h-4q-6 0 -30.5 24.5t-54.5 56.5t-56.5 60.5t-38.5 36.5q-80 47 -154 62.5 t-164 15.5q-31 0 -76 -1t-71 -9q-76 -20 -146.5 -49t-156.5 -29q-68 0 -97.5 21.5t-41 48t-14.5 48t-15 21.5h-6q-12 0 -18.5 -20.5t-10.5 -46t-5 -48t-1 -28.5zM297 35q0 -100 53 -172t133 -118t173.5 -67.5t172.5 -21.5q139 0 269.5 53t222.5 162q8 2 31.5 32.5t23.5 45.5 h-30q-111 -131 -251.5 -170t-291.5 -41q-63 0 -145.5 13t-156 46t-123.5 88.5t-50 139.5q0 55 24.5 94t64.5 62.5t89 33.5t98 10q115 0 215 -57q16 -8 39 -35t44.5 -55.5t36.5 -51t17 -22.5q6 0 7 6l10 4q78 98 159.5 175t182.5 159v31q-31 0 -52.5 -28.5t-50.5 -28.5 q-12 18 -55 42.5t-98 46t-115.5 36t-109.5 14.5q-88 0 -182.5 -29t-173.5 -83t-130 -133t-51 -181z" />
<glyph unicode="N" horiz-adv-x="1990" d="M31 1602q0 -49 20.5 -100.5t56 -93.5t85 -67.5t104.5 -25.5h373q20 0 47.5 -13.5t40.5 -17.5q96 -57 130 -147t34 -195q0 -57 -18.5 -118.5t-54.5 -111.5t-86 -82t-114 -32q-41 0 -77.5 13.5t-65.5 47.5q109 4 175.5 43t66.5 158q0 80 -52.5 132t-132.5 52 q-70 0 -113.5 -45t-70.5 -104v-55q0 -133 87 -206q85 -71 207 -71h7q115 0 205 54.5t152.5 138.5t96 188.5t33.5 206.5q0 61 -13 119.5t-13 115.5q0 35 19.5 58.5t58.5 23.5q10 0 23 -2t18 -12q2 -27 4 -95.5t3 -145t2 -145.5t1 -95v-590l-62 -55q-4 -2 -4 -4t-6 -2 q-23 0 -53.5 25.5t-44.5 35.5q-78 43 -141.5 65.5t-149.5 22.5q-84 0 -179 -30.5t-175 -88t-132.5 -136.5t-52.5 -175q0 -100 50.5 -175t127 -125t171 -74.5t180.5 -24.5q127 0 244.5 56t209.5 138q16 16 34 32.5t18 43.5q-35 0 -59.5 -24.5t-53.5 -41.5q-90 -53 -178 -75.5 t-211 -22.5q-70 0 -158 8t-163.5 38t-128 86.5t-52.5 154.5q0 31 12.5 63.5t33 61t49 47t59.5 18.5h190q43 0 93 -31.5t91 -68.5t69 -69l28 -31q20 0 34.5 23.5t16.5 27.5l98 98q14 14 52 41t78 57.5t70 62.5t30 58v1020q0 4 6 4h10h10q47 0 94.5 -30.5t100.5 -30.5 q57 0 104 22.5t84 58.5t66.5 81t52.5 90q8 8 21.5 36.5t13.5 45.5v4l-3 3q-3 3 -7 3h-5q-12 0 -19 -13.5t-15.5 -31t-21.5 -30.5t-36 -13q-41 0 -68.5 15t-64.5 32q-47 18 -86 26.5t-88 8.5q-55 0 -95 -11.5t-89 -40.5q-14 -8 -41 -37.5t-53.5 -62.5t-47 -58.5t-22.5 -25.5 q-4 0 -5 3l-1 3q-96 111 -199.5 165t-251.5 54q-59 0 -115.5 -13t-111.5 -29.5t-110.5 -30t-112.5 -13.5q-41 0 -74 13.5t-33 62.5q0 23 10.5 44.5t10.5 47.5q-25 0 -41.5 -19.5t-25.5 -47t-12 -55t-3 -41.5zM1407 680q0 -121 8 -207t33 -158.5t70 -142.5t120 -158h11 q16 0 28.5 11.5t22.5 28t19.5 32.5t21.5 27q18 18 55 46.5t74 58.5t63.5 56.5t26.5 42.5v25h-14l-68 -61q-20 0 -40.5 22.5t-38 52t-30 59t-14.5 46.5q-12 74 -18 174t-6 246v243q0 59 6 121t28 117q8 14 35 43t27 49q-25 0 -55.5 -19.5t-62.5 -44t-60.5 -48t-46.5 -31.5 q-72 -59 -111 -133t-57.5 -156t-22.5 -169t-4 -173z" />
<glyph unicode="O" horiz-adv-x="1587" d="M31 782q0 -166 72.5 -311t193.5 -256v-16q0 -41 -25.5 -89.5t-25.5 -105.5q0 -18 8 -49t16 -47q31 -72 82 -118t115.5 -73.5t136.5 -39t144 -11.5q154 0 270.5 56.5t220.5 164.5q10 18 22.5 41t12.5 45h-10q-109 -123 -251.5 -169t-301.5 -46q-70 0 -144.5 11.5t-137 42 t-102.5 85t-40 138.5q0 14 2 35.5t9 42t20.5 36t33.5 15.5h10q18 0 47 -11.5t60 -26.5t57.5 -30.5t40.5 -23.5q10 -4 33 -10.5t47.5 -12.5t45 -10t28.5 -4h92q170 0 307 71.5t233.5 189.5t149.5 268.5t53 309.5q0 80 -8 156t-28 152q-31 106 -96.5 197t-154.5 158 t-193.5 104.5t-215.5 37.5q-78 0 -156.5 -8t-150.5 -29q-39 -10 -71.5 -22t-71.5 -12q-23 0 -47.5 11t-24.5 40q0 18 5 32.5t5 32.5q-43 0 -57.5 -41t-14.5 -75q0 -51 26 -91t56.5 -70t56 -48.5t25.5 -26.5l-6 -10q-96 -57 -171 -112.5t-126 -122t-78.5 -149.5t-27.5 -196z M362 881v75q0 4 8.5 66.5t28 135.5t50 133.5t73.5 60.5q18 0 32.5 -1t33.5 -10l297 -16q33 -2 67.5 -13.5t66.5 -26.5t57.5 -32.5t39.5 -29.5q68 -61 112 -121t69.5 -124.5t37 -138t11.5 -163.5q0 -104 -32 -212t-94.5 -197t-152.5 -145t-207 -56q-106 0 -182 48t-152 126 v10q0 10 17 26h51q45 0 70.5 -5t41 -17t27.5 -31.5t35 -48.5v-6q25 0 71 54t91 125t82 139.5t43 97.5q10 39 10 63v43q0 94 -39 157.5t-84 122t-84 126t-39 168.5v10h-10q-39 0 -74 -39t-60.5 -93.5t-41 -112.5t-15.5 -97q0 -82 28 -157t75 -140q18 -27 42.5 -53.5t46 -55 t36 -59.5t14.5 -68q0 -23 -8 -57.5t-39 -34.5q-41 0 -81 12.5t-87 12.5q-39 0 -73.5 -7.5t-69.5 -7.5q-37 0 -63.5 68t-44 160t-25 186.5t-7.5 149.5z" />
<glyph unicode="P" horiz-adv-x="1847" d="M31 1663q0 -78 33.5 -139.5t88 -106.5t124 -68.5t143.5 -23.5q49 0 102 13.5t107 13.5q70 0 122 -33t87.5 -84t54 -114.5t18.5 -127.5q0 -68 -17 -131t-53 -113.5t-89.5 -80t-126.5 -29.5q-10 0 -31 2t-40 8t-31.5 18.5t-6.5 32.5q6 0 12.5 -1t12.5 -1q63 0 111 37 t48 109q0 70 -43 128q-42 56 -115 56h-5q-72 0 -115 -54t-43 -124q0 -63 26.5 -112.5t70.5 -82t100.5 -50t113.5 -17.5q106 0 193.5 53t149 138t95 187.5t33.5 200.5q0 39 -10 74t-10 70v4q4 12 7 30l3 17l92 92q4 4 10.5 4t10.5 6h6q4 0 7 -7t3 -3v-430 q-29 -23 -48.5 -53.5t-19.5 -69.5q0 -29 12.5 -53.5t27 -45t26.5 -36.5t12 -29v-276q0 -8 -8 -9t-12 -1q-31 0 -67 18t-66 27q-47 12 -97.5 14t-97.5 2q-94 0 -190.5 -37t-173 -101.5t-126 -149.5t-49.5 -183q0 -100 52.5 -173t132.5 -120t175 -69.5t179 -22.5t172 22.5 t165 67.5t137.5 109.5t88.5 148.5q-10 0 -33.5 -21.5t-52 -48t-56.5 -52t-42 -36.5q-68 -41 -151 -56t-162 -15h-50q-45 0 -102 2t-114.5 9t-107.5 22.5t-81 41.5q-43 39 -83 89.5t-40 111.5q0 55 26.5 96t68.5 69t92.5 41t99.5 13q135 0 249.5 -59t174.5 -186q4 0 8 -2.5 t8 -2.5q6 0 20.5 18.5t31 43t31.5 48.5t24 34q47 53 103 98t108 96l86 86v21q-25 0 -42.5 -16.5t-35 -37t-35.5 -37t-45 -16.5h-10l-62 62l-3 7q-3 7 -7 7v119q0 18 2 47t4 54.5t4 44t0 18.5l10 10l23 -2h22q100 0 180.5 39t135.5 106.5t85 155.5t30 186q0 70 -17.5 120 t-45.5 94t-62.5 86t-69.5 96q-8 12 -18.5 34.5t-21.5 47t-20.5 45t-15.5 26.5h-6q-6 0 -22.5 -22.5t-36 -49t-40 -49t-34.5 -22.5q-20 -20 -64.5 -55t-89.5 -69t-81.5 -57.5t-41.5 -23.5q-33 2 -49 44t-32 63q-70 92 -171.5 141t-211.5 49q-61 0 -121 -14.5t-118 -31.5 t-117.5 -31.5t-121.5 -14.5q-53 0 -77.5 18.5t-34.5 40t-13.5 40t-11.5 18.5t-12 -9l-8 -16v-47zM1321 1059v334h20q18 -23 62.5 -64t89.5 -93t80 -113.5t35 -125.5q0 -41 -13.5 -83t-38 -76.5t-61.5 -57t-82 -22.5q-8 0 -32.5 3t-24.5 21q0 8 12 15.5t26.5 20.5t27 34.5 t12.5 58.5q0 43 -17.5 64.5t-39 35t-39 23t-17.5 25.5z" />
<glyph unicode="Q" horiz-adv-x="1566" d="M31 799q0 -178 71.5 -317.5t194.5 -266.5v-6q0 -8 -8 -30.5t-17.5 -50.5t-17.5 -55.5t-8 -47.5q0 -96 45 -163t115.5 -108t155.5 -59.5t165 -18.5q127 0 251 40t210 141q12 16 34.5 57t47.5 55q33 23 59.5 34t50 24.5t45 34t43.5 61.5q14 29 25.5 40t11.5 42 q0 29 -9 24.5t-24.5 -20.5t-36 -33.5t-42.5 -17.5q-31 0 -67 25.5t-36 56.5q0 8 28 38.5t48 63.5l61 98q59 94 84 218t25 237q0 164 -47 308.5t-137 253t-224.5 171t-308.5 62.5h-61q-37 0 -80 -9.5t-87 -21.5t-88 -21.5t-83 -9.5h-58q-8 8 -16 18.5t-8 26.5v6q0 4 5 17.5 t5 17.5v10l-3 3q-3 3 -7 4h-6q-16 0 -26.5 -12.5t-16.5 -30t-9.5 -35t-3.5 -25.5q0 -53 26 -94t56.5 -69.5t56 -46t25.5 -25.5q0 -14 -33.5 -34t-79.5 -46.5t-94.5 -59t-74.5 -71.5q-66 -92 -96.5 -180t-30.5 -203zM276 41q0 12 3.5 34.5t10.5 44t20.5 38t31.5 16.5h16 q115 -59 220.5 -94t240.5 -35q53 0 101.5 13.5t97.5 13.5q35 0 69.5 -32t63.5 -46q12 -4 36.5 -10.5t24.5 -24.5v-6q-47 -59 -110.5 -96t-134 -56.5t-146.5 -25.5t-145 -6q-61 0 -131 13t-130.5 46t-99.5 84t-39 129zM358 891q0 14 6.5 90t25 162t51 154.5t85.5 68.5 q47 0 95.5 -8t95.5 -12q57 -4 114.5 -5.5t114.5 -19.5q102 -35 175 -99.5t120 -147.5t68.5 -180t21.5 -198q0 -31 -7 -96t-21.5 -132t-37 -117t-53.5 -50h-14q-29 0 -50.5 10.5t-51.5 10.5q-45 0 -90 -16.5t-82 -45.5t-60.5 -68.5t-23.5 -85.5q23 0 42 20.5t50 20.5 q18 0 32.5 -4t22.5 -30q-10 -27 -45 -32t-65 -5h-23q-104 0 -181 46t-147 118q-4 4 -7 15l-3 11q0 8 13 15l14 6h51q23 0 51.5 -4t53 -15.5t42 -31t17.5 -48.5l14 -4q2 -1 4 0q19 0 62 44q47 50 96 126t87 164t38 158q0 98 -33 158.5t-90 142.5q-35 49 -56.5 79.5 t-33.5 60.5t-17.5 66t-5.5 97q-4 0 -11 3t-13 3q-43 0 -76 -43t-56.5 -100.5t-36 -114.5t-12.5 -86q0 -80 27 -150.5t72 -136.5q16 -25 39.5 -52.5t45 -58t37 -62t15.5 -62.5q0 -8 -1 -24.5t-6 -34t-14.5 -31t-23.5 -13.5q-39 0 -81 15.5t-89 15.5q-39 0 -74 -10t-73 -10 q-18 0 -37 35.5t-34 80.5t-25.5 86t-12.5 54q-14 84 -19.5 150.5t-5.5 156.5z" />
<glyph unicode="R" horiz-adv-x="2027" d="M31 1659q0 -66 25.5 -119t68.5 -94t98.5 -69.5t114.5 -41.5h352q61 0 110.5 -29.5t84.5 -76.5t53 -103.5t18 -111.5q0 -115 -33.5 -204t-129.5 -151q-8 -4 -22.5 -12t-22.5 -8h-130q-16 0 -43.5 20.5t-27.5 40.5h123q33 0 57.5 20.5t41.5 49.5t25.5 62.5t8.5 58.5 q0 80 -54.5 134t-134.5 54q-84 0 -147.5 -58t-63.5 -147q0 -61 26 -112t69 -87t97 -56.5t112 -20.5q117 0 209 52t155.5 136t97 189.5t33.5 212.5q0 35 -5 66.5t-5 66.5q0 39 24.5 66.5t53.5 50.5h10l10 -11v-434q-23 -12 -30 -22t-7 -29q0 -20 8.5 -32.5t28.5 -28.5 q0 -23 1 -81.5t1 -123.5q0 -66 1 -124t1 -81v-10q0 -33 -22.5 -71t-42.5 -38h-37q-70 82 -164 123t-199 41q-90 0 -188 -31.5t-179 -91t-133.5 -142.5t-52.5 -185q0 -104 50.5 -179t128 -124.5t173 -73t185.5 -23.5q147 0 278.5 59.5t229.5 172.5q8 8 19.5 26.5t11.5 34.5 h-21q-100 -109 -215 -155t-262 -46h-20q-27 0 -53.5 5.5t-53.5 5.5q-80 2 -153.5 8t-133.5 59q-53 49 -91 98.5t-38 126.5q0 47 22.5 87t58.5 70t81 46.5t90 16.5q145 0 260 -82q10 -8 34 -32t48.5 -49.5t45 -46t26.5 -20.5q8 0 19.5 14.5t23.5 33t22.5 35t16.5 20.5 q18 20 62 54t88 72.5t78 75.5t34 64v430q0 35 15.5 45t49.5 10q35 0 67 -21.5t32 -60.5v-352q0 -31 6 -71t17.5 -79.5t28.5 -74.5t40 -58l113 -112h20q12 20 35.5 45.5t49.5 49.5t51.5 43t41.5 26l31 30l36 36q17 17 29.5 30.5t12.5 15.5v21q-23 0 -36 -20.5t-36 -20.5 q-20 0 -38.5 16.5t-32 39t-20.5 49t-7 44.5q0 61 -12.5 117.5t-12.5 97.5q-12 27 -21 46.5t-22.5 39t-34 41t-51.5 51.5q-12 12 -32.5 20.5t-40 17t-35 16.5t-15.5 18v6q0 -4 20.5 12.5t48.5 41t55.5 51t39.5 39.5q45 47 61.5 108.5t16.5 120.5v47q0 14 -1 27.5t-5 27.5 t-28.5 63.5t-53.5 103t-53.5 95.5t-28.5 42h-10q-117 -78 -229.5 -152t-204.5 -176h-11q-6 0 -14 11t-16.5 24.5t-14.5 24.5l-6 12q-111 143 -217 194t-244 51h-77q-49 0 -96.5 -13t-93.5 -30.5t-92 -31t-91 -13.5q-66 0 -97.5 35t-35.5 94l-6 4q-4 2 -8 3q-5 0 -9 -6 q-6 -9 -10 -24.5t-6 -32.5t-2 -24v-22zM1321 1188v235l5 11q5 10 5 14h10l8 -7q7 -7 7 -3q31 -31 69.5 -69t73.5 -81t58.5 -91t23.5 -97q0 -41 -31.5 -87t-85.5 -46h-22q-29 2 -67 4t-44 22q0 12 -2 40t-3 58.5t-3 58.5t-2 38z" />
<glyph unicode="S" horiz-adv-x="1622" d="M31 25q0 -117 48 -200t126 -135t175 -76t198 -24q256 0 450 164q23 16 45.5 39t22.5 53h-17q-92 -86 -211.5 -124.5t-249.5 -38.5q-88 0 -185 11t-179 48t-135 105.5t-53 183.5q0 43 14 91t40.5 89t66.5 68.5t89 27.5q45 0 82 -21.5t68 -53t59.5 -67.5t57.5 -63 q80 -74 190.5 -101.5t218.5 -27.5q104 0 217 36t206 101.5t154.5 161t61.5 213.5q0 80 -24.5 158t-71.5 138.5t-115.5 97t-156.5 36.5q-57 0 -108.5 -17t-100.5 -17h-17q-2 14 -4 52t-3 80t-2 79.5t-1 54.5v41q0 6 -1 18.5t-1 24.5q0 35 9.5 41t37.5 6h29q141 0 249.5 63.5 t188.5 178.5q16 23 26.5 45t10.5 53q-8 0 -23.5 -14.5t-36 -34t-41 -38t-38.5 -26.5h-56q-59 0 -99 23.5t-65.5 53.5t-39 53.5t-17.5 23.5h-4q-47 -53 -93 -95t-112 -69q-80 -31 -177 -60.5t-183 -75.5t-144.5 -114.5t-58.5 -175.5q0 -70 29 -126t78 -95t111.5 -59.5 t129.5 -20.5q61 0 123 13.5t121 13.5q6 0 10 -50.5t7.5 -121t4.5 -146.5t1 -127v-59v-103q0 -12 -2 -30l-5 -37q-2 -18 -3 -32l-1 -13l-6 -10q0 -2 -9 18t-19.5 48t-19.5 53.5t-13 33.5q-45 123 -133 187.5t-220 64.5q-94 0 -184 -32.5t-160.5 -92t-113.5 -141.5t-43 -180z M696 1130q0 18 5.5 64.5t18.5 93.5t35.5 83t57.5 36q10 0 32.5 -13.5t46 -33t42 -42t18.5 -38.5v-410q0 -18 -25.5 -22t-41.5 -4q-51 0 -87 28.5t-58.5 71.5t-33 93t-10.5 93zM987 41v711q0 31 13.5 54t43.5 23q68 0 106 -48t56.5 -114.5t22.5 -137t4 -115.5q0 -47 -4 -116 t-23.5 -132.5t-58.5 -107.5t-109 -44h-24z" />
<glyph unicode="T" horiz-adv-x="1617" d="M31 1305q0 -111 68.5 -163t176.5 -52q37 0 75 15t71 42t53.5 62.5t20.5 74.5q-27 0 -44.5 -24.5t-37.5 -40.5q-35 -31 -76 -44.5t-82 -13.5q-72 0 -136.5 34t-64.5 116q0 49 29 84t71 55t89 29.5t84 9.5q43 0 103.5 -11.5t120.5 -29.5t112.5 -45t76.5 -57v-5 q0 -6 -42 -39.5t-99 -82t-116.5 -101.5t-94.5 -100q-139 -188 -139 -414q0 -66 20.5 -129t51.5 -123q10 -16 38.5 -57t28.5 -66q0 -23 -22.5 -51t-34.5 -51q-35 -59 -35 -133q0 -100 59.5 -176t147.5 -127t190.5 -76t186.5 -25q293 0 495 220q16 20 26.5 37.5t10.5 43.5h-10 q-119 -125 -240 -170t-289 -45q-76 0 -171 13.5t-179 50.5t-140 100.5t-56 163.5q0 14 7 45t20.5 61.5t33 54t41.5 23.5h4q14 0 34.5 -14t42 -33.5t42 -38t35.5 -26.5q154 -92 338 -92q190 0 338.5 91t265.5 242q16 23 33.5 58t17.5 65q-27 -2 -48.5 -36.5t-37.5 -51.5 q-72 -72 -171 -99.5t-194 -27.5q-20 0 -76.5 7.5t-114.5 21.5t-104.5 37.5t-46.5 56.5q53 0 85 -28.5t59 -28.5q18 0 34.5 12t16.5 29q0 18 -19.5 31.5t-46 22.5t-51 13t-37.5 4h-112q-41 29 -66.5 81.5t-39 112.5t-18.5 119.5t-5 102.5q0 106 27.5 225t101.5 199 q16 16 37.5 42t48.5 26q10 0 39.5 -10.5t60.5 -23.5t55.5 -26.5t24.5 -21.5v-6q-78 -68 -138.5 -145t-62.5 -183q0 -82 19.5 -131t68.5 -119q35 -49 81 -97t46 -114q0 -18 -5 -37.5t-5 -38.5h27q2 0 24.5 25t36.5 37q53 61 90 136t37 161q0 76 -33.5 127t-73.5 93t-74 83 t-34 96q0 31 16.5 67t55.5 36h221q8 0 30.5 5t30.5 9q104 39 175 121t71 202q0 27 -13 65t-48 38q0 -20 5 -36.5t5 -35.5q0 -66 -45 -82t-98 -16q-57 0 -110.5 13.5t-105 32.5t-101.5 40.5t-103 36.5q-96 27 -178 34t-177 7h-133q-70 -12 -149.5 -36t-147 -65t-112.5 -101 t-45 -146z" />
<glyph unicode="U" horiz-adv-x="2041" d="M31 1587q0 -76 36.5 -134t94 -99t127 -62.5t135.5 -21.5q59 0 115.5 10t115.5 10q78 0 134.5 -29.5t93.5 -80t55 -117t18 -137.5q0 -66 -15 -127.5t-47 -109.5t-83 -76.5t-125 -28.5q-12 0 -33.5 1t-44 7t-39 17.5t-16.5 29.5v6h14q86 0 138.5 52.5t52.5 142.5v55 q-29 47 -68 78t-96 31q-82 0 -136.5 -56.5t-54.5 -134.5q0 -61 30 -112.5t76 -89.5t104.5 -58.5t113.5 -20.5q100 0 189.5 52.5t155 134.5t103 182t37.5 195q0 113 -43 213t-116.5 176t-173 120t-209.5 44q-61 0 -118.5 -14.5t-113 -31t-110 -29.5t-109.5 -13h-51 q-35 0 -51.5 23.5t-23.5 51t-9 51t-8 23.5q-12 0 -20.5 -18.5t-13.5 -41t-8 -42t-3 -21.5zM287 14q0 -80 35.5 -146.5t93 -116.5t129 -83t145.5 -43h109q139 0 258 41t223 139q10 12 30.5 35t20.5 27v14h-16q-117 -96 -239 -137t-273 -41q-135 0 -252 47t-203 152 q-27 41 -27 93q0 103 76 158q78 56 181 56q82 0 157.5 -29.5t145.5 -73.5l21 -21l32 -32q16 -16 30.5 -29.5t18.5 -13.5q8 0 22.5 16.5t31 38t30.5 41t23 27.5q18 16 66 56t102.5 84t102.5 84t66 57h7q10 0 10 -11q25 -127 70 -208.5t145 -159.5q10 -8 24.5 -16.5t30.5 -8.5 q25 0 42.5 34t29.5 42q35 45 75 81t73.5 67.5t55 60.5t21.5 57h-10l-86 -86h-10q-27 0 -49.5 19.5t-40 46t-29.5 56.5t-14 52q-2 25 -4.5 90.5t-4.5 139t-2 140.5v91v584q0 39 14.5 64.5t33 44t34 36t15.5 39.5q-57 0 -130 -40t-138.5 -101.5t-110.5 -133t-45 -134.5v-768 q0 -8 -11.5 -21.5t-25 -26t-26.5 -21.5t-19 -9h-11q-9 223 -9 445q0 74 1 148.5t1 148.5q0 223 -9 446q-10 16 -31 16q0 -299 6.5 -591t6.5 -591q0 -41 -11.5 -76.5t-52.5 -58.5h-14q-25 0 -50.5 12.5t-51 28.5t-49 32.5t-44.5 24.5q-63 25 -125.5 33t-130.5 8 q-84 0 -171 -33.5t-157.5 -91t-116.5 -135.5t-46 -166z" />
<glyph unicode="V" horiz-adv-x="1929" d="M31 1608q0 -86 35.5 -149.5t95 -104.5t134.5 -60.5t155 -19.5q57 0 111 5t114 5q80 0 131 -31.5t79.5 -83t39 -116t10.5 -127.5t-12.5 -127t-43 -115t-80.5 -84t-124 -33q-23 0 -54.5 7.5t-60.5 21.5t-49 34.5t-20 49.5l10 6q18 -18 33.5 -22.5t37.5 -4.5h25 q70 0 115 46.5t45 117.5q0 78 -44 126t-126 48q-92 0 -133 -62.5t-41 -152.5v-61q39 -88 112.5 -146.5t173.5 -58.5q117 0 210.5 50t158 132t99 187.5t34.5 214.5q0 59 -10 115.5t-10 115.5q0 35 22.5 63.5t65.5 28.5q20 0 27.5 -48t7.5 -95v-51v-789q0 -4 -5.5 -7t-9.5 -3 h-10q-59 0 -103 18.5t-77 18.5q-84 0 -201 -20.5t-225.5 -70.5t-184 -134t-75.5 -211q0 -109 56 -185.5t142 -126t186.5 -72t188.5 -22.5q170 0 306.5 76t252.5 197q16 18 39 46.5t23 59.5h-11q-76 -90 -145.5 -143.5t-142 -81t-151.5 -34.5t-171 -7q-66 0 -158 8t-176 37 t-143 85t-59 152q0 57 28.5 98.5t72.5 67t97 38t103 12.5q111 -2 232.5 -45.5t207.5 -108.5q20 -16 37.5 -51t40.5 -37q4 0 13 10t19.5 23.5t18.5 23.5t10 10q55 63 150.5 124t187.5 131.5t160.5 159.5t68.5 210q0 80 -35.5 143.5t-77.5 121t-77 117.5t-35 134q0 49 21.5 85 t48 60.5t48 39t21.5 20.5q-2 20 -18 17t-18 14v10q0 12 16 31.5t34.5 42t35 46t16.5 44.5q0 16 -14 16q-29 -31 -46.5 -49t-56.5 -18q-33 0 -62.5 17t-62 36.5t-69.5 37t-82 17.5h-7q-120 0 -192 -76q-74 -78 -125 -180h-10q-16 0 -29.5 21.5t-21.5 29.5q-70 72 -132.5 117 t-158.5 72h-88q-80 0 -142.5 -12.5t-138.5 -38.5q-53 -18 -111.5 -42t-119.5 -24q-51 0 -78 23.5t-40 53t-17 53.5t-13 24h-6q-16 0 -20 -35t-4 -47zM1339 692q0 86 1 168t1 168v358q0 10 15 11q41 0 86 -25.5t94 -25.5q31 0 57.5 5t55.5 5v-10q-90 -80 -152.5 -183.5 t-62.5 -226.5q0 -84 31.5 -147.5t70.5 -119t70.5 -108.5t31.5 -117q0 -49 -19.5 -83.5t-57.5 -69.5h-11q-12 0 -41.5 14t-62.5 33.5t-61.5 41t-38.5 34.5q-7 139 -7 278z" />
<glyph unicode="W" horiz-adv-x="2308" d="M31 1577q0 -72 30.5 -126t79.5 -91t111.5 -56.5t126.5 -19.5q53 0 107.5 5t107.5 5q172 0 255 -100t83 -268q0 -57 -14.5 -117.5t-45 -111t-79 -82t-117.5 -31.5h-25q-18 0 -42.5 1t-46 7t-36 18.5t-14.5 34.5q92 0 155.5 34t63.5 140q0 70 -45 117t-119 47 q-70 0 -110.5 -36t-67.5 -97v-51q0 -61 25.5 -112.5t67.5 -87.5t96.5 -56.5t111.5 -20.5q113 0 204 53.5t153.5 137.5t96.5 188.5t34 208.5q0 51 -10.5 98t-10.5 97q0 31 14.5 61.5t39 56t54 41t60.5 15.5q59 0 108.5 -28t96.5 -61.5t98 -61.5t117 -28q131 0 237.5 75 t178.5 181q8 14 24.5 41t16.5 31v25h-17q-31 -39 -69.5 -73t-87.5 -34q-57 0 -107.5 21.5t-102 47t-108.5 47t-129 21.5q-80 0 -154.5 -26.5t-136.5 -79.5q-12 -10 -35.5 -40t-49 -62.5t-47 -57t-28.5 -24.5q-6 0 -17 15t-23.5 33.5t-23.5 35t-17 18.5q-8 8 -37 39t-39 43 q-61 53 -143 72.5t-160 19.5q-70 0 -133.5 -8t-133.5 -29q-61 -18 -115.5 -39.5t-119.5 -21.5q-25 0 -55.5 8t-30.5 43v6q0 2 7 23.5t7 27.5v4q0 20 -10 21q-16 0 -27.5 -15.5t-17.5 -37t-8 -42t-2 -32.5zM276 0q0 -100 50.5 -173t127 -120t169 -69.5t176.5 -22.5 q141 0 270 59.5t225 171.5q23 27 42.5 52.5t19.5 60.5h-10q-63 -63 -116.5 -107.5t-112 -72t-127 -39.5t-161.5 -12q-68 0 -156.5 7t-169.5 34.5t-136.5 83t-55.5 151.5q0 49 27 86t66.5 62.5t86 39t87.5 13.5q92 0 170.5 -44t136.5 -110q12 -14 24.5 -45t32.5 -33h4 q70 117 166 205t203 174h6q6 0 22.5 -24.5t35 -56t38 -63.5t31.5 -44l174 -174h16q92 88 204 150.5t208 132t161.5 164.5t65.5 249q0 66 -18 130.5t-57 115.5q-23 33 -52.5 67.5t-56.5 73.5t-44 80t-17 86q0 53 26.5 96t65.5 82v27q-31 0 -66 -31t-51 -47 q-78 -63 -131 -124.5t-84 -156.5v-81q0 -84 18.5 -157t67.5 -136q55 -70 109.5 -138.5t54.5 -162.5v-52q-18 -43 -59 -86t-95 -43q-4 0 -19.5 8.5t-31.5 20.5l-33 25q-16 12 -22 18q-57 49 -91 103.5t-52.5 111.5t-23.5 118.5t-5 129.5q0 137 8 256t31 244v10q0 20 -21 20 q-31 0 -69.5 -22.5t-59.5 -32.5q-74 -41 -116 -103.5t-61 -137t-23.5 -155.5t-4.5 -157q0 -61 5.5 -122.5t5.5 -123.5q0 -14 -12.5 -37.5t-31 -46t-39 -39t-34.5 -16.5q-23 0 -54.5 27.5t-54.5 40.5q-57 35 -116.5 48t-128.5 13q-88 0 -186.5 -28.5t-180.5 -83 t-136.5 -134.5t-54.5 -184z" />
<glyph unicode="X" horiz-adv-x="1751" d="M31 35q0 -98 44 -173t114.5 -126t159.5 -78t177 -27q143 0 266 53.5t222 161.5q16 16 30.5 38t14.5 48h-21q-92 -111 -215 -154.5t-266 -43.5q-63 0 -149 12t-165 45t-133.5 89.5t-54.5 144.5q0 82 60.5 128t134.5 46q186 0 313 -138q0 -4 17.5 -30.5t27.5 -26.5l6 6 q16 14 30.5 41t25.5 41q47 66 102 122t102 118l17 10q4 2 15.5 -18.5t25.5 -47t25.5 -51t15.5 -30.5q43 -66 119.5 -123.5t150.5 -81.5h10q12 0 31 22.5t38 51t36.5 55t23.5 35.5q33 37 80 73.5t91 77.5t75 88t31 103q-12 0 -32.5 -32t-47.5 -71t-55.5 -70.5t-55.5 -31.5 h-14q-33 0 -70.5 20.5t-68.5 51t-51.5 68.5t-20.5 75v180l10 4q53 20 94.5 36.5t73 40.5t58 59.5t51.5 95.5q8 27 19.5 58.5t11.5 57.5q0 20 -11 21h-4q-47 -57 -102 -71.5t-129 -14.5h-51l-25 24v37q0 31 -1 78v31q0 31 1 61q2 45 9 78t22 33q27 0 51.5 -12.5t54.5 -12.5 q45 0 105.5 41t113 99.5t89 121t36.5 107.5h-20q-39 -35 -64.5 -48.5t-79.5 -13.5q-41 0 -65.5 13.5t-39.5 30t-25.5 29.5t-22.5 13l-10 -4q-16 -31 -43 -79t-54.5 -94t-49 -79.5t-27.5 -33.5h-7q-47 131 -141 216t-237 85q-68 0 -132.5 -13.5t-129 -30t-129 -29.5 t-132.5 -13q-31 0 -58.5 11t-27.5 50q0 18 5.5 34.5t5.5 37.5q-23 0 -36.5 -14.5t-20.5 -35t-9 -44t-2 -39.5q0 -113 72.5 -192t183.5 -101h98q61 0 122 10t118 10q55 0 83.5 -31.5t40 -76.5t11.5 -95v-88q0 -16 -3 -38.5t-20 -32.5q-70 -14 -131 -51t-108 -90.5t-75 -121 t-28 -143.5q16 0 42 21.5t52.5 46t48 43t32.5 8.5h167l21 -20v-117q0 -6 -3 -36t-11.5 -64.5t-22.5 -62.5t-39 -28q-18 0 -42.5 14.5t-53.5 32t-59.5 32t-59.5 14.5h-180q-10 0 -31.5 -6.5t-45 -13.5t-44 -16t-27.5 -16q-109 -53 -177 -147t-68 -217z" />
<glyph unicode="Y" horiz-adv-x="1865" d="M31 1710q0 -76 24.5 -145.5t70.5 -122.5t110.5 -85t144.5 -32q61 0 119.5 10.5t120.5 10.5q76 0 131 -30t91 -79t53 -112.5t17 -131.5q0 -57 -15 -119.5t-48 -114.5t-82 -86t-117 -34h-12q-20 0 -52 5t-32 32q0 8 25.5 14t56.5 23.5t56.5 53.5t25.5 103q0 61 -45 114.5 t-109 53.5q-90 0 -140 -55t-50 -143q0 -57 28.5 -103.5t73.5 -78t99.5 -48t105.5 -16.5q84 0 160 35t137 93t104 131t60 151q16 74 22 149.5t6 151.5v55v26q0 12 -2 27q8 27 21.5 49.5t44.5 22.5q41 0 73.5 -17.5t64.5 -37t67 -37t82 -17.5q23 0 49 5t53 5v-10 q-111 -102 -180.5 -211.5t-69.5 -269.5q0 -174 62 -328q31 -80 61.5 -158.5t30.5 -168.5q0 -102 -37 -188.5t-102.5 -149t-153.5 -98t-188 -35.5q-51 0 -108.5 11t-102.5 40q-20 12 -45 40.5t-49.5 58.5t-44 52.5t-29.5 22.5q0 -68 49 -125t119.5 -100t148.5 -68t133 -25 q152 0 282 62.5t225 167t149.5 241t54.5 283.5q0 74 -11.5 156t-39.5 151q-43 106 -95.5 222t-52.5 233v68q25 66 49.5 100.5t77.5 87.5v6q0 4 -10 14.5t-14 10.5q27 39 64.5 98t37.5 106q0 20 -10 21q-14 0 -22.5 -13.5t-17.5 -29.5t-22.5 -29.5t-40.5 -13.5 q-39 0 -72.5 16.5t-67.5 36t-70.5 34.5t-81.5 15q-68 0 -117 -21.5t-85 -59t-59.5 -90t-40.5 -111.5l-16 -11q-4 -2 -13 10.5t-21.5 31t-25 39t-22.5 32.5q-80 92 -176 133t-217 41q-61 0 -107.5 -7t-103.5 -24q-66 -20 -123 -42.5t-123 -22.5q-43 0 -66.5 19.5t-35.5 42 t-18.5 42t-16.5 19.5q-8 0 -10 -10.5t-2 -20.5zM252 51q0 -100 59 -174q58 -72 166 -72h6h35q10 0 10 11v4q0 10 -10 10q-43 8 -84 20.5t-72.5 34t-52 55t-20.5 85.5q0 104 64.5 157.5t164.5 53.5q57 0 116.5 -9.5t112 -31t96.5 -58.5t70 -92h11q12 0 14 6q37 53 77 93 t82 76t86 71t89 78q14 20 17 42.5t3 45.5v28q0 14 -3 49t-3 39v113v176q0 98 -1 201.5t-3 188.5t-6 140.5t-10 55.5q-4 0 -12.5 -1t-8.5 -9v-1024q0 -16 -24.5 -36t-40.5 -20q-12 0 -41 17.5t-64 39t-71.5 39t-65.5 17.5h-215q-16 0 -36.5 -8t-45.5 -8q-68 -20 -136.5 -57.5 t-124.5 -88.5t-92 -116.5t-36 -141.5z" />
<glyph unicode="Z" horiz-adv-x="1576" d="M31 123q0 -111 53 -189.5t136 -130t183.5 -76t194.5 -24.5q72 0 154 20.5t157.5 58.5t137 91t94.5 121v6q0 10 -11 10h-4q-72 -66 -137 -104.5t-135 -58t-146.5 -25.5t-170.5 -6q-78 0 -161 15t-151.5 53t-113.5 101.5t-45 157.5q0 86 55 147.5t145 61.5q27 0 45.5 -3 t40.5 -21q123 -135 263.5 -195.5t320.5 -60.5q119 0 228.5 26.5t194.5 86t136 153.5t51 229q0 113 -48 197t-136 162q-6 6 -25.5 16t-40.5 21l-36 18q-16 8 -17 12v11q78 70 121 141.5t43 179.5q0 121 -45 200t-121 126t-175 66.5t-210 19.5q-10 0 -54 -7.5t-103.5 -19.5 t-126 -25.5t-121.5 -25.5h-21q-35 0 -71.5 16.5t-36.5 55.5q0 23 5 43t5 43q-20 0 -35.5 -16.5t-26 -40t-15.5 -48t-5 -39.5q0 -92 39 -153.5t102.5 -99.5t141 -53t153.5 -15q8 2 39 6t65.5 8t65.5 7t39 3h16q2 0 5.5 1t7.5 1q12 0 12 -12v-338q0 -8 -8 -9t-13 -1 q-61 0 -108 30.5t-86 71.5q-8 12 -13.5 24.5t-21.5 12.5q-23 0 -27 -15.5t-4 -31.5q0 -29 19.5 -47.5t44 -31.5t44 -22.5t19.5 -21.5q0 -10 -29.5 -26.5t-64.5 -40t-64.5 -51t-29.5 -60.5q0 -16 10 -31.5t31 -15.5q12 0 36.5 29.5t60.5 65.5t81 65.5t98 29.5q10 0 22.5 -5 t12.5 -21v-711l-14 -37q-6 0 -29.5 32t-50.5 73t-52.5 78.5t-37.5 48.5q-66 55 -141.5 88.5t-165.5 33.5q-80 0 -157 -30.5t-136.5 -86t-95 -130t-35.5 -162.5zM977 199v727q0 20 15.5 23t25.5 3q43 0 74.5 -23.5t51 -58t29 -74.5t9.5 -75v-287q0 -37 -5.5 -89t-22.5 -100 t-48 -83t-82 -35h-27q-8 12 -14 33t-6 39zM977 1044v318q0 14 22 14h19q82 0 128 -58t46 -136q0 -72 -40 -115t-118 -43h-22q-14 0 -15 4z" />
<glyph unicode="a" horiz-adv-x="952" d="M31 659q0 -16 1 -63t2 -100.5t3 -101.5t4 -66q8 -41 26.5 -96.5t49.5 -88.5l133 -139h20q51 59 120 116.5t126 104.5h10q10 0 32 -30.5t45.5 -69.5t43 -73t23.5 -38l10 -4q12 -6 52 32t82 90t75 103.5t33 71.5q-20 0 -30.5 -15.5t-27.5 -15.5q-31 0 -44 38t-18 95 q-4 47 -4 101v21q1 67 1 124v271q0 23 25.5 61.5t49.5 77.5l-24 4l-51 -41h-11q-12 0 -44.5 32t-74.5 70.5t-87 70.5t-80 32q-12 0 -26.5 -13.5t-29 -31t-26.5 -33.5t-21 -25q-68 -59 -134 -97t-118.5 -81t-84 -104.5t-31.5 -167.5v-21zM311 389v361v65v61q0 32 3 57 t8.5 42.5t15.5 17.5q31 0 61.5 -22.5t56 -54t44 -68.5t26.5 -66q0 -23 1 -78t2 -115.5t2 -114.5t1 -75v-30q0 -18 -5 -45t-16 -49.5t-28.5 -39t-42.5 -16.5q-31 0 -53 17.5t-37.5 44t-25 56t-13.5 52.5z" />
<glyph unicode="b" horiz-adv-x="876" d="M31 137q14 0 24.5 12.5t19.5 28t18 28.5t26 13h4q31 -31 67.5 -63.5t74.5 -62.5t75 -51.5t70 -27.5h26q47 49 117 97.5t134.5 100.5t111.5 112.5t47 136.5v399q0 53 -18.5 102.5t-48 92.5t-65.5 82t-73 71h-6q-16 0 -49 -31.5t-70 -70.5t-75 -70.5t-66 -31.5h-6 q-10 0 -12.5 16t-2.5 27v376q0 31 2 64t12.5 59.5t32 44t60.5 17.5q0 -31 -20.5 -57.5t-20.5 -65.5q0 -47 27.5 -75t74.5 -28q113 0 113 117q0 43 -19.5 75t-50 51.5t-68.5 28.5t-77 9q-168 0 -270 -127q-20 -23 -41 -60.5t-21 -68.5v-1085q0 -33 -9 -56.5t-19.5 -44 t-19.5 -40t-9 -44.5zM358 434v440q0 14 9.5 36t22.5 41.5t30.5 32.5t36.5 13q18 0 40.5 -20.5t42 -48t32 -57t12.5 -48.5v-587q0 -6 -13 -7h-12q-27 0 -61.5 20.5t-65.5 51.5t-52.5 66.5t-21.5 66.5z" />
<glyph unicode="c" horiz-adv-x="706" d="M31 403q0 -63 21.5 -120.5t56 -108.5t78.5 -96t89 -84h11q2 0 18.5 15.5t35.5 36t37.5 37.5t24.5 23q25 16 62 39t70.5 49.5t58 56.5t24.5 60h-10q-16 0 -32.5 -14t-30 -30.5t-26.5 -30t-23 -11.5q-27 0 -60 23.5t-61.5 56.5t-49 69t-24.5 60q0 59 -2 132t-4 138.5 t-3 114.5t-1 66q0 41 5 74.5t21 33.5q8 0 21.5 -9t31 -20.5t37 -21.5t37.5 -10q49 0 92.5 22.5t74 59.5t48 84t17.5 94q0 4 -1 17.5t-9 13.5l-7 -4q-14 -10 -19 -21.5t-9 -22t-14.5 -17.5t-32.5 -7q-31 0 -49.5 14.5t-28.5 31.5t-18.5 31.5t-16.5 14.5h-6 q-10 -8 -33.5 -28.5t-50.5 -43t-50.5 -43t-33.5 -28.5q-37 -31 -84 -61.5t-87 -67.5t-67.5 -81t-27.5 -102v-385zM440 1059l11 10q2 2 3 2q4 0 7 -9l4 -13q-4 0 -12.5 1t-12.5 9z" />
<glyph unicode="d" horiz-adv-x="829" d="M31 414q0 -78 32.5 -136.5t79.5 -106.5t103.5 -90t101.5 -87h14q59 66 122 108.5t134 85.5q29 16 61 46t58.5 66t44 75t17.5 76v464q0 80 -39 147.5t-97.5 125t-125 103.5t-123.5 81q-27 16 -66 32.5t-75.5 38t-62.5 49.5t-26 69q0 20 9.5 35.5t19.5 27.5t18.5 24.5 t8.5 30.5q-47 0 -85 -25.5t-65 -64.5t-41 -85t-14 -87q2 -111 63.5 -169t147.5 -107q10 -4 10 -21q0 -8 -35 -35.5t-77 -71.5t-77.5 -101.5t-35.5 -123.5v-374zM311 465v579q0 35 31 35q25 0 58.5 -29.5t64.5 -71.5t51.5 -85t20.5 -70v-583l-9 -6q-8 -5 -12 -9h-4 q-23 0 -57.5 29t-66.5 66.5t-54.5 78.5t-22.5 66z" />
<glyph unicode="e" horiz-adv-x="679" d="M31 403q0 -49 22.5 -111.5t60.5 -120.5t86 -103t97 -64h4q12 0 51 27.5t82 62.5t79 67t44 38q20 14 49 44.5t29 32.5v11h-27q-31 -23 -54.5 -47.5t-61.5 -24.5q-16 0 -46 20.5t-60 49t-52.5 60.5t-22.5 54v15q49 49 108.5 103t111 115.5t85 132.5t33.5 150q0 31 -14 83.5 t-39 103.5t-57.5 89t-67.5 38h-6q-49 -55 -124 -105.5t-143.5 -105.5t-117.5 -119.5t-49 -150.5v-345zM290 853q0 11 -1 21q0 21 2 41q2 31 9 54.5t22 23.5h6q33 0 58.5 -36.5t42.5 -85t26.5 -94.5t9.5 -66q0 -25 -13.5 -62t-34 -72.5t-46 -60t-49.5 -24.5q-12 0 -21 4 q-6 68 -8 120t-2 107v80q0 18 -1 50z" />
<glyph unicode="f" horiz-adv-x="772" d="M31 1161q0 -31 14 -38t31.5 -10t32 -13t14.5 -45v-6v-871q0 -23 1 -83t3 -128.5t4 -129t2 -83.5h14q2 41 3 82v80q0 115 41.5 207t181.5 143l6 15v665q0 18 1 46t4 54.5t6 45t9 18.5q10 2 34 3t48.5 7t43 22.5t18.5 49.5v27q0 16 -10.5 23t-20.5 7q-29 0 -52.5 -5 t-49.5 -5l-21 14q-8 39 -9 67t-1 66v68l9 7q9 7 11 7q31 0 56.5 -17t56.5 -17q45 0 87 21.5t74 56t50 78.5t18 89q-25 0 -46 -25.5t-50 -25.5q-43 0 -64.5 23.5t-37.5 58.5h-27q-6 -6 -18.5 -20.5t-26.5 -29.5t-28 -29l-19 -19q-31 -25 -68 -45.5t-71.5 -43t-66.5 -50 t-50 -66.5q-20 -43 -29.5 -81t-21.5 -87q-4 -14 -17.5 -16t-29 -5.5t-27.5 -13.5t-12 -43z" />
<glyph unicode="g" horiz-adv-x="905" d="M31 281q0 -43 18.5 -82t47 -74t61 -65.5t61.5 -55.5h6q25 0 42.5 38t33.5 50l205 127l10 -4q8 -90 40 -170t32 -164q0 -96 -63.5 -155.5t-162.5 -59.5q-16 0 -40.5 3t-24.5 24q0 27 25.5 55.5t25.5 81.5q0 51 -31.5 90t-91.5 39q-59 0 -101 -32.5t-42 -90.5 q0 -61 28.5 -101t72.5 -62.5t97.5 -32t102.5 -9.5q76 0 157 22.5t148.5 68t111.5 111t44 151.5q0 53 -23.5 105t-27.5 106q0 2 -2.5 27.5t-3.5 59t-3 69.5t-2 59v10v57q0 47 1 113.5t2 132t3.5 120t4.5 79.5q4 53 27.5 97t53.5 91v10l-10 6h-4q-8 0 -21.5 -17t-27.5 -38.5 t-27.5 -39t-21.5 -17.5q-16 0 -36.5 23.5t-29.5 31.5q-61 53 -108 84t-123 76h-10q-8 0 -21.5 -13.5t-27 -30t-25.5 -30.5t-19 -18q-43 -41 -100 -80t-108.5 -85t-87 -101.5t-35.5 -129.5v-460zM287 655v97v55q0 27 1 57.5t4 57t7 44t12 17.5h11q33 0 67.5 -21.5t62 -54.5 t46 -70.5t18.5 -68.5v-471q-14 -14 -40.5 -51t-65.5 -37q-23 0 -41.5 14.5t-32.5 35t-23.5 44t-15.5 39.5q-2 18 -4 62.5t-3 94.5t-2 94t-1 62z" />
<glyph unicode="h" horiz-adv-x="884" d="M31 215q0 6 31.5 -22.5t70.5 -64.5t72 -66.5t35 -30.5t15 16t28.5 37.5t31 42t23.5 27.5q8 8 25.5 12t35 9t29.5 13.5t12 20.5v10q0 10 -12 23.5t-26.5 29t-27 31.5t-12.5 35v584q0 25 36 53.5t63 28.5q45 0 70.5 -33t40 -79t18.5 -94t4 -77v-256q0 -176 -4 -312.5 t-34 -232.5t-96.5 -152.5t-189.5 -74.5q-10 0 -10 -10v-7q20 -8 30.5 -9t26.5 -1q119 0 218.5 50.5t170 133t109.5 190t39 220.5v600q0 51 -22.5 103.5t-54.5 98.5t-64.5 82t-53.5 54h-34q-59 -59 -105.5 -98t-120.5 -86h-16q-2 0 -5 -1t-7 -1q-8 0 -9 6v457q0 78 24 117.5 t106 39.5v-14q0 -16 -9.5 -28.5t-21.5 -27t-21.5 -29.5t-9.5 -34q0 -47 27.5 -76.5t74.5 -29.5q41 0 77 32.5t36 73.5q-2 80 -58.5 130t-131.5 50q-41 0 -102.5 -18.5t-118 -50t-97.5 -75.5t-41 -97l-4 -1116q0 -16 -10 -29.5t-21.5 -26t-20.5 -25t-9 -26.5z" />
<glyph unicode="i" horiz-adv-x="624" d="M31 956q29 0 43 26t45 26q23 0 40 -29t21 -47q2 -27 3 -89.5t3 -136t3 -147.5t1 -127v-63q0 -74 4.5 -124t21.5 -90t50 -76t88 -79h11q2 0 37.5 34t78.5 77t78 80.5t35 48.5h-10q-2 0 -23.5 -12.5t-28.5 -12.5h-4q-25 0 -39 24.5t-21 60.5t-9 76t-2 68v41v234 q0 59 1 118.5t3 118.5q16 35 40.5 68t47.5 61v31l-82 -67q-4 0 -19.5 28.5t-37 61t-47 61.5t-50.5 29h-10q-23 0 -68 -38t-91 -85t-79.5 -92.5t-33.5 -57.5zM205 1464q0 -61 39 -97t100 -36q57 0 90 42t33 95q0 59 -34 99.5t-95 40.5q-70 0 -101.5 -41.5t-31.5 -102.5z" />
<glyph unicode="j" horiz-adv-x="567" d="M31 977q23 0 38 15.5t37 15.5q33 0 49.5 -39t22.5 -94.5t6 -116.5v-109v-506q0 -39 10.5 -73.5t22.5 -68.5t22.5 -68.5t10.5 -71.5q0 -53 -30 -87t-64.5 -54.5t-64.5 -33t-30 -24.5t29 -12q78 0 148.5 23.5t125 68.5t86 108.5t31.5 143.5q0 43 -12 83t-14 81 q-2 37 -4 130t-3.5 197.5t-2.5 197.5t-1 130v57q0 66 22.5 109t70.5 90v27q-20 0 -43 -23.5t-33 -28.5v-6l-22 30q-22 30 -49.5 65.5t-52 65.5t-30.5 30h-16q-53 -66 -104.5 -101.5t-120.5 -93.5q-35 -24 -35 -57zM158 1479q0 -61 45 -97t98 -36q59 0 94 37.5t35 95.5 q0 61 -39 100t-100 39q-57 0 -95 -39t-38 -100z" />
<glyph unicode="k" horiz-adv-x="1017" d="M31 178q8 -4 37.5 -14t37.5 -10q18 -8 41 -28t42.5 -41.5t35 -37.5t21.5 -16q-6 0 23.5 24.5t67.5 54t70.5 56.5t32.5 33q0 14 -10 23t-22.5 19.5t-23.5 26t-11 39.5v322h133q23 0 37 -15.5t25.5 -36t18.5 -41.5l11 -34q0 -37 -1 -74t-1 -74q0 -94 21.5 -175t103.5 -138 q12 -8 26.5 -17.5t30.5 -9.5l199 195q2 2 4 10t2 10l4 11q-18 0 -29.5 -10.5t-31.5 -10.5q-20 2 -30.5 37t-14.5 51v103q0 51 -20.5 90t-52.5 69.5t-71 52t-78 37.5q0 10 -10 11q35 41 69 67.5t61.5 54t44 64.5t16.5 100q0 37 -19.5 82t-44 85t-47 68t-29.5 28h-4 q-70 -70 -148.5 -114t-148.5 -101h-10q-8 0 -13 21.5t-8 53t-4.5 68.5t-1.5 67v70v62q0 45 2.5 95t11.5 91t29.5 68.5t59.5 27.5q4 0 18.5 -1t18.5 -9q-31 -31 -46.5 -56.5t-15.5 -66.5q0 -47 29 -78t78 -31q47 0 79.5 34t32.5 85q0 47 -20.5 81t-54 54.5t-74.5 29.5t-80 9 q-53 0 -111.5 -18.5t-107.5 -53t-82 -83.5t-33 -111v-1091q0 -35 -23.5 -67t-41.5 -50v-27zM362 723v18q0 23 2.5 69t13.5 91t34.5 79t68.5 34q29 0 52.5 -19.5t40 -48t25.5 -60.5t9 -57q0 -18 -6 -43.5t-19.5 -49t-33 -40t-43.5 -16.5h-127q-10 0 -13.5 14.5t-3.5 28.5z " />
<glyph unicode="l" horiz-adv-x="710" d="M31 123l5 -5q5 -5 9 -5l72 71h10q18 0 29.5 -13t20.5 -31.5t19.5 -37t22.5 -30.5q6 -8 41 -34t41 -34h37q4 0 17.5 16.5t13.5 20.5q31 23 69.5 50.5t73.5 53t58.5 47t23.5 33.5v15q-23 0 -40 -15.5t-38 -15.5h-8q-20 0 -39.5 24.5t-34 55t-23 61.5t-8.5 43v989 q0 39 1.5 84t10.5 82t28.5 61.5t58.5 24.5q10 0 6 -13t-13.5 -32.5t-19.5 -41t-10 -38.5q0 -49 28.5 -80.5t79.5 -31.5q57 0 82 33.5t25 85.5q0 78 -65.5 122.5t-143.5 44.5q-55 0 -115.5 -20.5t-109.5 -57t-81 -88t-32 -114.5v-1102q0 -27 -15.5 -49.5t-35 -43t-35.5 -41 t-16 -40.5v-4z" />
<glyph unicode="m" horiz-adv-x="1587" d="M31 1018q0 -10 10 -10t22.5 5t22.5 5q37 0 50.5 -42t10.5 -71v-219q0 -18 -1 -67.5t-1 -104.5t-1 -104.5t-1 -67.5q-4 -41 -24.5 -70.5t-46.5 -56.5v-10q0 -8 21.5 -23.5t49 -33t55 -36t38.5 -36.5q2 -2 8 -14.5t13 -25.5t16.5 -24.5t17.5 -11.5q-14 0 15.5 30.5 t70.5 68.5t78 70t37 36q0 18 -16.5 32.5t-24.5 32.5q-16 35 -18.5 70t-2.5 70v26q0 20 4 25q0 23 1 83t2 126.5t2 127t1 83.5q10 49 42 75.5t71 61.5h14q20 0 33.5 -15.5t22 -37t11.5 -42t5 -32.5v-191v-106q0 -72 -2 -140.5t-8 -156.5q-8 -14 -31 -44t-20 -48 q0 -20 22.5 -24.5t38.5 -12.5q47 -27 76.5 -69t52.5 -89h4q6 0 21.5 18.5t33 42t34 45t24.5 27.5q8 8 24.5 14.5t32.5 14.5t28.5 16.5t12.5 20.5q0 14 -9 29.5t-20.5 33t-21.5 37t-10 39.5v522q0 47 34.5 96.5t87.5 51.5q41 0 61.5 -37t20.5 -76v-639q0 -29 15.5 -74t41 -88 t56.5 -73.5t61 -30.5h15q14 18 54 51t82 69t73.5 69.5t31.5 56.5q-23 0 -36 -18.5t-35 -18.5q-23 0 -42.5 24.5t-19.5 47.5v634q0 53 30 93.5t67 76.5v21q-16 0 -28.5 -9.5t-24 -21.5t-21.5 -21.5t-23 -9.5q-10 0 -29.5 31t-43 67t-47 66.5t-43.5 30.5h-11q-8 0 -24.5 -15.5 t-36.5 -35.5l-40 -40q-19 -19 -32 -28q-10 -6 -33.5 -20.5t-49 -30.5t-48 -30.5t-33.5 -20.5h-10q-18 0 -39.5 34.5t-44 75.5t-45 76t-45.5 35h-10q-70 -74 -148 -132t-149 -124h-6q-14 0 -35 41t-42.5 89t-42.5 88q-20 38 -36 38h-2h-21l-81 -82q-10 -10 -37 -28.5 t-55.5 -39t-50 -39t-21.5 -26.5v-6z" />
<glyph unicode="n" horiz-adv-x="1105" d="M31 997h16l35 17q14 0 27.5 -13.5t23.5 -31t15.5 -36t5.5 -28.5v-573q0 -23 -10.5 -43.5t-22.5 -38t-22.5 -32.5t-10.5 -30v-14q70 -29 118 -68.5t87 -101.5h10q12 0 28.5 31t33.5 47q8 12 29.5 27.5t44 33t41 31.5t18.5 25q0 10 -10.5 23.5t-23.5 32.5t-23.5 45 t-10.5 62v27v99q0 71 1 151t3 149.5t6 96.5q2 18 15.5 40.5t33 42t42 33t42.5 13.5q43 0 62.5 -84t26.5 -196q4 -74 4 -149q0 -37 -1 -75q-3 -113 -3 -172v-59q0 -41 6 -84t34 -72l127 -119h7q-4 2 5 12.5t22.5 22.5t24.5 24.5t13 18.5l143 143q31 31 31 62h-20l-56 -51 q-16 0 -28.5 14t-22.5 33.5t-15 40t-5 34.5v527q0 66 31.5 117t70.5 98v37l-92 -78q-16 10 -35.5 39.5t-41 61.5t-43 57.5t-40.5 25.5h-4q-4 0 -20.5 -15.5t-37 -33.5t-36.5 -35l-18 -18q-14 -10 -47 -35t-69 -51.5t-63.5 -47t-31.5 -20.5q-8 0 -26.5 39t-42.5 87t-49.5 87 t-49.5 39h-7q-23 0 -64.5 -38t-81.5 -84t-69.5 -84t-29.5 -36z" />
<glyph unicode="o" horiz-adv-x="808" d="M31 700q0 -78 3 -142t7 -155q16 -61 38.5 -127.5t78.5 -107.5q25 -18 55.5 -45t58 -51.5t49 -41t27.5 -16.5t21.5 18.5t33 41t34 41t28.5 18.5l194 123q41 27 80 86t39 113v385q0 70 -31.5 127t-78.5 104t-101.5 87t-101.5 75h-10q2 0 -34 -24.5t-81 -56.5t-87 -60.5 t-54 -36.5q-94 -61 -131 -153.5t-37 -201.5zM297 782v52q0 10 1 34.5t1 53.5t1 54t1 38l16 4q20 6 53 -20.5t64 -63.5t54.5 -74t27.5 -51q0 -8 3 -39t3 -39v-475q0 -8 -6 -9t-10 -1q-35 0 -69 28.5t-61.5 69.5t-48 84t-26.5 74q0 14 -1 54t-1 83q0 45 -1 86t-1 57zM465 1069 q0 4 4 4q2 0 2 -2v-2q0 -4 -4 -4q-2 0 -2 4z" />
<glyph unicode="p" horiz-adv-x="964" d="M31 51q0 -23 10 -10.5t27.5 35t40 45t45.5 22.5q8 0 21 -2t13 -18v-481q0 -4 6 -8l5 -3h6q8 0 36.5 29t65.5 68t73 78.5t60 64.5q8 47 9.5 96t5.5 99l5 3q5 3 5 7h10l47 -45h10q61 70 130 107.5t151 86.5q80 49 100.5 139.5t20.5 184.5q0 39 -1 74.5t-1 66.5q0 35 1 70 t1 69q0 90 -17.5 178.5t-87.5 153.5l-20 21q-12 12 -24.5 23.5t-21.5 19.5t-11 8h-4q-70 -72 -134.5 -120t-138.5 -109h-14q-4 0 -7 -1.5t-8 -1.5q-4 0 -23.5 35t-43 76t-46 76t-32.5 35h-4q-66 -57 -139.5 -105.5t-126.5 -113.5v-11q0 -23 12 -18.5t26.5 15.5t25.5 21.5 t11 2.5q31 0 47.5 -34t22.5 -83t7 -103.5t1 -97.5v-368l-10 -27q-51 -47 -97 -109.5t-46 -140.5zM447 668q-1 26 0 51q0 59 5 114q7 77 31.5 129t79.5 52q43 0 67.5 -41t35 -95.5t12.5 -106.5t2 -75q0 -117 -3 -220t-7 -230q0 -4 -5 -7l-6 -3h-10q-10 0 -40.5 19t-62.5 43 t-59.5 46.5t-31.5 28.5q0 6 -1 23.5t-1 35.5t-1 35.5t-1 24.5v14q-1 74 -4 162z" />
<glyph unicode="q" horiz-adv-x="921" d="M31 479q0 -70 4 -137.5t23.5 -129.5t58.5 -118.5t108 -103.5h25q51 51 80.5 77.5t83.5 65.5q16 12 43.5 37t48.5 25q8 -4 14 -11l6 -6v-577q10 0 54.5 38.5t92.5 87t87 89.5t39 45v948q0 61 28.5 106.5t63.5 98.5v30q-18 0 -30.5 -16t-23 -34.5t-21.5 -35t-28 -16.5 q-25 2 -35 34t-22 48q-10 12 -38.5 36.5t-33.5 29.5q-16 12 -42.5 30.5t-54 37t-48 31.5t-22.5 13h-17q-78 -88 -156.5 -130t-143 -87t-104.5 -119.5t-40 -226.5v-160zM311 332v645q0 8 6.5 9t10.5 1h10q20 0 49 -23.5t56.5 -54t48 -62.5t24.5 -48q0 -14 2 -49t3 -75t3 -75 t2 -47v-242q-10 -47 -33.5 -68.5t-78.5 -58.5h-4q-18 0 -37 16.5t-32 40t-21.5 49.5t-8.5 42z" />
<glyph unicode="r" horiz-adv-x="833" d="M31 936q25 0 43 23.5t43 23.5q18 0 31.5 -13.5t21.5 -31.5t11 -38.5t3 -35.5v-536q0 -27 -19.5 -51.5t-42 -47t-42 -43t-19.5 -39.5h21l102 89h4h7q37 -66 66.5 -108t86.5 -93q8 -8 27.5 -24.5t23.5 -16.5h15l307 297l3 8q3 8 3 12l4 11q-16 0 -33.5 -11.5t-33 -27 t-27.5 -28.5t-19 -19h-51q-10 0 -26.5 16t-34 37.5t-29.5 42t-12 30.5v529q0 4 6 4h10q23 0 43.5 -5t48.5 -5q55 0 98.5 24.5t72 64.5t44 92t15.5 105q0 4 -1 15.5t-9 11.5q-27 -45 -43.5 -66.5t-69.5 -21.5q-31 0 -50.5 18.5t-31.5 49.5q-16 0 -33.5 -26t-36 -56.5t-37 -56 t-36.5 -25.5q-12 0 -29.5 29.5t-38 64.5t-45.5 64.5t-51 29.5h-4q-4 0 -19.5 -15.5t-33 -33.5t-33 -34.5t-17.5 -18.5q-18 -16 -44.5 -32.5t-51.5 -36t-41 -43t-16 -52.5z" />
<glyph unicode="s" horiz-adv-x="894" d="M31 20h10q12 0 27.5 14.5t33 32t38 32t44.5 14.5q72 0 112 -33t93 -86h10q8 0 22.5 9t30 20.5t29 22.5t21.5 15q27 29 77 50.5t102 45t96 54.5t63 76q16 41 18 80t6 88v10q0 49 -9 99t-32.5 91t-61.5 67t-95 26q-43 0 -75 -17.5t-59.5 -39t-54 -39t-57.5 -17.5 q-23 0 -40.5 26.5t-17.5 49.5v231q0 14 23 6t53.5 -23.5t61 -29.5t47.5 -14h6q55 0 105.5 30.5t88 76.5t60 101.5t22.5 102.5q-23 0 -35 -16.5t-25 -37t-32.5 -37t-56.5 -16.5q-29 0 -48.5 15.5t-32.5 35t-23.5 36t-22.5 16.5q-51 -23 -98 -63t-93 -66q-55 -35 -109 -65.5 t-96 -68.5t-69 -88.5t-27 -119.5q0 -37 13.5 -77t38 -71.5t58.5 -52t75 -20.5t74.5 15t63.5 34.5t56.5 36t51.5 16.5q31 0 58.5 -25.5t27.5 -56.5v-291l-11 -10q-49 47 -104 61.5t-121 14.5q-43 0 -96 -24.5t-101.5 -64.5t-81 -88.5t-32.5 -93.5z" />
<glyph unicode="t" horiz-adv-x="645" d="M31 1069q8 -12 24.5 -17t32.5 -8.5t29.5 -6.5t15.5 -9q0 -8 1 -28.5t2 -43t3 -43t4 -28.5v-578q-6 -12 -8 -26.5t-2 -28.5q0 -25 -12 -43.5t-26.5 -34.5t-27 -34.5t-12.5 -43.5h27l65 68h7h4q27 -20 52.5 -51t48 -59.5t43 -49t36.5 -20.5h14q6 0 47 33.5t87 76.5t85 83 t43 52v11l-10 6h-6q-4 0 -24.5 -20.5t-36.5 -20.5q-35 2 -66 48t-31 79v696q0 16 27 25.5t51 9.5q23 0 39 -4l6 10l2 11q2 11 2 16q0 51 -27.5 55t-62.5 6q-27 0 -39 15.5t-16 39t-3 49t1 44.5q0 66 4 128t31 123q12 23 34.5 37.5t22.5 44.5q-29 0 -55.5 -12t-53.5 -29 q-68 -41 -109.5 -80.5t-69 -86t-44 -102.5t-33.5 -130q0 -10 -5 -22.5t-9 -14.5h-88q-8 0 -11 -25.5t-3 -35.5v-31z" />
<glyph unicode="u" horiz-adv-x="1099" d="M31 977q0 -16 10 -17.5t22.5 4t23.5 12.5t15 7q20 0 31.5 -18.5t17 -43t6.5 -47t1 -30.5v-584q0 -33 -34 -78t-52 -59v-27h20l66 62h10q12 0 28.5 -26t39 -56.5t49 -56t57.5 -25.5h16q66 70 129.5 120t141.5 111h6q6 -10 29.5 -48t53.5 -78t57.5 -72.5t43.5 -32.5h10 q8 0 47 37t82 84t77 91t34 60q-25 0 -39 -20.5t-37 -20.5t-35 16.5t-18 40t-7 49t-1 46.5v78q0 27 1 95t1 144q0 78 1 146.5t1 95.5q4 29 22.5 51.5t38 43t36 41t16.5 44.5h-25l-88 -88q-14 14 -34.5 43t-42 57.5t-42 51t-35.5 22.5h-10q-31 -31 -70.5 -64.5t-75.5 -63.5 t-61.5 -53.5t-27.5 -33.5v-20q20 0 34.5 15t36.5 15q20 0 32.5 -33.5t14.5 -41.5v-570l-16 -51l-96 -92h-11q-35 0 -54 17.5t-27.5 44t-9.5 57t-1 55.5q0 47 -1 111.5t-2 132t-2 132t-1 111.5v76q-4 74 -45 133.5t-82 112.5l-16 10q-6 2 -47 -30.5t-88 -74.5t-86 -79 t-39 -41z" />
<glyph unicode="v" horiz-adv-x="905" d="M31 133q12 0 21 12.5t18.5 27.5t19.5 28.5t27 13.5q8 0 26.5 -17.5t39 -41t39 -44t28.5 -26.5q8 -6 27.5 -17.5t42 -25.5t42 -25.5t27.5 -17.5h14q10 0 26.5 14.5t34 34t34 37.5t28.5 27q63 39 124 73.5t109 76.5t78.5 99.5t36.5 143.5v201q0 72 -5 137t-26.5 126.5 t-62.5 116t-114 101.5h-21l-252 -215q-12 0 -26.5 33.5t-35 73.5t-48 74t-64.5 34h-10q-20 0 -51 -30t-59.5 -63.5t-48 -59t-19.5 -17.5v-10q0 -16 10 -31.5t22.5 -32t22.5 -36t10 -44.5v-567q0 -31 -24.5 -71t-40.5 -62v-31zM379 399v492q0 14 12 32.5t30.5 34t38 25.5 t36.5 10q31 0 50 -18.5t29.5 -44t14.5 -56t4 -55.5v-579q0 -4 -6 -11l-10 -10h-11q-25 0 -57.5 25.5t-62 58.5t-49 61.5t-19.5 34.5z" />
<glyph unicode="w" horiz-adv-x="1474" d="M31 946q27 2 42 18.5t40 18.5q35 0 46 -32.5t15 -59.5v-92q0 -12 1 -58.5t2 -98.5t2 -98t1 -59v-41q0 -66 -3 -105.5t-12 -67t-25.5 -48t-41.5 -45.5v-4q2 -16 30 -20t36 -17q18 -8 43.5 -32.5t51.5 -51t44.5 -48t20.5 -21.5h4q2 0 7 10t11 23l12 27q6 13 11 17 q66 86 163 117v17q0 14 -13 26t-29.5 25.5t-30 33t-13.5 48.5v512q0 20 15.5 49t38 54.5t48 43t46.5 17.5h16q29 -27 42.5 -74t18.5 -105.5t5 -119.5v-117v-287q23 -106 90.5 -165.5t151.5 -115.5q4 -4 21 -20t34 -16h6q66 70 130.5 116.5t150.5 98.5q70 41 106.5 101 t54 130t20.5 145.5t3 145.5q0 84 -7 145.5t-26.5 113.5t-54.5 103.5t-90 114.5q-6 10 -21 10h-10q-16 -18 -57 -54t-87.5 -71.5t-86 -62.5t-52.5 -27h-10q-12 27 -29.5 60.5t-39 65.5t-46 58.5t-53.5 34.5h-10q2 0 -30 -27.5t-78 -67.5t-97 -84t-88 -77h-10q-10 0 -25.5 39 t-36 87t-47 87t-59.5 39h-10q-20 -35 -63.5 -70.5t-85.5 -69.5t-73.5 -64.5t-29.5 -57.5zM952 430v461q0 29 35 65.5t68 36.5q31 0 51 -18.5t33.5 -46t18.5 -59t5 -56.5v-573q0 -20 -20 -21q-25 0 -58.5 22.5t-62.5 55.5t-49.5 69.5t-20.5 63.5z" />
<glyph unicode="x" horiz-adv-x="999" d="M31 35q0 -31 6 -29t18.5 16.5t31.5 32t46 17.5q20 0 36.5 -10.5t31 -21.5t28 -20.5t27.5 -9.5h4l5 7q5 7 5 3l103 220q4 10 16 10h10q12 -23 43 -66t68 -85t76 -73.5t69 -31.5q4 0 44 38t87.5 89t86 102t38.5 78h-10l-78 -76h-14q-43 0 -73.5 28t-50 67.5t-30 82.5 t-10.5 72v57q10 18 43 37t43 25q39 27 53.5 74t14.5 94q-14 0 -24.5 -9.5t-24 -21.5t-31 -21.5t-43.5 -9.5q-8 0 -19.5 2.5t-11.5 18.5v170q0 14 10 14h15q20 0 38.5 -2t39.5 -2q43 0 82.5 25.5t70.5 62.5t49.5 81t18.5 81q0 18 -8.5 13t-22.5 -17t-33.5 -26.5t-44.5 -14.5 t-42 12t-29.5 27.5t-20.5 29t-16 13.5h-4q-23 -29 -43.5 -67t-37 -72.5t-31.5 -58t-28 -23.5q-4 0 -31.5 28.5t-64.5 66.5t-74 73.5t-59 52.5h-6q-12 0 -38 -25.5t-56 -58.5l-62 -66q-31 -33 -49 -45q-12 -10 -30.5 -29.5t-31 -32.5t-14.5 -16v-30l92 71l9 3q8 3 12 4 q37 0 64.5 -25t46 -60.5t27.5 -75.5t9 -71l-4 -35q0 -4 -25 -12l-26 -8q-66 -29 -87.5 -79t-21.5 -112q18 0 27.5 7.5t20 16.5t27 16t48.5 7h37l4 -204q0 -8 -3 -20.5t-11 -16.5q-57 -2 -112.5 -16.5t-98.5 -45t-69.5 -78.5t-26.5 -116z" />
<glyph unicode="y" horiz-adv-x="997" d="M31 942l10 -16l65 51l7 3q6 3 10 3q27 0 42 -15.5t22.5 -38t9.5 -48t2 -47.5v-216q0 -51 1 -95t1 -89q0 -37 1 -65.5t-5.5 -55t-22.5 -55.5t-51 -63v-11q0 -12 12 -19t28.5 -12.5t34 -9.5t27.5 -10q41 -23 65.5 -56.5t47.5 -72.5h10q23 0 28 22.5t13 39.5q31 53 81 77.5 t108 40.5v11q0 12 -16.5 25t-36 29.5t-35 37t-15.5 45.5v528q0 14 15.5 34.5t36 39t43 31t34.5 12.5h4q25 0 41.5 -23.5t26.5 -55.5t15 -62.5t5 -42.5v-803q0 -129 -85 -217t-208 -117q-8 -4 -9 -12.5t-1 -12.5q104 0 208 51.5t184.5 133.5t131 185t50.5 208v686 q0 72 -34 139.5t-83 116.5l-51 51h-27q-57 -72 -119.5 -124t-136.5 -105q-18 -20 -35 -21q-23 0 -36 39t-30.5 86t-43 86t-70.5 39h-14q-4 0 -21.5 -18.5t-39 -40t-39 -42t-19.5 -22.5q-12 -10 -34.5 -27.5t-45 -37t-40 -39t-17.5 -33.5z" />
<glyph unicode="z" horiz-adv-x="645" d="M31 915q0 -10 10 -20h4q12 0 34.5 25.5t43.5 25.5q31 0 62.5 -22.5t57 -55t42 -68.5t16.5 -63q0 -23 -4 -47t-21 -41l-180 -178v-10h27l76 51l6 2q6 2 10 2q35 0 53.5 -32.5t18.5 -63.5q0 -18 -18.5 -44t-42 -53.5t-47 -53t-36.5 -44.5q-41 -68 -61.5 -129t-20.5 -153 q0 -55 12.5 -111.5t41 -102.5t73.5 -75t113 -29q82 0 141.5 52.5t98.5 128t56 159.5t17 148q0 109 -29.5 194.5t-82.5 177.5q0 4 -3 10.5t-3 10.5q0 29 15 48t15 50q-12 0 -20 -10t-14.5 -23.5t-14.5 -23.5t-22 -10q-12 0 -44 12t-60.5 26.5t-42 26.5t13.5 12q72 61 126 136 t54 176q0 86 -40 134t-100 101q-18 20 -22 28.5t-23 8.5l-37 -33q-38 -33 -87.5 -77t-96.5 -91t-65 -75v-7zM158 -41q0 119 23.5 211t115.5 172h4q8 0 13 -14.5t8.5 -35t4.5 -44t1 -39.5v-45v-426q0 -27 -14.5 -49.5t-37.5 -22.5q-41 0 -64.5 23.5t-35.5 59.5t-15 78t-3 79 v53zM389 444q20 0 21 -20q-21 0 -21 20z" />
<glyph unicode="&#xaa;" horiz-adv-x="952" d="M31 659q0 -16 1 -63t2 -100.5t3 -101.5t4 -66q8 -41 26.5 -96.5t49.5 -88.5l133 -139h20q51 59 120 116.5t126 104.5h10q10 0 32 -30.5t45.5 -69.5t43 -73t23.5 -38l10 -4q12 -6 52 32t82 90t75 103.5t33 71.5q-20 0 -30.5 -15.5t-27.5 -15.5q-31 0 -44 38t-18 95 q-4 47 -4 101v21q1 67 1 124v271q0 23 25.5 61.5t49.5 77.5l-24 4l-51 -41h-11q-12 0 -44.5 32t-74.5 70.5t-87 70.5t-80 32q-12 0 -26.5 -13.5t-29 -31t-26.5 -33.5t-21 -25q-68 -59 -134 -97t-118.5 -81t-84 -104.5t-31.5 -167.5v-21zM311 389v361v65v61q0 32 3 57 t8.5 42.5t15.5 17.5q31 0 61.5 -22.5t56 -54t44 -68.5t26.5 -66q0 -23 1 -78t2 -115.5t2 -114.5t1 -75v-30q0 -18 -5 -45t-16 -49.5t-28.5 -39t-42.5 -16.5q-31 0 -53 17.5t-37.5 44t-25 56t-13.5 52.5z" />
<glyph unicode="&#xad;" d="M31 614h833q27 27 36 60t36 67q12 20 50 52t38 67h-829q-14 0 -22.5 -14.5t-13.5 -33.5t-8.5 -36.5t-7.5 -23.5q-20 -31 -65 -68t-47 -70z" />
<glyph unicode="&#xb2;" horiz-adv-x="987" d="M31 1311q0 -113 61.5 -177.5t173.5 -64.5q63 0 105.5 54.5t42.5 109.5q0 61 -38 107t-100 46q-61 0 -92.5 -28.5t-46 -63t-18.5 -64.5t-13 -32q-31 23 -41 48.5t-10 64.5q0 70 29 125t76 93t107.5 58.5t125.5 20.5h58q10 -20 29.5 -27.5t35.5 -24.5q74 -57 88 -140 t14 -167q0 -100 -28.5 -181t-74.5 -152.5t-106.5 -139t-121.5 -141.5q-102 -121 -168 -280.5t-68 -319.5q12 0 20.5 31.5t24 70.5t44 71t79.5 32q59 0 97 -37t77 -83t89 -83t132 -37q104 0 170 44t105 112.5t53 155.5t14 173h-20q-2 -25 -5 -59.5t-14.5 -67t-33 -55 t-60.5 -22.5q-51 0 -96 24.5t-89 55t-89 55t-98 24.5h-43q-27 -2 -48.5 -7t-58.5 -23q-16 -8 -35.5 -24.5t-40 -34t-38 -31t-29.5 -13.5q-10 0 -11 15q0 43 31 87t72 81.5t81 66.5t58 41q8 6 44 24.5t76 40t74.5 40t45.5 24.5q139 78 228 202t89 290q0 111 -40 195.5 t-109.5 141t-160.5 85t-196 28.5h-88q-4 0 -15 -5t-15 -5q-59 -25 -111.5 -56.5t-92.5 -73.5t-63.5 -95t-23.5 -123z" />
<glyph unicode="&#xb3;" horiz-adv-x="1013" d="M31 348q0 -88 37.5 -153.5t99 -108.5t138.5 -64.5t155 -21.5q104 0 199.5 37t167 103.5t113.5 157.5t42 198q0 176 -85 284.5t-239 182.5l-10 10q2 -2 10.5 6t10.5 8q57 35 103 66.5t78 68.5t48 82t16 107q0 182 -153 270q-33 18 -76 39.5t-88 21.5h-209 q-55 0 -113.5 -30.5t-106.5 -78.5t-78 -105.5t-30 -112.5q0 -94 60.5 -155.5t154.5 -63.5q70 0 117 47t47 117q0 57 -26.5 102t-96.5 45q-66 0 -99.5 -27.5t-50.5 -59.5t-23.5 -59.5t-16.5 -27.5q-12 0 -18.5 11t-10.5 25.5t-5 29t-1 22.5q0 63 31 113.5t80 85t107.5 53 t113.5 18.5h57q51 -20 80 -56t44.5 -80t19.5 -93t4 -98q0 -127 -55.5 -189.5t-122 -95.5t-121 -51.5t-54.5 -57.5q0 -8 4.5 -17t16.5 -9q25 0 46.5 12t43 26.5t43 27t45.5 12.5q70 0 106.5 -51.5t51 -122t15.5 -142t1 -114.5q0 -78 -6 -155t-31.5 -138.5t-78 -99.5 t-144.5 -38q-57 0 -116.5 20.5t-107.5 58.5t-79 90.5t-31 117.5q0 8 1 25.5t4 35t10.5 30t21.5 12.5q8 0 16.5 -24t26 -53.5t48 -53t83.5 -23.5q61 0 104.5 39t43.5 104q0 72 -43 118t-121 46q-51 0 -92 -22.5t-69 -58.5t-43 -82t-15 -93z" />
<glyph unicode="&#xb9;" horiz-adv-x="593" d="M31 1212l92 68h10q35 0 35 -48v-91q0 -51 1 -122t2 -143.5t2 -142t1 -121.5v-80v-471q-4 -10 -17.5 -15t-26.5 -9t-23.5 -9t-10.5 -18q43 -8 68.5 -9t64.5 -1q86 0 166 2t168 12v21l-78 16l-14 15q-4 88 -7 208.5t-4 259t-2 288t-1 292.5v189q0 90 -2 172q0 12 -1 38.5 t-2 55t-3.5 55.5t-4.5 39h-4q-6 0 -21.5 -17.5t-30.5 -40t-29.5 -43t-20.5 -26.5q-61 -76 -131 -133t-135 -123l-41 -41v-27z" />
<glyph unicode="&#xba;" horiz-adv-x="808" d="M31 700q0 -78 3 -142t7 -155q16 -61 38.5 -127.5t78.5 -107.5q25 -18 55.5 -45t58 -51.5t49 -41t27.5 -16.5t21.5 18.5t33 41t34 41t28.5 18.5l194 123q41 27 80 86t39 113v385q0 70 -31.5 127t-78.5 104t-101.5 87t-101.5 75h-10q2 0 -34 -24.5t-81 -56.5t-87 -60.5 t-54 -36.5q-94 -61 -131 -153.5t-37 -201.5zM297 782v52q0 10 1 34.5t1 53.5t1 54t1 38l16 4q20 6 53 -20.5t64 -63.5t54.5 -74t27.5 -51q0 -8 3 -39t3 -39v-475q0 -8 -6 -9t-10 -1q-35 0 -69 28.5t-61.5 69.5t-48 84t-26.5 74q0 14 -1 54t-1 83q0 45 -1 86t-1 57zM465 1069 q0 4 4 4q2 0 2 -2v-2q0 -4 -4 -4q-2 0 -2 4z" />
<glyph unicode="&#x152;" horiz-adv-x="3022" d="M1618 860q0 -109 9 -197t44 -182q12 -35 36.5 -71.5t24.5 -71.5v-21q-20 -23 -54 -72.5t-34 -86.5v-148q0 -8 6.5 -23.5t13.5 -30.5t13 -29.5t8 -18.5q86 -131 214 -181.5t278 -50.5h92q182 47 317 170l41 41q25 25 27 31v25q-12 0 -37.5 -18.5t-54.5 -42t-56.5 -46 t-46.5 -31.5q-66 -33 -140.5 -42t-141.5 -9q-80 0 -169 14.5t-164 51.5t-124 101.5t-49 164.5q0 18 5 52t15.5 67t29 57.5t42.5 24.5h21q100 -117 234 -184.5t288 -67.5q162 0 299 58.5t254 166.5q12 10 30.5 26.5t37 36t31.5 41t13 39.5h-16q-51 -47 -126 -100t-150 -53 q-14 0 -21.5 46t-10.5 106.5t-3 119.5v86v103l20 20q2 2 15.5 0t17.5 -2q86 0 154.5 43t68.5 143q0 57 -22.5 98.5t-59.5 67t-85 37.5t-99 12l-10 17v178q0 14 54 42t118.5 69t119 95t56.5 122h-21q-53 -47 -95 -72t-109 -25q-66 0 -105 25t-61.5 54.5t-32.5 54t-16 24.5 h-11q-68 -74 -150.5 -135t-155.5 -130t-122 -153t-49 -200q0 -74 20.5 -137.5t57.5 -124.5q25 -41 63.5 -81t75.5 -81t63.5 -85t26.5 -95q0 -20 -6 -41t-28 -21q-29 0 -49.5 13.5t-43.5 21.5q-53 12 -87.5 16t-92.5 15q-4 8 -12 25.5t-12 21.5q-53 100 -78 201.5t-25 218.5 q0 106 16.5 197t56.5 167t106.5 138.5t168.5 111.5v25q-111 0 -219 -58.5t-198.5 -148.5t-154 -199t-83.5 -209q-8 -23 -10 -57.5t-2 -69.5zM2122 434q-3 3 -4 5q0 5 14 7l20 5q41 0 81 -39t63 -70h10q14 0 52 36t78 87t69.5 107.5t29.5 97.5v170q-8 18 -9 34.5t-1 36.5 q0 53 35 102.5t94 51.5v-10q-35 -35 -56.5 -72t-21.5 -88q0 -45 20.5 -83t20.5 -81v-471l-14 -20h-47q-131 0 -237.5 49t-192.5 141zM2259 1356q-2 20 7 51t34 31q39 0 80 -36t79 -50q48 -17 78 -17h6q31 2 46.5 -3t19.5 -32.5t4 -107.5v-72q0 -6 -18.5 -29.5t-43 -47 t-46.5 -37.5q-12 -8 -21 -8q-7 0 -10 6l-168 219q-47 63 -47 133zM31 782q0 -166 72.5 -311t193.5 -256v-16q0 -41 -25.5 -89.5t-25.5 -105.5q0 -18 8 -49t16 -47q31 -72 82 -118t115.5 -73.5t136.5 -39t144 -11.5q154 0 270.5 56.5t220.5 164.5q10 18 22.5 41t12.5 45h-10 q-109 -123 -251.5 -169t-301.5 -46q-70 0 -144.5 11.5t-137 42t-102.5 85t-40 138.5q0 14 2 35.5t9 42t20.5 36t33.5 15.5h10q18 0 47 -11.5t60 -26.5t57.5 -30.5t40.5 -23.5q10 -4 33 -10.5t47.5 -12.5t45 -10t28.5 -4h92q170 0 307 71.5t233.5 189.5t149.5 268.5t53 309.5 q0 80 -8 156t-28 152q-31 106 -96.5 197t-154.5 158t-193.5 104.5t-215.5 37.5q-78 0 -156.5 -8t-150.5 -29q-39 -10 -71.5 -22t-71.5 -12q-23 0 -47.5 11t-24.5 40q0 18 5 32.5t5 32.5q-43 0 -57.5 -41t-14.5 -75q0 -51 26 -91t56.5 -70t56 -48.5t25.5 -26.5l-6 -10 q-96 -57 -171 -112.5t-126 -122t-78.5 -149.5t-27.5 -196zM362 881v75q0 4 8.5 66.5t28 135.5t50 133.5t73.5 60.5q18 0 32.5 -1t33.5 -10l297 -16q33 -2 67.5 -13.5t66.5 -26.5t57.5 -32.5t39.5 -29.5q68 -61 112 -121t69.5 -124.5t37 -138t11.5 -163.5q0 -104 -32 -212 t-94.5 -197t-152.5 -145t-207 -56q-106 0 -182 48t-152 126v10q0 10 17 26h51q45 0 70.5 -5t41 -17t27.5 -31.5t35 -48.5v-6q25 0 71 54t91 125t82 139.5t43 97.5q10 39 10 63v43q0 94 -39 157.5t-84 122t-84 126t-39 168.5v10h-10q-39 0 -74 -39t-60.5 -93.5t-41 -112.5 t-15.5 -97q0 -82 28 -157t75 -140q18 -27 42.5 -53.5t46 -55t36 -59.5t14.5 -68q0 -23 -8 -57.5t-39 -34.5q-41 0 -81 12.5t-87 12.5q-39 0 -73.5 -7.5t-69.5 -7.5q-37 0 -63.5 68t-44 160t-25 186.5t-7.5 149.5z" />
<glyph unicode="&#x153;" horiz-adv-x="1488" d="M840 403q0 -49 22.5 -111.5t60.5 -120.5t86 -103t97 -64h4q12 0 51 27.5t82 62.5t79 67t44 38q20 14 49 44.5t29 32.5v11h-27q-31 -23 -54.5 -47.5t-61.5 -24.5q-16 0 -46 20.5t-60 49t-52.5 60.5t-22.5 54v15q49 49 108.5 103t111 115.5t85 132.5t33.5 150 q0 31 -14 83.5t-39 103.5t-57.5 89t-67.5 38h-6q-49 -55 -124 -105.5t-143.5 -105.5t-117.5 -119.5t-49 -150.5v-345zM1099 853q0 11 -1 21q0 21 2 41q2 31 9 54.5t22 23.5h6q33 0 58.5 -36.5t42.5 -85t26.5 -94.5t9.5 -66q0 -25 -13.5 -62t-34 -72.5t-46 -60t-49.5 -24.5 q-12 0 -21 4q-6 68 -8 120t-2 107v80q0 18 -1 50zM31 700q0 -78 3 -142t7 -155q16 -61 38.5 -127.5t78.5 -107.5q25 -18 55.5 -45t58 -51.5t49 -41t27.5 -16.5t21.5 18.5t33 41t34 41t28.5 18.5l194 123q41 27 80 86t39 113v385q0 70 -31.5 127t-78.5 104t-101.5 87 t-101.5 75h-10q2 0 -34 -24.5t-81 -56.5t-87 -60.5t-54 -36.5q-94 -61 -131 -153.5t-37 -201.5zM297 782v52q0 10 1 34.5t1 53.5t1 54t1 38l16 4q20 6 53 -20.5t64 -63.5t54.5 -74t27.5 -51q0 -8 3 -39t3 -39v-475q0 -8 -6 -9t-10 -1q-35 0 -69 28.5t-61.5 69.5t-48 84 t-26.5 74q0 14 -1 54t-1 83q0 45 -1 86t-1 57zM465 1069q0 4 4 4q2 0 2 -2v-2q0 -4 -4 -4q-2 0 -2 4z" />
<glyph unicode="&#x2000;" horiz-adv-x="907" />
<glyph unicode="&#x2001;" horiz-adv-x="1816" />
<glyph unicode="&#x2002;" horiz-adv-x="907" />
<glyph unicode="&#x2003;" horiz-adv-x="1816" />
<glyph unicode="&#x2004;" horiz-adv-x="604" />
<glyph unicode="&#x2005;" horiz-adv-x="452" />
<glyph unicode="&#x2006;" horiz-adv-x="301" />
<glyph unicode="&#x2007;" horiz-adv-x="301" />
<glyph unicode="&#x2008;" horiz-adv-x="225" />
<glyph unicode="&#x2009;" horiz-adv-x="362" />
<glyph unicode="&#x200a;" horiz-adv-x="100" />
<glyph unicode="&#x2010;" d="M31 614h833q27 27 36 60t36 67q12 20 50 52t38 67h-829q-14 0 -22.5 -14.5t-13.5 -33.5t-8.5 -36.5t-7.5 -23.5q-20 -31 -65 -68t-47 -70z" />
<glyph unicode="&#x2011;" d="M31 614h833q27 27 36 60t36 67q12 20 50 52t38 67h-829q-14 0 -22.5 -14.5t-13.5 -33.5t-8.5 -36.5t-7.5 -23.5q-20 -31 -65 -68t-47 -70z" />
<glyph unicode="&#x2012;" d="M31 614h833q27 27 36 60t36 67q12 20 50 52t38 67h-829q-14 0 -22.5 -14.5t-13.5 -33.5t-8.5 -36.5t-7.5 -23.5q-20 -31 -65 -68t-47 -70z" />
<glyph unicode="&#x2013;" horiz-adv-x="1024" d="M31 614v246h962v-246h-962z" />
<glyph unicode="&#x2014;" horiz-adv-x="2048" d="M31 614v246h1986v-246h-1986z" />
<glyph unicode="&#x2019;" horiz-adv-x="266" d="M31 1683q0 -18 4 -47.5t8 -58.5t8 -49.5t4 -22.5l11 -6l14 -2q14 -2 33.5 -3t41 -3t33.5 -2h7q8 0 15 30.5t13 70.5t9.5 79t3.5 55h-205v-41z" />
<glyph unicode="&#x201c;" horiz-adv-x="573" d="M31 1683q0 -18 4 -47.5t8 -58.5t8 -49.5t4 -22.5l11 -6l14 -2q14 -2 33.5 -3t41 -3t33.5 -2h7q8 0 15 30.5t13 70.5t9.5 79t3.5 55h-205v-41zM338 1688q0 -18 4 -48t8 -59t8 -49.5t4 -22.5l11 -6l14 -2q14 -2 33.5 -3t41 -3t34.5 -2h6q8 0 15 30.5t13.5 70.5t9.5 79t3 56 h-205v-41z" />
<glyph unicode="&#x201d;" horiz-adv-x="573" d="M31 1683q0 -18 4 -47.5t8 -58.5t8 -49.5t4 -22.5l11 -6l14 -2q14 -2 33.5 -3t41 -3t33.5 -2h7q8 0 15 30.5t13 70.5t9.5 79t3.5 55h-205v-41zM338 1688q0 -18 4 -48t8 -59t8 -49.5t4 -22.5l11 -6l14 -2q14 -2 33.5 -3t41 -3t34.5 -2h6q8 0 15 30.5t13.5 70.5t9.5 79t3 56 h-205v-41z" />
<glyph unicode="&#x2026;" horiz-adv-x="952" d="M666 158q0 -61 35.5 -97t97.5 -36q57 0 90 43t33 96q0 57 -34 95t-95 38q-66 0 -96.5 -39t-30.5 -100zM348 158q0 -61 35.5 -97t97.5 -36q57 0 90 43t33 96q0 57 -34 95t-95 38q-66 0 -96.5 -39t-30.5 -100zM31 158q0 -61 35.5 -97t97.5 -36q57 0 90 43t33 96 q0 57 -34 95t-95 38q-66 0 -96.5 -39t-30.5 -100z" />
<glyph unicode="&#x202f;" horiz-adv-x="362" />
<glyph unicode="&#x205f;" horiz-adv-x="452" />
<glyph unicode="&#x2122;" horiz-adv-x="4069" d="M1649 1577q0 -59 24.5 -114.5t66.5 -97.5t96 -66.5t114 -24.5q90 0 175 20.5t173 20.5q80 0 135 -27.5t90 -75t51.5 -111t16.5 -134.5q0 -55 -12.5 -122t-40 -123t-74.5 -95t-119 -39q-10 0 -39 5t-58.5 14t-53 22.5t-23.5 29.5v7q0 10 10 10q74 4 134.5 51t60.5 123 q0 72 -52.5 120t-117.5 48q-78 0 -131.5 -53.5t-53.5 -124.5q0 -68 28 -121t73 -90t103.5 -56.5t119.5 -19.5q123 0 215 56.5t153.5 145.5t92.5 198.5t31 217.5q0 43 -5.5 83t-5.5 81q0 25 21.5 64t54.5 39q23 0 39 -15.5t26.5 -37t16.5 -45t6 -40.5v-942q0 -35 -25.5 -59.5 t-25.5 -52.5q2 -16 32.5 -24.5t43.5 -16.5q63 -37 97 -89.5t67 -111.5q4 0 18 22.5t33.5 52.5t39 58.5t31.5 40.5q4 4 21.5 16.5t37 27t35 25.5t15.5 13v6q0 4 -14.5 20.5t-16.5 20.5q-47 72 -47 144v833l10 129q0 8 15.5 32.5t25.5 33.5h47q39 0 72 -16.5t65.5 -35 t69.5 -35t84 -16.5q20 0 42 5t40 5h10q-92 -92 -150 -174t-92 -168t-46.5 -186t-12.5 -229q0 -104 16.5 -197.5t55.5 -191.5q6 -14 25.5 -50t45 -73t52.5 -64.5t45 -27.5h10q4 0 32 29.5t60.5 66.5t62.5 69.5t36 38.5q31 31 58.5 48.5t27.5 60.5q-27 0 -38 -20.5t-38 -20.5 q-53 0 -80 79t-36 189q-8 100 -8 206v24q1 119 1 198v25q0 78 6 157.5t35 149.5q8 18 28.5 41t42 44.5t39 39.5t17.5 29q-37 0 -67.5 -26t-59.5 -26v11q0 6 21.5 33.5t49 59.5t52 61.5t31.5 39.5v10q0 4 -1 10.5t-10 6.5q-12 0 -21 -12.5t-20.5 -26.5t-26 -26.5t-34.5 -12.5 q-43 0 -67.5 21.5t-55.5 39.5q-47 29 -92 40.5t-98 11.5q-61 0 -113.5 -35t-92.5 -78t-63.5 -78t-27.5 -35l-11 11q-16 16 -34.5 54t-39 76t-41 66.5t-42.5 28.5q-82 -74 -169 -141.5t-165 -149.5h-4q-6 0 -30.5 24.5t-54.5 56.5t-56.5 60.5t-38.5 36.5q-80 47 -154 62.5 t-164 15.5q-31 0 -76 -1t-71 -9q-76 -20 -146.5 -49t-156.5 -29q-68 0 -97.5 21.5t-41 48t-14.5 48t-15 21.5h-6q-12 0 -18.5 -20.5t-10.5 -46t-5 -48t-1 -28.5zM1915 35q0 -100 53 -172t133 -118t173.5 -67.5t172.5 -21.5q139 0 269.5 53t222.5 162q8 2 31.5 32.5 t23.5 45.5h-30q-111 -131 -251.5 -170t-291.5 -41q-63 0 -145.5 13t-156 46t-123.5 88.5t-50 139.5q0 55 24.5 94t64.5 62.5t89 33.5t98 10q115 0 215 -57q16 -8 39 -35t44.5 -55.5t36.5 -51t17 -22.5q6 0 7 6l10 4q78 98 159.5 175t182.5 159v31q-31 0 -52.5 -28.5 t-50.5 -28.5q-12 18 -55 42.5t-98 46t-115.5 36t-109.5 14.5q-88 0 -182.5 -29t-173.5 -83t-130 -133t-51 -181zM31 1305q0 -111 68.5 -163t176.5 -52q37 0 75 15t71 42t53.5 62.5t20.5 74.5q-27 0 -44.5 -24.5t-37.5 -40.5q-35 -31 -76 -44.5t-82 -13.5q-72 0 -136.5 34 t-64.5 116q0 49 29 84t71 55t89 29.5t84 9.5q43 0 103.5 -11.5t120.5 -29.5t112.5 -45t76.5 -57v-5q0 -6 -42 -39.5t-99 -82t-116.5 -101.5t-94.5 -100q-139 -188 -139 -414q0 -66 20.5 -129t51.5 -123q10 -16 38.5 -57t28.5 -66q0 -23 -22.5 -51t-34.5 -51 q-35 -59 -35 -133q0 -100 59.5 -176t147.5 -127t190.5 -76t186.5 -25q293 0 495 220q16 20 26.5 37.5t10.5 43.5h-10q-119 -125 -240 -170t-289 -45q-76 0 -171 13.5t-179 50.5t-140 100.5t-56 163.5q0 14 7 45t20.5 61.5t33 54t41.5 23.5h4q14 0 34.5 -14t42 -33.5t42 -38 t35.5 -26.5q154 -92 338 -92q190 0 338.5 91t265.5 242q16 23 33.5 58t17.5 65q-27 -2 -48.5 -36.5t-37.5 -51.5q-72 -72 -171 -99.5t-194 -27.5q-20 0 -76.5 7.5t-114.5 21.5t-104.5 37.5t-46.5 56.5q53 0 85 -28.5t59 -28.5q18 0 34.5 12t16.5 29q0 18 -19.5 31.5 t-46 22.5t-51 13t-37.5 4h-112q-41 29 -66.5 81.5t-39 112.5t-18.5 119.5t-5 102.5q0 106 27.5 225t101.5 199q16 16 37.5 42t48.5 26q10 0 39.5 -10.5t60.5 -23.5t55.5 -26.5t24.5 -21.5v-6q-78 -68 -138.5 -145t-62.5 -183q0 -82 19.5 -131t68.5 -119q35 -49 81 -97 t46 -114q0 -18 -5 -37.5t-5 -38.5h27q2 0 24.5 25t36.5 37q53 61 90 136t37 161q0 76 -33.5 127t-73.5 93t-74 83t-34 96q0 31 16.5 67t55.5 36h221q8 0 30.5 5t30.5 9q104 39 175 121t71 202q0 27 -13 65t-48 38q0 -20 5 -36.5t5 -35.5q0 -66 -45 -82t-98 -16 q-57 0 -110.5 13.5t-105 32.5t-101.5 40.5t-103 36.5q-96 27 -178 34t-177 7h-133q-70 -12 -149.5 -36t-147 -65t-112.5 -101t-45 -146z" />
<glyph unicode="&#xe000;" horiz-adv-x="1190" d="M0 1190h1190v-1190h-1190v1190z" />
<glyph unicode="&#xfb01;" horiz-adv-x="1396" d="M803 956q29 0 43 26t45 26q23 0 40 -29t21 -47q2 -27 3 -89.5t3 -136t3 -147.5t1 -127v-63q0 -74 4.5 -124t21.5 -90t50 -76t88 -79h11q2 0 37.5 34t78.5 77t78 80.5t35 48.5h-10q-2 0 -23.5 -12.5t-28.5 -12.5h-4q-25 0 -39 24.5t-21 60.5t-9 76t-2 68v41v234 q0 59 1 118.5t3 118.5q16 35 40.5 68t47.5 61v31l-82 -67q-4 0 -19.5 28.5t-37 61t-47 61.5t-50.5 29h-10q-23 0 -68 -38t-91 -85t-79.5 -92.5t-33.5 -57.5zM977 1464q0 -61 39 -97t100 -36q57 0 90 42t33 95q0 59 -34 99.5t-95 40.5q-70 0 -101.5 -41.5t-31.5 -102.5z M31 1161q0 -31 14 -38t31.5 -10t32 -13t14.5 -45v-6v-871q0 -23 1 -83t3 -128.5t4 -129t2 -83.5h14q2 41 3 82v80q0 115 41.5 207t181.5 143l6 15v665q0 18 1 46t4 54.5t6 45t9 18.5q10 2 34 3t48.5 7t43 22.5t18.5 49.5v27q0 16 -10.5 23t-20.5 7q-29 0 -52.5 -5t-49.5 -5 l-21 14q-8 39 -9 67t-1 66v68l9 7q9 7 11 7q31 0 56.5 -17t56.5 -17q45 0 87 21.5t74 56t50 78.5t18 89q-25 0 -46 -25.5t-50 -25.5q-43 0 -64.5 23.5t-37.5 58.5h-27q-6 -6 -18.5 -20.5t-26.5 -29.5t-28 -29l-19 -19q-31 -25 -68 -45.5t-71.5 -43t-66.5 -50t-50 -66.5 q-20 -43 -29.5 -81t-21.5 -87q-4 -14 -17.5 -16t-29 -5.5t-27.5 -13.5t-12 -43z" />
<glyph unicode="&#xfb02;" horiz-adv-x="1482" d="M803 123l5 -5q5 -5 9 -5l72 71h10q18 0 29.5 -13t20.5 -31.5t19.5 -37t22.5 -30.5q6 -8 41 -34t41 -34h37q4 0 17.5 16.5t13.5 20.5q31 23 69.5 50.5t73.5 53t58.5 47t23.5 33.5v15q-23 0 -40 -15.5t-38 -15.5h-8q-20 0 -39.5 24.5t-34 55t-23 61.5t-8.5 43v989 q0 39 1.5 84t10.5 82t28.5 61.5t58.5 24.5q10 0 6 -13t-13.5 -32.5t-19.5 -41t-10 -38.5q0 -49 28.5 -80.5t79.5 -31.5q57 0 82 33.5t25 85.5q0 78 -65.5 122.5t-143.5 44.5q-55 0 -115.5 -20.5t-109.5 -57t-81 -88t-32 -114.5v-1102q0 -27 -15.5 -49.5t-35 -43t-35.5 -41 t-16 -40.5v-4zM31 1161q0 -31 14 -38t31.5 -10t32 -13t14.5 -45v-6v-871q0 -23 1 -83t3 -128.5t4 -129t2 -83.5h14q2 41 3 82v80q0 115 41.5 207t181.5 143l6 15v665q0 18 1 46t4 54.5t6 45t9 18.5q10 2 34 3t48.5 7t43 22.5t18.5 49.5v27q0 16 -10.5 23t-20.5 7 q-29 0 -52.5 -5t-49.5 -5l-21 14q-8 39 -9 67t-1 66v68l9 7q9 7 11 7q31 0 56.5 -17t56.5 -17q45 0 87 21.5t74 56t50 78.5t18 89q-25 0 -46 -25.5t-50 -25.5q-43 0 -64.5 23.5t-37.5 58.5h-27q-6 -6 -18.5 -20.5t-26.5 -29.5t-28 -29l-19 -19q-31 -25 -68 -45.5t-71.5 -43 t-66.5 -50t-50 -66.5q-20 -43 -29.5 -81t-21.5 -87q-4 -14 -17.5 -16t-29 -5.5t-27.5 -13.5t-12 -43z" />
<glyph unicode="&#xfb03;" horiz-adv-x="2168" d="M1575 956q29 0 43 26t45 26q23 0 40 -29t21 -47q2 -27 3 -89.5t3 -136t3 -147.5t1 -127v-63q0 -74 4.5 -124t21.5 -90t50 -76t88 -79h11q2 0 37.5 34t78.5 77t78 80.5t35 48.5h-10q-2 0 -23.5 -12.5t-28.5 -12.5h-4q-25 0 -39 24.5t-21 60.5t-9 76t-2 68v41v234 q0 59 1 118.5t3 118.5q16 35 40.5 68t47.5 61v31l-82 -67q-4 0 -19.5 28.5t-37 61t-47 61.5t-50.5 29h-10q-23 0 -68 -38t-91 -85t-79.5 -92.5t-33.5 -57.5zM1749 1464q0 -61 39 -97t100 -36q57 0 90 42t33 95q0 59 -34 99.5t-95 40.5q-70 0 -101.5 -41.5t-31.5 -102.5z M803 1161q0 -31 14 -38t31.5 -10t32 -13t14.5 -45v-6v-871q0 -23 1 -83t3 -128.5t4 -129t2 -83.5h14q2 41 3 82v80q0 115 41.5 207t181.5 143l6 15v665q0 18 1 46t4 54.5t6 45t9 18.5q10 2 34 3t48.5 7t43 22.5t18.5 49.5v27q0 16 -10.5 23t-20.5 7q-29 0 -52.5 -5t-49.5 -5 l-21 14q-8 39 -9 67t-1 66v68l9 7q9 7 11 7q31 0 56.5 -17t56.5 -17q45 0 87 21.5t74 56t50 78.5t18 89q-25 0 -46 -25.5t-50 -25.5q-43 0 -64.5 23.5t-37.5 58.5h-27q-6 -6 -18.5 -20.5t-26.5 -29.5t-28 -29l-19 -19q-31 -25 -68 -45.5t-71.5 -43t-66.5 -50t-50 -66.5 q-20 -43 -29.5 -81t-21.5 -87q-4 -14 -17.5 -16t-29 -5.5t-27.5 -13.5t-12 -43zM31 1161q0 -31 14 -38t31.5 -10t32 -13t14.5 -45v-6v-871q0 -23 1 -83t3 -128.5t4 -129t2 -83.5h14q2 41 3 82v80q0 115 41.5 207t181.5 143l6 15v665q0 18 1 46t4 54.5t6 45t9 18.5q10 2 34 3 t48.5 7t43 22.5t18.5 49.5v27q0 16 -10.5 23t-20.5 7q-29 0 -52.5 -5t-49.5 -5l-21 14q-8 39 -9 67t-1 66v68l9 7q9 7 11 7q31 0 56.5 -17t56.5 -17q45 0 87 21.5t74 56t50 78.5t18 89q-25 0 -46 -25.5t-50 -25.5q-43 0 -64.5 23.5t-37.5 58.5h-27q-6 -6 -18.5 -20.5 t-26.5 -29.5t-28 -29l-19 -19q-31 -25 -68 -45.5t-71.5 -43t-66.5 -50t-50 -66.5q-20 -43 -29.5 -81t-21.5 -87q-4 -14 -17.5 -16t-29 -5.5t-27.5 -13.5t-12 -43z" />
<glyph unicode="&#xfb04;" horiz-adv-x="2254" d="M1575 123l5 -5q5 -5 9 -5l72 71h10q18 0 29.5 -13t20.5 -31.5t19.5 -37t22.5 -30.5q6 -8 41 -34t41 -34h37q4 0 17.5 16.5t13.5 20.5q31 23 69.5 50.5t73.5 53t58.5 47t23.5 33.5v15q-23 0 -40 -15.5t-38 -15.5h-8q-20 0 -39.5 24.5t-34 55t-23 61.5t-8.5 43v989 q0 39 1.5 84t10.5 82t28.5 61.5t58.5 24.5q10 0 6 -13t-13.5 -32.5t-19.5 -41t-10 -38.5q0 -49 28.5 -80.5t79.5 -31.5q57 0 82 33.5t25 85.5q0 78 -65.5 122.5t-143.5 44.5q-55 0 -115.5 -20.5t-109.5 -57t-81 -88t-32 -114.5v-1102q0 -27 -15.5 -49.5t-35 -43t-35.5 -41 t-16 -40.5v-4zM803 1161q0 -31 14 -38t31.5 -10t32 -13t14.5 -45v-6v-871q0 -23 1 -83t3 -128.5t4 -129t2 -83.5h14q2 41 3 82v80q0 115 41.5 207t181.5 143l6 15v665q0 18 1 46t4 54.5t6 45t9 18.5q10 2 34 3t48.5 7t43 22.5t18.5 49.5v27q0 16 -10.5 23t-20.5 7 q-29 0 -52.5 -5t-49.5 -5l-21 14q-8 39 -9 67t-1 66v68l9 7q9 7 11 7q31 0 56.5 -17t56.5 -17q45 0 87 21.5t74 56t50 78.5t18 89q-25 0 -46 -25.5t-50 -25.5q-43 0 -64.5 23.5t-37.5 58.5h-27q-6 -6 -18.5 -20.5t-26.5 -29.5t-28 -29l-19 -19q-31 -25 -68 -45.5t-71.5 -43 t-66.5 -50t-50 -66.5q-20 -43 -29.5 -81t-21.5 -87q-4 -14 -17.5 -16t-29 -5.5t-27.5 -13.5t-12 -43zM31 1161q0 -31 14 -38t31.5 -10t32 -13t14.5 -45v-6v-871q0 -23 1 -83t3 -128.5t4 -129t2 -83.5h14q2 41 3 82v80q0 115 41.5 207t181.5 143l6 15v665q0 18 1 46t4 54.5 t6 45t9 18.5q10 2 34 3t48.5 7t43 22.5t18.5 49.5v27q0 16 -10.5 23t-20.5 7q-29 0 -52.5 -5t-49.5 -5l-21 14q-8 39 -9 67t-1 66v68l9 7q9 7 11 7q31 0 56.5 -17t56.5 -17q45 0 87 21.5t74 56t50 78.5t18 89q-25 0 -46 -25.5t-50 -25.5q-43 0 -64.5 23.5t-37.5 58.5h-27 q-6 -6 -18.5 -20.5t-26.5 -29.5t-28 -29l-19 -19q-31 -25 -68 -45.5t-71.5 -43t-66.5 -50t-50 -66.5q-20 -43 -29.5 -81t-21.5 -87q-4 -14 -17.5 -16t-29 -5.5t-27.5 -13.5t-12 -43z" />
</font>
</defs>
</svg>
